<?xml version="1.0" encoding="UTF-8" standalone="no"?>
<!-- Created with Inkscape (http://www.inkscape.org/) by Toomai Glittershine for SmashWiki -->

<svg
   xmlns:dc="http://purl.org/dc/elements/1.1/"
   xmlns:cc="http://creativecommons.org/ns#"
   xmlns:rdf="http://www.w3.org/1999/02/22-rdf-syntax-ns#"
   xmlns:svg="http://www.w3.org/2000/svg"
   xmlns="http://www.w3.org/2000/svg"
   xmlns:sodipodi="http://sodipodi.sourceforge.net/DTD/sodipodi-0.dtd"
   xmlns:inkscape="http://www.inkscape.org/namespaces/inkscape"
   id="svg2"
   version="1.1"
   height="151.03937"
   width="154.98276"
   viewBox="0 0 154.98276 151.03937"
   sodipodi:docname="animal-crossing.svg"
   inkscape:version="0.92.3 (2405546, 2018-03-11)">
  <defs
     id="defs7" />
  <sodipodi:namedview
     pagecolor="#ffffff"
     bordercolor="#666666"
     borderopacity="1"
     objecttolerance="10"
     gridtolerance="10"
     guidetolerance="10"
     inkscape:pageopacity="0"
     inkscape:pageshadow="2"
     inkscape:window-width="1920"
     inkscape:window-height="1017"
     id="namedview5"
     showgrid="false"
     inkscape:zoom="0.921875"
     inkscape:cx="77.6875"
     inkscape:cy="70.851865"
     inkscape:window-x="-8"
     inkscape:window-y="-8"
     inkscape:window-maximized="1"
     inkscape:current-layer="svg2" />
  <metadata
     id="metadata7">
    <rdf:RDF>
      <cc:Work
         rdf:about="">
        <dc:format>image/svg+xml</dc:format>
        <dc:type
           rdf:resource="http://purl.org/dc/dcmitype/StillImage" />
        <dc:title />
      </cc:Work>
    </rdf:RDF>
  </metadata>
  <path
     id="mainsymbolpath"
     style="opacity:0.5;fill:#000000;fill-opacity:1;stroke:none"
     d="m 128.03125,0 c -2.71881,15.751818 -6.42975,31.45122 -13.71875,44.15625 0,0 0.76088,-7.098177 -10.1875,-14.78125 C 93.17662,21.691926 77.27302,17.894667 58.03125,22.65625 39.942451,27.132518 28.420431,41.223186 22.6875,56.4375 17.693502,69.6908 16.135729,90.42962 13.0625,103.875 9.989271,117.32038 0,134.4375 0,134.4375 c 0,0 30.186065,15.52247 64.5625,16.5 27.32875,0.77712 40.1037,-3.0649 45.5625,-5.65625 -9.29525,1.01611 -18.48606,-3.04436 -23.1875,-11.1875 -6.49747,-11.25394 -1.95576,-26.02517 10.125,-33 12.08076,-6.97483 27.12753,-3.50394 33.625,7.75 4.7942,8.3038 3.59674,18.50321 -2.21875,26.09375 3.68868,-1.32832 11.59893,-4.97804 17.71875,-13.375 8.2593,-11.33253 10.73863,-32.25964 7.28125,-46.28125 -3.45739,-14.02161 -15.55226,-29.969537 -33.03125,-28.625 8.39804,-14.181592 17.53263,-24.848629 26.4375,-34.46875 z"
     inkscape:connector-curvature="0" />
</svg>
