<svg xmlns="http://www.w3.org/2000/svg" height="151.03937" width="154.98276"><path d="M128.03125 0c-2.71881 15.751818-6.42975 31.45122-13.71875 44.15625 0 0 .76088-7.098177-10.1875-14.78125-10.94838-7.683074-26.85198-11.480333-46.09375-6.71875C39.942451 27.132518 28.420431 41.223186 22.6875 56.4375c-4.993998 13.2533-6.551771 33.99212-9.625 47.4375C9.989271 117.32038 0 134.4375 0 134.4375s30.186065 15.52247 64.5625 16.5c27.32875.77712 40.1037-3.0649 45.5625-5.65625-9.29525 1.01611-18.48606-3.04436-23.1875-11.1875-6.49747-11.25394-1.95576-26.02517 10.125-33 12.08076-6.97483 27.12753-3.50394 33.625 7.75 4.7942 8.3038 3.59674 18.50321-2.21875 26.09375 3.68868-1.32832 11.59893-4.97804 17.71875-13.375 8.2593-11.33253 10.73863-32.25964 7.28125-46.28125-3.45739-14.02161-15.55226-29.969537-33.03125-28.625 8.39804-14.181592 17.53263-24.848629 26.4375-34.46875z" opacity=".5"/></svg>