<svg xmlns="http://www.w3.org/2000/svg" height="197.65907" width="183.31805"><path d="M181.25125 146.55472l-.20283-1.90486-2.75586-4.66117h-1.49964l-.28352-4.66117-.76987-1.58076-2.837-.28352-1.4185-2.83699-5.43103-2.06714-6.44568-15.80676-3.44506 8.83462-3.28278 5.06639h-.97271l-.89158 3.48563-2.75586-9.32189h-2.18882l-1.37794-2.39121h-1.29679v-.60805h.44579l2.14826-3.32336v-8.63223h2.43402l-.56749-1.70248.6892-1.13498-1.94542-8.02328-.72977-1.13498.0812-1.4185-7.70055-28.290191V49.283218h-.77347l-.81134.08116v15.077468l-1.25624 5.106961.32408 1.985983-1.33736 2.06712-5.3481 19.77695-10.49743-.44579V73.92645l-1.25624-.16226-5.26876-8.428967.48635-8.673263 2.14825-2.5129h1.21703v-9.686543h-1.09442V39.59896h2.75587L106.55545 6.282957V3.648349l-.85102-2.837007L104.97468 0v6.120243L93.948984 39.554792h2.87756v4.863557h-1.13318v1.336456h-7.61761l.12171-.769876 1.45906-1.580769v-5.147519h3.03983l-7.57929-20.751458V9.965552l-1.58077.486362V17.7878l-3.85028 11.794233.16227.445792-1.13498 1.823714-2.75587 6.445671h3.03985v5.147519l1.45906 1.58077 1.29679 8.428961h.6892l.48635 6.1608.0406.445781.40567 4.782417h.64412v-4.782417h1.74258l.48636-6.606581h.72976l.40567-2.755868 2.06712-2.310075c1.25623-.04058 2.59405-.04058 3.85027 0l2.43404 2.715746v3.0804h1.09441l2.14825 2.512912.48635 8.673263-5.71456 9.160062-.81134.52692v5.06639h-1.41849v-.81134h-1.25624v.81134h-1.09666v-1.29679h-1.25623v1.29679h-1.13498v-.52692h-1.25623v.52692h-1.13498v-1.29679h-1.25623v1.29679h-1.13723v-.81134h-1.25623v.81134h-1.13272v-.32408h-1.25624v.32408h-1.13498v-.81134h-1.25622v.81134h-1.13498v-.81134h-1.25758v.81134h-1.13498v-1.29679h-1.09442v1.29679h-1.01327l-4.4989-18.319686-.60806-1.337364.0406-.932142L61.483598 47.0516V34.447843h-.689197l-.648628.769864v12.523987L53.984978 76.15359l.202837.0406-1.175547 4.01164-2.229391 9.11949h2.10769v9.48416l2.148256 2.26951h-3.363919l1.25623 3.76913.202835 9.80824-2.675178 1.33737-.56749 10.53799h-4.336629l-.608057-9.07892.445787-.44579v-.97182h1.70247v-10.13277l-1.377932-2.02835-.28352-1.66191h-.445788l-2.552576-11.83343-.364654-.0406-.243403-2.91813-2.188373-10.78004v-7.133517l-.729758-3.039831h-.243403V76.76165l-2.917681 14.4284-.08114 2.02835-.526922.85102-1.784504 8.10441h-.648624l-.364654 1.70247-1.175546 1.98599v10.13277h1.742585v6.48489l.567489 1.4185v8.552l-1.175546.12171-2.391209 1.25623-2.958699.16226-.769874.4458-.486355 1.01328-6.363185 1.0944-1.945421-.44579-2.675179.81134-1.661901-.0812-1.217015.64862.08114 3.12097-4.782417 9.60585-3.282786.64863-1.094412 4.90411-.891576.3241L0 163.65824l1.337365 1.5402-.648624 5.91741.526923-.48636.648623.0812c-.364654 3.36392 2.028358 7.4576 2.028358 7.4576-.851009-3.52619.324087-11.18618 2.229391-12.76695-1.783152 2.63462-.97271 7.61762-.97271 7.61762s.283519-2.87756.851009-3.32335l.324086.0812c.14959-.28439.373825-.52265.648624-.6892.729758-.2434.932144 2.99927.932144 2.99927.12353-.58782.204872-1.18373.243403-1.78315 0 1.78315-.162269 3.93141.648624 5.55274 0 0-.283521-2.02835.364653-3.28279.648624-1.29679 1.094412-2.02835 1.094412-2.02835l-.08114 1.70246 1.134979 1.17555.486356.85102s1.742585 5.02582 1.256229 6.20091c1.377931-1.78315 2.148257-10.86298 2.148257-10.86298l1.702468 1.70247.811343 6.1608.811344 2.6346.364654.20284 1.094412 3.28279c0-1.13498-.121702-5.51218-.121702-5.51218s1.742586 11.389 3.850274 15.92847c-.891575-1.90485-1.134978-11.5107-1.134978-11.5107s.364653 3.85026.729758 4.37719l1.661901-7.01181 2.148257-2.51291.851009-7.82225 1.5402-.97271.648624-5.14752 3.728574 10.74038 2.188823 1.6619 1.945421 7.5793 2.350642 1.90485.729758-.36465 1.134979-5.14752 3.931408 5.75513 2.229392 1.49963 5.512177-.81134 6.12024 2.71575 1.622683-.24296 1.985991.851 3.36392 8.10623 2.2695-4.74185 1.05385 1.29679 1.17555.20284 6.04-2.18882 2.06712.24295 3.16154-2.59404.32408 1.17554 8.94821-1.49512 9.565286-5.43104 1.25624 1.37793h3.85026s3.44505-8.02329 3.48562-8.02329l1.45907-.1217 4.13424-1.90485 2.35065 2.10769 10.05164-5.51217 1.86429 3.72856.89157-1.37793 1.37793 5.34991 3.72857-8.02328h3.44822l5.87682-8.34918.3241-2.31007.40567-.28352.76986.16226.48636-1.49963 3.40449-2.02835h1.49963l.52693.36465.64862.64863 2.9587.44578 3.2003 3.32336 1.6619-1.25623 1.6619-3.72858 1.09441-.28351-.56748-4.13425s3.24221 1.17554 3.72856 8.10622c.48637 6.93067 1.25623 11.26866 1.25623 11.26866 1.48093-4.35288 2.49981-8.84948 3.03984-13.41556-.20283 2.10769.56749 4.94468 1.49963 5.55274-.76987-3.40448 1.90486-5.7957 1.49963-10.05165.74612 1.92233.9289 4.01751.52692 6.04.82861-1.01751 1.27327-2.29386 1.25624-3.60597.94273.98157 1.52806 2.2516 1.6619 3.60597.85101-1.78315.44579-4.66117 1.5402-6.44567-.19228.89259-.12183 1.82178.20283 2.67518.48386-2.59183 1.75815-4.97034 3.64789-6.80897zM71.536014 84.94851l2.10769-2.31006c4.74185-.36466 12.15887-.12171 16.69834.28351l2.63461 2.9587v4.90367h-5.63433l-.81134.76988-.40567-.76988h-15.60258V89.2847h2.10769zm10.33516 31.93808l-1.17555-4.70173h-8.30861l-.48635-4.21493h-1.17555l-.20283-3.2003 1.21701-3.76914h-3.36391l2.14824-2.31007v-1.70247c.72977-.93214 1.74259-2.14826 2.51292-2.99927 4.41731-.40567 11.59184-.68919 16.33369-.851l3.56676 3.97197v4.29607h-.93214l-1.78316 1.01327v3.16153l-1.37793 1.49964h-.0812v.0812l-.0406.0406v.76986l.0406.0812v9.7271l-1.82373-.20284zm41.948686 1.45907l-1.33736-1.49964-.16227-1.58076-2.512-1.17735-.97271-6.07967.81134-.40567 1.21701-4.90412-1.0944-1.21701h-1.21703v-1.58077l3.89085-4.29607c1.17554-.0812 2.43403-.12169 3.60597-.12169l1.86429 2.06712-2.26951 8.30861h3.28279v8.63494l2.14825 3.32335h.44578v.5675zM29.988472 15.195534l.769875.202836s-1.459066.729306-1.661901.851003c-.405222 1.134529-1.823721 10.983787 3.120967 14.226005.121701-1.378383 1.499636-3.56675 1.459066-4.6206.932145.851463.972715 3.68801.891575 4.093681l.891576.486349s2.755863-1.783605 3.931409-1.175547c-1.133176.526932-2.024752 2.553481-3.200298 3.404484 4.6206 1.175099 13.132041-3.688446 13.618397-6.64715l-.283519-1.702466c3.769139 2.635965 7.011358 10.011076 7.417029 15.887902-3.810158-4.741848-11.105486-2.391203-13.618397 1.5402-1.580767-3.769137-7.781684-4.539461-10.294594-1.823714.526923-2.107689-.770325-2.148258-1.702468-1.5402-.324086.202835-3.769141 2.715746-3.769141 2.715746s1.499633-3.525743 1.661901-4.417316c.243404-1.256686-1.215662-2.148258-2.91813-.162266.164071-3.039382-1.456813-6.646713-7.617613-6.200921.403595-5.57443-5.285957-8.930349-11.655325-8.123916 8.554485-6.762705 15.917195-7.665847 22.959591-6.99411z" opacity=".5"/></svg>