<svg xmlns="http://www.w3.org/2000/svg" height="153.39851" width="195.15778"><path d="M102.41962 13.824676L98.654836 135.04144c.32637 4.04899 3.560594 7.68754 7.197884 7.97153l19.89413-.0807c4.43825-.32693 8.56374-4.19701 8.7755-10.24459l-.14301-21.81321 10.68236 24.41125c2.57842 5.49664 9.7767 7.77051 16.25563 7.19942l20.65678-5.17111c6.53494-2.56085 8.25801-7.60865 5.8333-11.92303L156.826 73.074785l37.77505-53.922315c1.51449-3.398964-.21485-8.440664-3.32835-9.5732817L159.79088.10678127c-4.50657-.608814-8.32266 1.44204103-10.31188 4.71594003L135.84892 41.804368l.57386-28.527559c-.50361-6.2156837-6.829-10.5716437-12.01229-10.0256907l-13.36362 1.279954c-3.97501.609835-8.39782 4.179388-8.62725 9.2935937zM16.851728 3.1966903c50.508203-8.98719 72.072728 21.0450287 79.318588 54.1432147 7.299014 33.34104-3.30422 79.757925-48.233914 94.523175-11.936111 3.32301-20.210313 1.45495-22.625473-7.59654L.50808 23.844423C-.317848 18.422805-2.439531 6.3284123 16.851728 3.1966903zM46.628349 99.422605c14.646269.51845 21.55261-16.53329 19.452059-29.04284-2.258054-13.44753-11.237241-24.903692-28.102681-18.75989z" opacity=".5"/></svg>