<?xml version="1.0" encoding="UTF-8" standalone="no"?>
<!-- Created with Inkscape (http://www.inkscape.org/) by Toomai Glittershine for SmashWiki -->

<svg
   xmlns:dc="http://purl.org/dc/elements/1.1/"
   xmlns:cc="http://creativecommons.org/ns#"
   xmlns:rdf="http://www.w3.org/1999/02/22-rdf-syntax-ns#"
   xmlns:svg="http://www.w3.org/2000/svg"
   xmlns="http://www.w3.org/2000/svg"
   xmlns:sodipodi="http://sodipodi.sourceforge.net/DTD/sodipodi-0.dtd"
   xmlns:inkscape="http://www.inkscape.org/namespaces/inkscape"
   id="svg2"
   version="1.1"
   height="171.73892"
   width="209.47571"
   viewBox="0 0 209.47571 171.73892"
   sodipodi:docname="DragonQuestSymbol.svg"
   inkscape:version="0.92.3 (2405546, 2018-03-11)">
  <defs
     id="defs7" />
  <sodipodi:namedview
     pagecolor="#ffffff"
     bordercolor="#666666"
     borderopacity="1"
     objecttolerance="10"
     gridtolerance="10"
     guidetolerance="10"
     inkscape:pageopacity="0"
     inkscape:pageshadow="2"
     inkscape:window-width="1920"
     inkscape:window-height="1017"
     id="namedview5"
     showgrid="false"
     inkscape:zoom="0.921875"
     inkscape:cx="104.73772"
     inkscape:cy="92.87463"
     inkscape:window-x="-8"
     inkscape:window-y="-8"
     inkscape:window-maximized="1"
     inkscape:current-layer="svg2" />
  <metadata
     id="metadata7">
    <rdf:RDF>
      <cc:Work
         rdf:about="">
        <dc:format>image/svg+xml</dc:format>
        <dc:type
           rdf:resource="http://purl.org/dc/dcmitype/StillImage" />
        <dc:title />
      </cc:Work>
    </rdf:RDF>
  </metadata>
  <path
     id="mainsymbolpath"
     style="opacity:0.5;fill:#000000;fill-opacity:1;stroke:none"
     d="m 87.302722,79.20454 c 0,9.62908 7.80592,17.435 17.435128,17.435 9.62921,0 17.43513,-7.80592 17.43513,-17.435 0,-9.62908 -7.80592,-17.435 -17.43513,-17.435 -9.629208,0 -17.435128,7.80592 -17.435128,17.435 z m 11.5242,51.49797 v 35.48848 c 0,0 0.17194,5.54794 -5.75808,5.54794 -5.93003,0 -5.75809,-5.54794 -5.75809,-5.54794 0,0 0.0841,-36.65385 0,-39.63797 -10e-4,-1.33008 -0.73587,-2.55108 -1.91045,-3.17517 -2.20951,-1.22219 -4.33255,-2.59457 -6.35415,-4.10746 -1.08565,-0.89056 -2.08945,-1.87646 -2.999408,-2.94591 l -9.529314,6.36943 c 1.005807,2.34512 1.740362,4.79748 2.189373,7.30938 0.416479,2.33179 0.623585,4.69614 0.618985,7.06483 7.86e-4,2.10477 -0.152459,4.20678 -0.458507,6.28919 -0.236896,1.57039 -0.477613,2.55236 -0.523463,2.73959 -0.926082,3.69325 -4.670958,5.93632 -8.364111,5.00987 -3.693154,-0.92646 -5.935853,-4.67156 -5.009023,-8.36462 0,0 0.02293,-0.0344 0.02293,-0.10698 0.370228,-1.83367 0.553288,-3.70021 0.546388,-5.57087 0.01166,-2.08657 -0.239954,-4.16627 -0.748895,-6.18985 -0.271206,-1.05673 -0.635619,-2.08731 -1.088955,-3.07964 -0.461638,-1.00742 -1.029044,-1.96291 -1.692657,-2.85039 -1.351347,-1.81523 -3.024646,-3.36679 -4.936597,-4.57743 -1.27253,-0.80125 -2.624717,-1.46838 -4.034866,-1.99069 -1.670203,-0.62009 -3.402037,-1.05946 -5.165851,-1.31057 -0.653373,-0.0916 -1.169194,-0.13755 -1.490149,-0.15665 h -0.362985 c -3.810922,-0.0139 -6.889057,-3.11445 -6.875337,-6.92537 0.01371,-3.81092 3.114083,-6.88921 6.925007,-6.87571 1.022237,0.014 2.042825,0.0867 3.056716,0.21779 3.750786,0.46266 7.412575,1.47725 10.866627,3.01087 2.374974,1.05615 4.622097,2.37904 6.69803,3.94316 0.799841,0.60115 1.581851,1.25453 2.34603,1.96012 l 9.785313,-6.53755 c -2.628776,-4.63475 -4.558328,-8.81863 -5.100895,-9.9649 -0.649594,-1.53437 -2.154682,-2.53043 -3.820896,-2.52943 0,0 -20.269851,-0.0153 -28.324298,-0.17576 -8.054448,-0.16048 -15.123105,-11.32896 -16.078329,-13.08657 -0.955224,-1.75761 -1.379343,-3.49994 -0.477612,-4.84107 0.901732,-1.34114 3.343284,-0.95905 3.343284,-0.95905 0,0 36.038686,0.90935 39.584477,0.95905 3.545791,0.0497 3.075821,-3.77887 2.017433,-5.80012 -1.058388,-2.02125 -4.084537,-2.12824 -4.084537,-2.12824 0,0 -27.533373,-3.33946 -36.581254,-4.82579 C 8.0577316,60.5203 2.4295516,48.385137 1.9442986,47.066927 c -0.485254,-1.31821 -1.34877598,-5.20788 -0.485254,-6.20896 0.863522,-1.00107 3.190448,-0.49289 3.190448,-0.49289 0,0 47.0810744,7.04191 49.4653134,7.29026 2.384239,0.24836 2.846567,-1.40226 2.632597,-3.7865 -0.21397,-2.38424 -3.270686,-3.43881 -3.270686,-3.43881 0,0 -35.599284,-13.99976 -40.975284,-16.23116 -5.3760004,-2.23141 -7.4774924,-7.74496 -7.4774924,-7.74496 L 0.43886562,4.4066267 c 0,0 -1.138627,-2.65934 0.252179,-3.82089998 1.39080598,-1.16155 4.11128398,-0.23689 4.11128398,-0.23689 L 74.804955,26.751227 c 3.996707,1.49779 3.950807,3.47701 3.950807,4.66531 v 9.78531 c 0.0508,2.838161 0.82688,5.616135 2.25433,8.06973 1.00759,1.684043 2.27083,3.201223 3.74448,4.497203 0,0 0.23689,-11.795113 12.50579,-17.285733 h 0.12991 l 1.58949,-23.01326 c 0,0 0.48143,-12.84967028 5.758088,-12.84967028 5.27666,0 5.75809,12.84967028 5.75809,12.84967028 l 1.58949,23.01326 h 0.12991 c 12.2689,5.49062 12.50579,17.285733 12.50579,17.285733 1.47365,-1.29598 2.73689,-2.81316 3.74448,-4.497203 1.42745,-2.453595 2.20349,-5.231569 2.25433,-8.06973 v -9.78531 c 0,-1.1883 -0.0459,-3.16752 3.95081,-4.66531 L 204.67337,0.34883672 c 0,0 2.72048,-0.92466 4.11129,0.23689 1.3908,1.16155998 0.25218,3.82089998 0.25218,3.82089998 l -4.58508,12.0472803 c 0,0 -2.10149,5.51355 -7.47749,7.74496 -5.376,2.2314 -40.97528,16.23116 -40.97528,16.23116 0,0 -3.05672,1.05457 -3.27069,3.43881 -0.21397,2.38424 0.24836,4.03486 2.6326,3.7865 2.38424,-0.24835 49.46531,-7.29026 49.46531,-7.29026 0,0 2.32693,-0.50818 3.19045,0.49289 0.86352,1.00108 0,4.89075 -0.48526,6.20896 -0.48525,1.31821 -6.11343,13.453373 -17.3545,15.283583 -9.04788,1.48633 -36.58126,4.82579 -36.58126,4.82579 0,0 -3.02615,0.10699 -4.08453,2.12824 -1.05839,2.02125 -1.52836,5.84979 2.01743,5.80012 3.54579,-0.0497 39.58448,-0.95905 39.58448,-0.95905 0,0 2.44155,-0.38209 3.34328,0.95905 0.90173,1.34113 0.47761,3.08346 -0.47761,4.84107 -0.95523,1.75761 -8.02388,12.92609 -16.07833,13.08657 -8.05445,0.16048 -28.3243,0.17576 -28.3243,0.17576 -1.66621,-0.001 -3.1713,0.99506 -3.8209,2.52943 -0.54256,1.14627 -2.47211,5.33015 -5.10089,9.9649 l 9.78531,6.53755 c 0.76418,-0.70559 1.54619,-1.35897 2.34603,-1.96012 2.07594,-1.56412 4.32306,-2.88701 6.69803,-3.94316 3.45405,-1.53362 7.11584,-2.54821 10.86663,-3.01087 1.01389,-0.13111 2.03448,-0.20382 3.05672,-0.21779 3.81092,-0.0135 6.91129,3.06479 6.925,6.87571 0.0137,3.81092 -3.06441,6.91145 -6.87533,6.92537 h -0.36299 c -0.32095,0.0191 -0.83678,0.065 -1.49015,0.15665 -1.76381,0.25111 -3.49565,0.69048 -5.16585,1.31057 -1.41015,0.52231 -2.76234,1.18944 -4.03487,1.99069 -1.91195,1.21064 -3.58525,2.7622 -4.93659,4.57743 -0.66362,0.88748 -1.23102,1.84297 -1.69266,2.85039 -0.45334,0.99233 -0.81775,2.02291 -1.08895,3.07964 -0.50895,2.02358 -0.76056,4.10328 -0.7489,6.18985 -0.007,1.87066 0.17616,3.7372 0.54639,5.57087 0,0.0726 0.0229,0.10698 0.0229,0.10698 0.92683,3.69306 -1.31587,7.43816 -5.00902,8.36462 -3.69316,0.92645 -7.43803,-1.31662 -8.36412,-5.00987 -0.0459,-0.18723 -0.28656,-1.1692 -0.52346,-2.73959 -0.30605,-2.08241 -0.45929,-4.18442 -0.45851,-6.28919 -0.005,-2.36869 0.20251,-4.73304 0.61899,-7.06483 0.44901,-2.5119 1.18357,-4.96426 2.18937,-7.30938 l -9.52931,-6.36943 c -0.90996,1.06945 -1.91376,2.05535 -2.99941,2.94591 -2.0216,1.51289 -4.14464,2.88527 -6.35415,4.10746 -1.17458,0.62409 -1.90923,1.84509 -1.91045,3.17517 -0.0841,2.98412 0,39.63797 0,39.63797 0,0 0.17194,5.54794 -5.75809,5.54794 -5.93002,0 -5.75808,-5.54794 -5.75808,-5.54794 v -35.48848 c 0,0 0.35929,-4.08072 -5.91092,-4.08072 -6.270198,0 -5.910908,4.08072 -5.910908,4.08072 z"
     inkscape:connector-curvature="0" />
</svg>
