<svg xmlns="http://www.w3.org/2000/svg" height="180" width="180"><path d="M144.93368 30.598444c-1.39195-2.127608-1.49363-2.234767-3.73029-3.931204-2.79898-2.122933-3.25598-2.19573-4.49148-.715477-.26685.319728-.6189.58057-.78232.579647-.42603-.0024-2.10357-.998161-2.40386-1.426887-.13968-.199427-.87705-.633534-1.63859-.96468-1.48209-.644477-3.1124-2.039772-3.51281-3.006466-.1797-.433833-.16327-.566089.1075-.86528.17579-.194245.38108-.353174.45618-.353174s1.24989.51595 2.61061 1.146557l2.47403 1.146558 2.23586-.09226 2.23587-.09225 2.41474 1.136862c1.3281.625276 2.67402 1.321806 2.99094 1.547846.82023.585008 3.44835 4.034267 3.44835 4.525733 0 .223224-.13115.87329-.29145 1.444592-.23494.837317-.24804 1.091048-.0675 1.308538.1787.215323.17896.323986.002.538111-.12246.147567-.31343.266538-.42434.264383-.11094-.0022-.84563-.988174-1.63265-2.191149zM89.997258 4.398986c-18.49766 0-35.619414 5.861735-49.616516 15.837141-.170772.405133-.261416.902167-.34269 1.542102-.06406.504473-.40992.674587-1.44419 1.174935-1.520095.735375-1.705507.928912-1.835836 1.958224-.08368.660892-.221838.912488-.78329 1.34628-.931181.719455-2.417046 2.251158-2.717036 2.814948-.286252.537974-.162926 1.361172.244778 1.517624.272983.104752.706031-.153585 2.692559-1.713447l1.00359-.807768.611945.34269c.33895.182538.596987.407939.56299.514034-.09285.289743-3.099736 2.67274-4.479439 3.549282-.665703.422927-1.590491 1.002189-2.056136 1.297324-.623918.395451-1.135488.999697-1.958225 2.251957-1.192576 1.81518-1.288324 2.15465-.856723 3.37794.422459 1.19737.380315 1.35573-.685378 1.86031-.531398.25161-1.092686.63445-1.248369.85672-.354508.50613-.292377.62624 1.811358 3.05973 2.077714 2.40339 2.352466 2.53457 5.164817 2.37435l2.203003-.12239 3.182115-1.34628c1.747353-.74031 3.449737-1.55725 3.79406-1.81136.344323-.25411 1.342077-1.15046 2.227481-2.00718 1.736134-1.67988 4.275653-3.20659 5.311684-3.20659.618703 0 6.774122 1.57185 7.000653 1.78688.207947.19739-3.549868 2.28745-4.35705 2.4233l-.660901.12239-.122389 1.68897c-.110637 1.47571-.103519 1.72794.171345 2.03166.390647.43166.336613.46518 3.475848-2.08062 1.267619-1.02798 2.43013-1.86031 2.57017-1.86031.698945 0 1.309417.40333 1.517624.97911.119916.33163.386478.79703.587468 1.05255.346584.44061.456159.46508 2.03166.46508h1.66449l1.46867-2.17853c.81581-1.20513 1.70267-2.43703 1.95822-2.71703.48792-.53462 3.02508-1.90927 3.52481-1.90927.16019 0 .60964.27545 1.00359.58746.61394.48626.77773.5296 1.07702.34269.43505-.27169.97047-.10636 1.22389.36717.16549.30921.094.44599-.56299 1.05255-.49841.46012-.87189.6636-1.05255.58746-1.18222-.49823-1.19562-.48423-1.86031-.0734-.35792.22121-.6609.49081-.6609.61195 0 .12113.24338.45157.53851.73433.29514.28276.53851.60066.53851.70986 0 .10919-.31634.52142-.70985.90567-.94342.92123-.97111 1.57971-.0979 2.27644.67084.53527 1.00901.60644 1.83583.31821.46573-.16235.6443-.14854 1.22389.24478.3703.2513.74076.46508.83225.46508.0915 0 .12934.16515.0979.36717-.0454.2917-.58378.58178-2.6436 1.39523-2.15672.85171-2.59627 1.0909-2.64361 1.41971-.1033.71746.63067.86801 2.203.4406 1.78301-.48467 2.20483-.35564 2.71704.85673.45497 1.07688.72917 1.1164 2.05614.31821 1.50693-.90645 1.62177-1.03489 1.51762-1.81136-.0792-.59059-.0255-.71342.34269-.8812.37252-.16973.53886-.0948 1.44419.58747.56896.42878 1.41209 1.17812 1.86031 1.66449.97886 1.06217 1.21362 1.05236 2.66809-.14687 1.28583-1.06019 1.89732-1.04657 2.49673.0734.21672.40494.18354.45571-1.83583 1.54211-.87235.46931-1.95382 1.15695-2.39883 1.5421-1.4436 1.24942-1.5161 1.27447-2.79047 1.05254-1.82357-.31756-2.19737-.24507-3.76958.61195l-1.44419.78329-1.59106-.34269-1.59106-.36717-.90568.53851-.93015.51404-.049 1.73792-.0489 1.7624.68538.807769c1.24607 1.51277 1.18816 1.38017.83224 1.9827-.19845.33594-.56335.61476-.95463.73434-1.50676.46046-1.63768.56501-2.08062 1.56658-.23797.53808-.4406 1.07647-.4406 1.19941 0 .33369.83548 1.78039 1.24837 2.15405.27967.2531.35534.44679.26926.90568-.13131.69988.24228 3.64719.46508 3.64719.0848 0 .51084-.23259.95463-.51403.90972-.57693.48883-.60701 5.11586.26925 1.32811.25152 2.55334.52644 2.71704.61195.16783.0877.55641.92468.8812 1.90927.31676.96026.65498 1.85182.75881 1.9827.23265.29325.38077.27102 3.15764-.70986l2.22748-.80776 1.78688.2203c.98378.11974 2.422.23544 3.18211.24477h1.37076l.85673-1.15045c.46962-.63423.97313-1.19497 1.1015-1.24837.22831-.095 2.2817.68129 2.59464.97911.091.0866.0468.4584-.12238.8812-.32004.79986-.24816 1.15069.46507 1.93375.50442.5538.74201.5198 1.19942-.2203.38535-.62352.40333-.66892.0979-1.46867-.36393-.95294-.3872-.94426 1.24837-1.49315l1.077022-.34269 2.12957.41613c1.16.23567 2.18399.49502 2.27643.58746.10487.10486.0643.41946-.0979.80777-.30373.72694-.23618.87512.58747 1.29733.4888.25056 1.12313.32243 3.15764.34268l2.54569.0244.95463.68538c.52804.3736 1.34217.96407 1.81136 1.29733 1.04242.74041 4.62118 1.90827 7.90633 2.59464 2.79432.58382 3.2703.60569 3.69615.2203.17991-.16281.34269-.44606.34269-.63642 0-.46784-2.18977-4.06332-2.47226-4.06332-.12346 0-.54651-.29198-.95463-.6609-.72917-.65907-.77511-.67412-2.39883-.73433-1.53213-.0568-1.69136-.1095-2.30091-.61195-.36161-.29805-.63478-.63552-.58747-.75881.0473-.1233-.0316-.44042-.17134-.70985-.35515-.68454-.3125-.99847.19582-1.61554.37028-.44947.48851-.494.63642-.26925.12739.19357.49408.26925 1.34628.26925 1.17852 0 1.17534-.002 1.9827-.85672.64254-.68007.77568-.9042.61195-1.1015-.39961-.48149-1.92252-.84129-6.43766-1.46867l-4.57735-.63643-4.92004-1.61553-4.92004-1.64001-3.035252-2.57017c-1.67243-1.42352-3.05224-2.704159-3.0842-2.839429-.14831-.62771.37742-1.48898 1.46866-2.37435 1.23548-1.00239 1.51396-1.05933 3.62272-.75881.810092.11545 1.082012.268 2.007182 1.15046.58619.55913 1.10872 1.02807 1.17494 1.02807.0662 0 .35307-.25968.63642-.56299l.51403-.53851.53851.36716c.65346.46531.68464.76919.12239 1.9827-.59604 1.286519-.4537 1.576479 1.07703 2.178529 1.49979.58988 1.77135.59696 3.76958.12239 1.86721-.44347 1.82615-.43386 3.94093-1.93375 1.24802-.885159 1.66449-1.263309 1.66449-1.566579 0-.48582-.31334-.64983-1.68897-.95463-1.57511-.349-1.9996-.75543-3.10868-2.83943l-.97912-1.83583 1.05255-1.07703c.57895-.58746 1.30698-1.22737 1.61554-1.41971.72493-.45191.80578-.83741.39164-1.7624-.18513-.4135-.34269-.95933-.34269-1.19941 0-.44997.4626-1.49315.6609-1.49315.0615 0 .58777.50093 1.15046 1.1015.90787.969 1.06399 1.05848 1.39523.8812.21635-.11579.42291-.45249.48956-.80777.13878-.73972-.39717-4.06472-.78329-4.89556-.26661-.57368-.26776-.61344.17134-1.05254.25052-.25052.54533-.399.63643-.34269.0911.0563.38286.67698.6609 1.39523.64324 1.66172 2.37287 4.58515 2.8639 4.84661.20658.11.78096.49366 1.27285.85672.49189.36307.9994.70643 1.15045.75881.15105.0524 1.05887-.00016 2.00718-.0979 1.64787-.16983 1.78338-.15277 3.2066.31821 1.28083.42387 1.68964.65925 2.8639 1.71345 1.49886 1.34561 1.62676 1.3803 3.23107.93016.99758-.27991 1.06373-.2737 1.41971.049.31359.28422.7202.34208 2.57017.39165 2.44404.0655 2.16713.14081 6.78036-1.83584 1.71211-.7336 2.10011-.96735 2.83942-1.81136.4673-.53345.83225-1.08088.83225-1.22389 0-.3456-1.03986-1.51762-1.34628-1.51762-.13279 0-1.24831.68199-2.47226 1.51762l-2.22748 1.51763-2.98629.049-3.01077.0734-1.98271-.85673c-1.66146-.73179-2.1039-1.02444-2.81494-1.81135-.46621-.51596-.85563-1.09753-.85673-1.27285-.003-.52755-.50971-1.54937-.75881-1.5421-.12798.004-.45504.33096-.73433.73433l-.51404.73434-1.41971-1.41972c-.88617-.87647-1.60554-1.76539-1.88479-2.34987-.44671-.93496-.4472-.92634-.12239-1.59105.30039-.61473.55042-.77832 2.98629-1.86032 2.62145-1.16441 2.66003-1.19095 3.18212-2.10509.29036-.50837.59997-.93015.70985-.93015.34014 0 3.74511 2.04738 3.74511 2.25195 0 .10621-.82746.55469-1.83584 1.00359-2.45903 1.0947-2.47777 1.25954-.0979 2.766 1.42453.90172 3.65498 1.86031 4.33257 1.86031.0627 0 .51947-.37941 1.00359-.83225l.8812-.80776 2.25196.53851c2.67842.64994 2.53371.70428 4.60183-1.24837l1.37076-1.3218v-1.61554c.005-2.69652.46071-2.70765 1.46867-.0734.5455 1.4256.57853 1.66651.58746 3.84302v2.32539l1.98271.56299c1.08216.32058 2.13231.58607 2.34987.58746.43084.003.38999-.1237 1.19941 3.13316.35429 1.42556.48751 2.64701.6609 5.99707.29998 5.79604-.11569 5.2108 4.69974 6.780349l3.84301 1.24837 2.44778-.36717 2.44779-.39165.97911.48956c.64934.31847 1.06691.48849 1.24837.34269-1.92035-5.929559-4.46308-11.581189-7.56365-16.865209-.14086.0656-.32624.16262-.36716.26926-.0566.14756-.18008.26925-.29374.26925-.27715 0-5.85122-6.29348-6.24184-7.04961-.16941-.32793-.35312-.92785-.41612-1.3218-.10192-.63737-.0731-.75562.34269-1.02807.21731-.14238.49967-.38928.58747-.53851-9.24405-11.831955-21.53476-21.159585-35.68865-26.827634l-.70985.293733c-2.05222.848986-1.90974.899559-3.62272-.930156l-1.3218-1.419713c-8.23922-2.639146-17.026922-4.063316-26.142302-4.063316zm36.031332 19.166123c.0725-.01014.13811.0062.19583.02448.49877.158306 2.34987 2.198015 2.34987 2.594647 0 .18557-.19747.4588-.41613.611945-.21865.153145-.42995.269256-.48955.269256-.19834 0-3.2066-2.158568-3.2066-2.300914 0-.07697.31456-.392191.70986-.709856.36276-.291523.63901-.459139.85672-.489556zm-7.46573.832245c.13944-.01661.29414 0 .48956 0 .85676 0 .97931.04536 2.57017 1.34628 2.53329 2.071585 3.37794 2.95025 3.37794 3.475848.00019.265188.5111 1.228097 1.24836 2.325392 2.07188 3.083655 2.46432 4.072308 1.95823 5.017948-.10184.19029-.30541.34269-.4406.34269-.43124 0-2.85014-2.12911-3.50033-3.084202-.56412-.828649-.87152-1.066462-3.0842-2.22748-1.35292-.70988-2.79618-1.557961-3.2066-1.909269-.82675-.707674-.84531-.726578-1.78688-.465079-.57339.159255-.78096.116451-1.5421-.269255-1.02675-.520292-2.39549-1.976049-2.32539-2.496737.0274-.203408.25719-.419538.51404-.489556 2.29355-.625223 2.63378-.669836 3.42689-.4406.39503.114176.5844.04396 1.17493-.489557.46214-.417494.70768-.586576 1.12598-.636423zm18.43179 4.822128c.64524 0 1.35826.364787 1.86031.930157.70576.79476 2.45032 3.72728 3.23107 5.458553.68196 1.51222.77652 1.89962.75882 2.91286-.0111.63945-.0599 1.39383-.12239 1.68897-.1587.74852-.89843.78281-2.05614.0979-1.5299-.90509-1.56975-.94389-2.25196-4.43049-.0833-.4255-.33982-1.0097-.58746-1.272842-.42789-.454675-2.1051-3.08284-2.1051-3.304504 0-.05763.16334-.556732.36717-1.101501.3355-.896692.42348-.979113.90568-.979113zm-35.76208 4.797651c.63549.02923 1.41716.55932 2.57017 1.640009.92503.86701 1.00346 1.3093.26926 1.68897-.29026.1501-.64613.26926-.78329.26926-.32502 0-3.524802-2.28873-3.524802-2.52122 0-.098.19912-.37047.440602-.611941.32035-.320348.64677-.482619 1.02806-.465078zm-40.63316.02448c.367124 0 .881202.818459.881202 1.395229 0 .5955-1.178686 1.96189-1.909269 2.20301-.368321.12155-.901917.35709-1.199413.53851-.297493.18142-.635956.32244-.734334.31821-.451275-.0193-1.879963-.90719-2.227481-1.39524-.680885-.95621-.502323-1.10457 2.056136-1.7624 1.608084-.41347 2.37883-.7164 2.545692-.954629.132241-.188802.398818-.34269.587467-.34269zm27.390668.02448c.0739-.0049.15852.01211.24478.02448.43395.06221 1.34001 1.623129 1.34628 2.325399.002.29254-.2286.72064-.56299 1.1015-.69923.79637-1.22353.81992-1.66449.0734-.27452-.46477-.31681-.7773-.2203-1.83584.10787-1.183237.33933-1.654468.85672-1.688967zm-3.94093 3.059729c.12171-.0268.22584.0224.39165.0979.64683.29472.78785.9614.34269 1.66449l-.36717.56299.39164 1.05255c.35546.97599.34653 1.05391.0734 1.61554-.51817 1.06564-1.59766 2.15374-2.59464 2.59465-1.13262.5009-1.26036.50557-1.83584.12238-.62351-.41516-.90568-.77103-.90568-1.22388 0-.71714-.3786-.83249-1.51762-.44061-1.29632.446-1.25784.45562-1.78688-.0734-.58066-.58065-.54953-.80327.14686-1.1015.31974-.13693 1.09231-.67719 1.71345-1.22389.62114-.54671 1.15868-1.00359 1.19941-1.00359.0407 0 .49622.20423 1.02807.46507.53186.26085 1.10319.44736 1.24837.39165.14518-.0557.33303-.45399.4406-.8812.12604-.50054.5123-1.1319 1.07702-1.7624.51684-.57705.75179-.81213.95464-.85673zm-19.23955.56299c.0985-.0153.1639-.0122.19582 0 .29193.11203.31528 1.04447.049 1.5421-.1013.18927-.442.49915-.75881.6609-.31682.16176-.9059.59877-1.32181.97912-.4269.39039-.94547.68944-1.17493.68537-.548742-.01-1.335441-.4738-1.56658-.90568-.25733-.48083.200328-1.32422.905679-1.68897.84191-.43537 2.981851-1.16574 3.671671-1.27285zm36.863572.7588c.30868.003.78944.0724 1.73793.24479 1.07424.19526 2.02684.36717 2.10509.36717.33971 0 1.41971 1.13004 1.41971 1.49315 0 .51741-1.03744 1.49148-1.81135 1.71344-.85955.24651-.837.27147-2.3254-.63642-2.37377-1.44797-2.823052-2.20178-1.78688-2.96182.21716-.15929.35223-.22377.6609-.2203zm61.17005 10.8192c.29563-.008.74495.12854 1.39523.41613.54389.24053 1.00359.51904 1.00359.61194 0 .0929-.14504.34914-.31821.56299-.1964.24253-.6042.42614-1.07702.48956l-.75882.0979-.36716-.83225c-.39444-.89167-.37034-1.33344.12239-1.34627zm2.05613 4.67527c.15082-.029.36091.13853.46508.36716.10418.22862.84124 1.32165 1.64001 2.44777.79878 1.12615 1.44419 2.20676 1.44419 2.39883 0 .19208-.1332.8231-.29373 1.39523-.16054.57213-.37955 1.02988-.48956 1.02807-.11-.002-.71749-.51274-1.37075-1.15045-1.23059-1.20127-1.72938-1.40288-2.52122-.97912-.30313.16223-.44969.11968-.8812-.29373-.59354-.56864-.6211-.8106-.24478-2.10509.28514-.98087 1.75665-3.01329 2.25196-3.10868zm10.18277 32.898159c-.30676.0469-.33704.60887-.19582 2.76599.0828 1.26426.10346 2.82595.0489 3.47585-.0968 1.15489-.10576 1.21075-1.27284 2.52121-1.16604 1.3093-2.88839 4.23601-2.88839 4.920039 0 .17592.66088.91419 1.46867 1.66449l1.46867 1.37076-.2203.73434c-.11914.39767-.19582 1.06802-.19582 1.49314 0 .74961-1.09982 4.63246-1.81136 6.43766-.21434.54376-.34187 1.32799-.34269 2.00718-.002 1.0392-.0818 1.2282-1.12598 3.01078-1.12058 1.9131-4.97233 7.16632-6.19288 8.44484-.37457.39236-1.95025 1.41248-3.69615 2.39882-1.67243.94483-3.65619 2.11182-4.43048 2.59465-.77429.48285-1.69468.92442-2.03166.97911-.54072.0877-.70234.26718-1.39524 1.46867-.43186.74883-.85005 1.46298-.93015 1.59106-.1183.18917-.29439.17655-.93016-.049-.96133-.34095-1.61124-.36444-1.9827-.0489-.15531.1319-1.37986.72059-2.74152 1.29732l-2.47226 1.05255-.70985 1.37075c-.37937.75451-.81829 1.43144-.97911 1.49315-.16081.0617-.60695.0979-1.00359.0979-.57484 0-1.57254.45187-4.87109 2.17853-2.27609 1.19145-4.6235 2.46514-5.21377 2.83942-.80547.51074-2.5461 1.1555-6.97618 2.59465-5.45464 1.77199-5.9402 1.97537-6.56005 2.59465-.7606.7599-.82981.98808-.31821 1.15045.19675.0624.36717.23106.36717.36717 0 .27846-2.12181 1.51763-2.59465 1.51763-.16824 0-.5183.23387-.78329.51403-.48711.515-1.74069.93919-3.42689 1.17493-1.41925.19842-1.78688.31016-1.78688.48956 0 .0965.57117.83436 1.27284 1.64001 1.77587 2.03906 1.9125 2.27649 1.81136 3.32899-.0832.86601-.0706.88181.83225 1.71344.50377.46405.90567.95213.90567 1.07703 0 .12489-.48663.38238-1.1015.58746-.61486.20508-1.40615.55648-1.73792.75882l-.58747.36716.12239 1.07703c.10039.88724.0562 1.14128-.19582 1.41971-.44166.48803-.80526.41521-1.46867-.26926-.58285-.60134-.59823-.60264-.31821-1.27284.37203-.89039.36988-1.26222-.0734-1.88479-.48889-.68661-.82641-.65275-1.51762.14686l-.56299.6609-1.68897-1.00359c-.92452-.54771-2.05387-1.13157-2.49673-1.29732-.44287-.16575-2.243722-1.41001-4.014372-2.76599-3.12794-2.39541-3.29486-2.47648-5.36064-3.2066-1.98936-.70311-2.15015-.74873-2.54569-.48955-.50465.33066-.49276.43035-.0979 1.5421.29614.8338.29043.87167-.049 1.24837-.61037.67748-.99898.71246-3.15764.24478-1.11981-.24262-2.21269-.4196-2.42331-.36717-.21061.0524-1.84105.97151-3.64719 2.03166-2.87084 1.6851-3.34317 2.02565-3.62271 2.61912-.54547 1.15807-.55778 1.62771-.0979 2.05614.53887.50203.74982.46676 1.78688-.17135.47965-.29512.96653-.51403 1.07702-.51403.1105 0 .56564.33064 1.00359.73433.43796.4037 1.33224.95344 1.9827 1.24837 1.04401.47338 1.3159.52406 2.34987.4406.6442-.052 1.36959-.14007 1.61554-.19582.37875-.0859.71783.16043 2.22748 1.59106 2.22491 2.10844 2.06628 2.32273-.80777 1.00359l-2.00718-.93016-.73434.56299c-1.3488 1.02047-1.39203 1.01529-2.96181.36717l-1.41971-.56299-2.76599.34269c-2.12234.26978-2.93716.45614-3.4269.75881-.60251.37238-.66089.37057-1.07702.0979-.24336-.15945-.4406-.33033-.4406-.39164 0-.0613.36507-.50584.80777-.97912.4427-.47327.80776-.92037.80776-1.00359 0-.0832-.25934-.49279-.56299-.90568-.36276-.49329-.69182-.75881-.95463-.75881-.21998 0-1.11168.34745-2.00718.78329l-1.64005.80777-.68538-.34269c-.37249-.1899-.84678-.34269-1.07703-.34269-.54451 0-1.83406.71532-1.83583 1.02807-.002.28932.82311 1.38938 2.00718 2.66808.47281.51061.85672 1.05177.85672 1.19941 0 .18694-.0726.61457.12239 1.1015 6.78529 1.7306 13.89802 2.64361 21.22226 2.64361 47.273312 0 85.598892-38.32558 85.598892-85.598889 0-.89465-.0217-1.78005-.0489-2.66809-.0811-.30162-.17448-.46187-.31821-.48955-.0561-.0108-.10305-.007-.14687 0zm-51.67265 76.493149c.5159.011.69431.19412.68538.53851-.011.42395-2.96194 2.4415-4.03884 2.76599-.48646.14658-2.04936.70877-3.47585 1.24837-2.96091 1.12003-3.92396 1.30246-4.77317.93015-.90337-.39604-.84036-.51296 1.00359-1.90926 1.07408-.81333 1.77501-1.16617 3.67167-1.83584 1.28705-.45444 3.17637-1.02846 4.21018-1.27285 1.33753-.31612 2.20113-.47604 2.71704-.46507zm-29.985322 1.68897c.1389.01.31276.0727.58747.19583.36666.16433 1.49171.37862 2.49674.46508 1.41379.12162 1.93.23954 2.34987.53851.51775.36867.70451.7868.41612.95463-.0738.0429-1.16886.12815-2.44778.19582l-2.32539.12239-.80777-.90568c-.96218-1.09-.99251-1.12419-.63642-1.41971.1147-.0952.22826-.15682.36716-.14687zm.75882 3.35346c.32408-.0412.78148.0281 1.46866.19583.73784.18008 1.88878.33877 2.5457.34269 1.07281.007 1.2336.0418 1.56658.46507.511592.65038.469522 1.10088-.12239 1.34628-1.4409.59745-4.76267.37753-5.53199-.36716-.47124-.45616-.69677-1.10522-.53851-1.51763.10288-.2681.28786-.4239.61195-.46508zM59.783211 49.513802c2.094821-1.62816 2.261987-1.79939 2.11941-2.17094-.113891-.29679-1.77384-.32658-2.501557-.0449-.276945.10721-1.026728.24807-1.666186.31302l-1.16265.11811-.05391 1.03724c-.04217.8115.02913 1.17158.327609 1.65454.209832.33952.515809.61688.679947.61637.164138-.00054 1.179936-.68607 2.25733-1.52345zm57.700369 9.64811c.44061-1.02787.43845-1.12154-.0375-1.62819-.54286-.57785-.94918-.51701-1.39809.20935-.4304.69637-.36985 1.18192.22892 1.83612.54198.59216.81439.49796 1.2067-.41728zm25.56979.83211c.78362-.31763.82492-.31688 1.7354.0315 1.16344.44522 1.80107.32654 1.93219-.35966.0514-.26904.22269-1.04223.38067-1.71821.24086-1.03078.24787-1.25395.0434-1.38349-.34481-.21846-1.2839-.19648-4.39526.10284-1.49628.14395-3.22685.21632-3.8457.16084-1.01363-.0909-1.14775-.0633-1.35286.27847-.41505.69157.50692 1.71387 1.75854 1.94991.43694.0824 1.1969.40329 1.68879.71307 1.03766.65351 1.00555.65 2.05482.22469zm-86.212838 1.06084c.481826-.48182.450577-.79344-.134152-1.33778-.669612-.62335-.987489-.51163-1.169988.4112-.237991 1.20344.501723 1.729 1.30414.92658zm2.999708 8.764339c.321736-.19616.676339-.55718.788007-.80227.185072-.40619.125074-.52887-.678155-1.38665-.484653-.51756-1.477287-1.64533-2.205854-2.50614-1.288138-1.52195-1.345991-1.56511-2.097969-1.56511-.579255 0-.773299.0696-.773299.27728 0 .25935 2.860994 5.6279 3.260023 6.1173.270034.33119 1.043454.27031 1.707247-.13441zm75.07675 1.42047c2.69751-.12838 4.09451-.26667 4.44193-.43973.45668-.22749.63508-.2094 1.80353.18283l1.29673.4353 2.80099-.5196c1.54054-.28578 2.88706-.57279 2.99224-.63781.10521-.065.26922-.32321.36448-.57377.27051-.71149-.11116-1.59854-.90282-2.09829-2.12486-1.34136-6.81037-3.94117-7.44985-4.13363-.41154-.12385-1.39792-.59381-2.19192-1.04435-1.61158-.914439-1.75224-.940549-2.83632-.526539-1.03134.393869-.9844.751719.21762 1.659259.54108.40852.98378.77383.98378.81181 0 .23977-1.29907.8229-1.61199.72359-.46037-.14612-1.9654.5593-1.9654.92121 0 .14442.0931.63219.20683 1.08394.27837 1.10558.005 1.30326-1.80612 1.3086-1.04531.003-1.45146.0804-1.79028.34077-.58052.44616-.58521 1.34172-.0111 2.11827.49822.6739.0791.64409 5.45764.38814zm-57.899992 8.38182c.11804-.11805.21463-.58489.21463-1.03743 0-1.03224-.21984-1.25209-1.25208-1.25209-1.03223 0-1.25209.21985-1.25209 1.25209 0 1.03223.21986 1.25208 1.25209 1.25208.45254 0 .91939-.0966 1.03744-.21465zm28.654862 2.28075c0-.47496-.96768-1.35062-1.49256-1.35062-.52986 0-.35274.82379.28519 1.32657.7539.59417 1.20737.6032 1.20737.024zm44.16144 3.20239c1.13659-.28232.93359-.10322 2.52196-2.22505 1.00146-1.33778 1.2588-1.80673 1.21707-2.21783-.0942-.92764-.48234-.96545-2.13725-.20817-.8212.37578-1.92589.83244-2.45488 1.01483-.52901.18237-1.29367.63423-1.69926 1.00415-.4056.36991-1.16002.86742-1.67651 1.10559-.51648.23817-.93906.53626-.93906.66242 0 .30882 3.17914 1.3245 3.75626 1.20006.24594-.053.8812-.20422 1.41167-.336zm-31.67541 2.12899c.063-.64836-.23686-.9128-2.09274-1.84561l-1.14378-.57489-.46604.3476c-.65525.48873-.65168.76579.0198 1.5351.63836.73138 1.86098 1.19271 3.00208 1.13277.56272-.0295.63157-.0897.68066-.59497zm49.2686.45232c.48556-.58482.41879-1.8577-.12601-2.40251-.24292-.24292-.64858-.43905-.90812-.43905-.54489 0-1.51525.8798-1.51376 1.37249.002.72672.37808 1.62419.76018 1.81509.55044.275 1.41028.10858 1.78771-.34602zm-54.87419.56362c.44315-.48968.28442-.75263-1.04968-1.73877-.64099-.47382-1.16877-.94705-1.17281-1.05161-.004-.10457.22456-.41231.50799-.68386.28346-.27156.65316-.79931.82157-1.17279.27746-.61532.28066-.72848.0341-1.20531-.21594-.41759-.46225-.57014-1.19295-.7388-1.75263-.40456-1.77801-.39258-3.00661 1.41951-.60861.89763-1.10656 1.70654-1.10656 1.79757 0 .091.12576.4087.27947.70593.27316.52828.26513.55787-.35775 1.31803-.35046.42768-.63719.85008-.63719.93864 0 .0886.26159.29122.58132.45035.45449.22619 1.17041.29181 3.28135.30076 2.46404.0104 2.72782-.0193 3.01777-.33965zm20.4489.88769c.55188-.49189 1.08797-.894 1.1913-.89358.10333.00036.5501.24155.9928.53585.4427.29429.89438.53541 1.00372.53584.23471.00078 2.34655-1.14872 3.40387-1.85297.49575-.3302 1.07572-.52798 1.75334-.59792.96343-.0994 1.00995-.12712.95849-.5704-.039-.33596-.24295-.55817-.73125-.79671-.52179-.25492-.80327-.58323-1.22679-1.43096-.62869-1.25842-1.16363-1.90634-1.57046-1.90215-.15501.002-1.93191.34721-3.94867.76802l-3.66681.76512-2.29036 1.67673c-1.25968.92219-2.35694 1.80407-2.43831 1.95973-.0814.15566-.0862.44399-.0106.64075.16958.4417.99338 1.34152 1.22819 1.34152.095 0 .59713-.36221 1.11578-.80491.51863-.4427 1.04916-.80491 1.17893-.80491.12977 0 .49395.52319.80928 1.16264.40127.81376.67398 1.16266.90873 1.16266.18446 0 .78693-.40246 1.33883-.89435zm28.38845 3.15342c1.88206-.76394 2.32185-1.00954 2.30722-1.28844-.01-.18953-.24301-1.39098-.5179-2.66989-.33964-1.58005-.50935-2.92084-.52956-4.18345-.0273-1.70427-.0638-1.88574-.44099-2.19116-.44008-.35636-.69753-.40574-1.02245-.1961-.20051.12938-2.28437 4.16694-2.80175 5.42855-.18884.46043-.4123.68265-.77629.77199-.92648.22738-4.17448 1.79668-4.17625 2.01778-.002.27117 1.62743.76713 2.52057.76713.62188 0 .73237.0876 1.57935 1.25208.53992.74232 1.03732 1.24869 1.22171 1.24373.17107-.005 1.35742-.43309 2.63634-.95222zm-10.56343 1.09964c.39484-.56369.34576-.98106-.15385-1.30841-.36246-.23749-.49246-.24565-.80491-.0505-.42075.26277-.46808.63579-.16504 1.30089.25582.56144.75322.58714 1.1238.058zm-107.257792.71951c.311657-.31166.255814-1.2422-.102355-1.70557-.169975-.21991-.656308-.58212-1.080744-.80491-.424433-.2228-2.034257-1.18515-3.577386-2.13854-2.211993-1.36665-2.964278-1.93439-3.555158-2.68304-.695383-.88106-5.716332-9.41749-6.607942-11.23457l-.394955-.80492.35126-2.59361c.329949-2.43624.360083-4.60301.07599-5.4643-.0899-.27256.05428-.56393.562392-1.1365l.683288-.76997.602319.83871c.331275.4613 1.104545 1.93862 1.718378 3.28294.978211 2.14232 1.172962 2.45108 1.576751 2.49975.33572.0405.597114-.10011.963599-.51826.824507-.9407 7.230451-6.60261 7.470273-6.60261.277042 0 .768822.53735.818501.89434.121332.87191-.02399 1.09949-1.1677 1.82864-.639458.40767-1.162651.86212-1.162651 1.00989 0 .14777.308975.63605.686612 1.08509 1.005804 1.19596 1.101924 1.45688 1.103636 2.99581.0031 2.78074.125509 3.23023 1.174758 4.31352.516805.53358 1.033255.93893 1.147665.90079.11441-.0381.463356-.5502.775432-1.13791.495152-.9325.697081-1.13039 1.585618-1.5539 1.017645-.48506 1.018323-.48592 1.231495-1.56946.11731-.59628.27605-1.12293.352756-1.17033.07671-.0474.310406.19039.519336.52845.569842.92202 1.470447 1.63188 2.612512 2.05918l1.02359.38298.666471-.46187c.366557-.25403.835575-.64187 1.042262-.86188.357426-.38046.363391-.44703.122039-1.36194-.168557-.63898-.466878-1.1802-.888542-1.61202-.349134-.35755-.634788-.77994-.634788-.93864 0-.1587.280961-.62485.624358-1.03586.690097-.826.658549-1.13724-.170321-1.68033-.421475-.27617-.496184-.27664-1.018494-.006-.31001.16032-1.303741 1.00745-2.208292 1.88251-1.209628 1.17021-1.76731 1.59105-2.108428 1.59105-.255084 0-.507327-.0704-.560538-.15655-.05321-.0861.555265-.9088 1.352169-1.82822l1.448918-1.67168-.09915-1.16784c-.05453-.64231-.351582-2.57643-.660109-4.298049-.353738-1.9739-.558168-3.69801-.553403-4.66728.0063-1.27653-.0508-1.59972-.336739-1.90664l-.344298-.36974-1.215505.49269c-.66853.27097-1.899682.71961-2.735895.99698-1.636727.54288-2.047493.86298-6.367373 4.96191-.907211.86081-1.687202 1.565109-1.733317 1.565109-.04611 0-.467416-.448979-.936227-.997729l-.852384-.99772.03411-1.28854c.04975-1.8797.04556-1.88231-4.619068-2.87583-2.107345-.44885-4.045226-.81608-4.3064-.81608-.560649 0-.922444.36744-2.025366 2.05699-1.007727 1.54373-1.124412 1.98796-.754627 2.87298l.287433.68792-.876818.87682c-.804793.804799-.91091.858569-1.291862.654689-.344867-.18456-.719362-.15249-2.214792.18967-.98986.22648-1.955927.55682-2.146816.73408-.338594.31443-.339439.35468-.03457 1.64788.390419 1.65607.863379 2.18478 1.797605 2.00952 1.045325-.19611 1.61172.23411 2.316504 1.75952.336004.72724.70328 1.59146.816172 1.92048.139443.40642.612183.91369 1.474354 1.58203 1.313739 1.01839 1.485439 1.26049 1.659448 2.3399.158816.98515.938689 2.13491 5.510417 8.12395 5.520701 7.23223 6.41231 8.14778 9.791843 10.05487 1.426482.80497 2.718366 1.46776 2.870852 1.47289.152487.005.373837-.0873.491891-.20533zm5.148911 2.81072c.08829-.35176-.08274-.70686-.818436-1.69926-.815753-1.10039-1.000699-1.25456-1.504971-1.25456-.782921 0-1.162363.33008-1.220504 1.06173-.04758.59871-.0096.63654 1.471553 1.46776.836214.46927 1.61947.85677 1.740568.86112.121099.005.270404-.1922.33179-.43679zm115.727311 1.07045c3.56862-.96716 3.74052-1.04865 4.06924-1.92901.59868-1.60328.58541-2.28705-.0511-2.62766-.25441-.13615-.49635-.0442-1.10583.42031-1.07541.81963-3.10465 1.83707-4.17867 2.09516-1.26101.30302-1.51613.46724-1.80687 1.16305-.33516.80218-.16486 1.50448.36483 1.50448.2185 0 1.43726-.28185 2.70835-.62633zm-18.849 2.421599c.99064-1.018659 1.28745-1.682069.82203-1.837199-.16602-.0554-.16064-.29943.0235-1.06714.13134-.54745.17829-1.09326.10435-1.2129-.19504-.31559-1.1621-.68599-1.53584-.58825-.34456.0901-.879 1.05483-.88401 1.59574-.002.18188-.15685.92285-.34481 1.64657-.18797.72373-.29508 1.448159-.23806 1.609829.14437.40928.60428.92.82846.92.1029 0 .65387-.48 1.22436-1.06665zm4.49243 2.26794c1.19035-1.33537 1.32268-1.87085.63277-2.56076l-.42852-.428529-.63985.434779c-1.0539.71615-1.8103 3.02751-1.19285 3.64497.31687.31687.45849.22203 1.62845-1.09046zm-67.067322 7.37145c.25922-.2039.4713-.4603.4713-.5698 0-.28044-.7317-1.02704-1.00655-1.02704-.22386 0-.6003 1.03414-.60227 1.65454-.002.42757.55657.39927 1.13752-.0577zm-13.74958 2.7695c.24637-.16142.44794-.3915.44794-.51129 0-.62808-3.3113-2.40474-3.99378-2.14285-.41805.16042-1.04012 1.14644-.98121 1.55528.0444.30782.37429.5106 1.57648.96889 1.59692.60877 2.18062.63448 2.95057.12997zm97.252042-.55192c1.2502-1.28347 5.85978-7.25643 5.86358-7.59789.003-.29391-.81768-.68826-1.43285-.68826-.17024 0-.65802.46283-1.08394 1.0285-.42593.56567-1.75661 2.21568-2.95709 3.66668-1.74115 2.1045-2.20754 2.78521-2.30549 3.36498-.0947.56074-.0523.80465.18564 1.06759.38198.42208.60479.31371 1.73015-.8416zm-11.21928 2.4506c.29734-.32856.29937-.38404.0291-.79656-.34152-.5212-1.32865-.76753-1.88423-.4702-.50794.27184-.47692.43452.20475 1.07341.67328.63102 1.1986.69257 1.65039.19335zm-78.080682 3.64852c.67429-.60918.71065-.69681.76071-1.83341l.0526-1.19366h1.12626c1.02319 0 1.15259-.0429 1.41401-.46939.15826-.25815.2417-.58939.18541-.73608-.105-.27363-3.03864-2.37663-4.03177-2.8902-.68486-.35416-1.53213-.37015-1.81095-.0342-.16132.19437-.13905.61614.0968 1.83341.16846.86953.31325 2.43388.32177 3.47633.0216 2.648.49038 3.10732 1.88521 1.84718zm84.069062.68447c.74638-.90242 1.35926-2.90662.88884-2.90662-.2749 0-2.66964 1.57268-2.66964 1.75322 0 .0828.12831.52716.28512.98738.35554 1.04346.73513 1.08559 1.49568.16602zm-74.694042 12.28419c.67088-.52771 1.41787-1.86549 1.28152-2.29508-.0614-.19336-.93286-.91329-1.93664-1.59984-1.00378-.68655-1.95614-1.40572-2.11635-1.59815-.19379-.23276-.63126-.39236-1.30682-.47676-.94426-.11798-1.08699-.0846-2.034.47643-.62206.36848-1.03903.74386-1.07126.96442-.0309.21153.24892.74002.67558 1.27587.57865.72676 1.03961 1.06337 2.24282 1.63782.83296.39768 1.93648 1.00724 2.45225 1.35458 1.09544.73771 1.18933.75122 1.8129.26071zm-15.12467-.0471c.0427-.49947.22192-.78812.79238-1.27642.80882-.69231 1.13012-.74269 2.7113-.42515.88624.17798 1.06405.16677 1.31364-.0828.26566-.26564.26118-.34002-.0561-.93267-.66662-1.2453-1.30922-1.87338-1.91665-1.87338-.79127 0-4.61614 2.30409-5.10402 3.07464-.34819.54993-.35125.60193-.0645 1.09416.1656.28423.57065.75492.90011 1.04597.54594.48229.63312.50668.98378.27515.25073-.16555.404-.47888.43999-.89947zm-33.223726 3.27351c.249177-.13336.34598-.37595.34598-.86707 0-.56221-.204895-.95355-1.167248-2.22939-.857521-1.13687-1.210078-1.77299-1.328662-2.3973-.183065-.96377-.48608-1.83359-.638759-1.83359-.05651 0-.339432.1224-.628715.27199-.487769.25223-.646205.2374-2.181358-.20425-1.450263-.41723-1.750013-.45093-2.419055-.27199-1.032604.27618-1.018737.27896-1.73267-.34788-.503179-.44179-.736754-.88901-1.168874-2.238-.614442-1.91817-.642904-2.1927-.277418-2.67592.472513-.62471.318388-1.61318-.575638-3.69181-.467296-1.08647-.952467-2.01535-1.078158-2.06418-.319265-.12405-5.068435 2.04612-5.450572 2.49067-.635541.73934-.417527 1.32365 1.589333 4.25964 3.07673 4.50118 4.360582 6.23755 4.68179 6.33197.166278.0489 1.205868.22463 2.310199.39054 1.676737.25192 2.188582.26612 3.10361.0861.602655-.11856 1.205858-.25782 1.34045-.30947.445053-.17078 1.321393 1.0653 1.985222 2.80019 1.055426 2.75829.999595 2.68492 2.043051 2.68492.495833 0 1.057203-.0833 1.247492-.18516zm92.037758-.0905c.23847-.36397.25787-.54212.0974-.89435-.16168-.35486-.33171-.43985-.87992-.43985-.72772 0-1.47458.40393-1.47458.79749 0 .31681 1.0545.98437 1.56097.9882.23151.002.52306-.18735.69614-.45149zm-7.69805.71294c.87817-.20366 1.40659-.45519 1.9728-.93906.42535-.3635.77601-.76623.77923-.89497.003-.12875-.24021-.54029-.54097-.91454-.49027-.61008-.67425-.70151-1.77843-.88387-.67738-.11186-1.66581-.20339-2.19652-.20339-.84217 0-1.0938.0923-1.97783.72532-1.04173.74598-1.20092 1.0424-.75743 1.41045.19918.16531.37451.15044.79601-.0675.70151-.36276.96533-.35242 1.4718.0577.33341.26999.37405.38835.20376.59351-.16695.20118-.14869.34982.0849.69126.25084.36669.57819.68985.70965.70056.0185.002.57336-.12244 1.23305-.27543zm-41.062722.72194c.69064-1.00381.61434-1.30392-.56937-2.2396-1.28496-1.0157-1.58841-.95766-2.36323.45196-.35077.63814-.59621 1.26195-.54542 1.38624.23806.58259 1.27743 1.03851 2.70687 1.18736.11824.0123.46525-.34137.77114-.78596zm-40.069097 2.54031c.785672-.38399.806199-.41567.858791-1.32561.06029-1.04314-.130112-1.52432-.768763-1.94277-.413472-.27092-.472381-.2568-1.245793.29863-.44649.32064-.811798.68611-.811798.81216 0 .24637.334616 1.97965.453385 2.3485.103457.32129.592248.25967 1.514178-.19091zm73.877949 5.8335c1.00711-.69412 1.11853-1.17735.36171-1.56872-.68098-.35214-1.51756-.34849-1.87425.008-.37723.37723-.36557.42923.26856 1.19855.63066.76508.65067.77091 1.24398.36198zm-59.774111-.054c.678596-.49157.742314-.606.742314-1.3331 0-.85462-.293781-1.68958-.610037-1.7338-.10718-.015-.275365-.046-.373743-.0688-.09838-.0229-.312766-.0508-.476417-.0622s-.546539-.35921-.850863-.77303c-.757795-1.03044-.529826-1.11061 2.200954-.77401 1.22401.15088 2.747732.27431 3.38605.27431 1.547311 0 10.631601-1.03531 11.263331-1.28365.61042-.23997 1.9167-1.6891 1.9167-2.12632 0-.36073-.76791-1.33924-1.256-1.60046-.25372-.13579-.52628-.0202-1.26991.53855l-.94684.71144-.45477-.42653c-.25012-.23459-.87675-.60551-1.3925-.82427-1.1014-.46715-1.1228-.45848-2.87771 1.16625-.59524.55109-1.34862 1.08223-1.67419 1.18031-.32556.0981-1.65961.22669-2.964551.28577-1.441213.0652-2.491698.19449-2.675955.32922-.252421.18457-.399787.14824-.877991-.21651-.31606-.24107-.653998-.66591-.75097-.94409-.244137-.70033-2.187619-2.27559-3.117041-2.52646-1.042424-.28138-2.743298-.51698-3.710057-.51393-.656895.002-.999723.14121-1.864286.7566-.582655.41473-1.087407.83958-1.121669.94413-.09616.29342 1.100667 2.04523 3.512003 5.14056 2.306506 2.96077 3.153415 3.81253 4.149073 4.17284.933045.33765 1.294446.28715 2.095075-.29283zm44.292399-2.85192c-.35126.67926-.99389.70339-1.50281.0564-.44143-.56119-.46538-.97326-.0978-1.68402.35184-.68036.8253-.67277 1.41045.0226.535982.63699.564842.88047.19018 1.60499zm3.849912-4.14229c-1.05798.63517-2.40112.40312-4.145402-.71619-.81661-.52401-1.05843-.91112-.70543-1.12929.32784-.20238.32869-1.08856.002-2.03711-.1861-.54089-.33835-1.08867-.33835-1.21729 0-.28692 1.22268-1.14109 1.633362-1.14109.16404 0 .72236.2854 1.24071.63423 1.10113.741 1.31959.65213 1.56952-.63846.28937-1.49429.92328-2.51281 2.05945-3.30903.75484-.52898 1.21567-1.03077 1.64934-1.79592.72057-1.27135 1.09541-1.35977 1.46821-.34634.15538.42243.49188.86315.82153 1.07603.74472.48092.77282.93355.11433 1.84255l-.54855.75726.49629-.12697c1.02807-.26303 1.17341-.18813 1.96443 1.01229.42136.63947.76371 1.32364.76057 1.52039-.0181 1.16698-1.78365 2.613-4.57172 3.74425-1.17081.47505-2.28972 1.00573-2.48648 1.17929-.19676.17355-.63946.48468-.98378.6914zm13.06054-15.5869c-.81994 1.10676-1.53833 2.00987-1.59638 2.00752-.27926-.0126-1.10315-.65124-1.18898-.92167-.13907-.43818 1.62587-4.38836 2.36326-5.28928.84993-1.03841 1.20288-.99417 1.80123.22584.60927 1.2423.57578 1.33887-1.37913 3.97759zm-8.96028.85678c-.47758.24201-.93137.43678-1.00845.43286-.37931-.0194-1.12387-.57615-1.12387-.84041 0-.16474.33382-.77543.74182-1.35708.68366-.9746.72859-1.10848.57303-1.70703-.12075-.46468-.097-.91201.0834-1.57214.24596-.9001.23633-.97006-.39418-2.86224-.87696-2.63186-.86444-2.80614.24212-3.36686.48861-.2476 1.03601-.45019 1.21643-.45019.41884 0 1.11481 1.39223 1.11481 2.2301 0 .75698.24444.92606.80648.55779.62309-.40826 1.02859-.35214 1.57478.21796.52579.5488.6341 1.10814.21458 1.10814-.3232 0-1.09185 1.17324-1.63242 2.49159-.37568.91628-.38249 1.01046-.12045 1.6654.20515.51267.22967.79659.0938 1.0858-.36482.77659-1.531 1.93516-2.38184 2.36631zm21.22066-1.0746c-.43446.32874-.64021.32974-1.10316.005-.20201-.14149-.76323-.28231-1.24716-.31302-.79497-.0504-.88503-.10018-.93343-.51626-.0443-.38035.18842-.66946 1.33692-1.6612.76477-.66038 1.5748-1.24694 1.80007-1.30349.73918-.18553 3.62418 1.95296 3.62418 2.68637 0 .0551-.24981.38486-.55514.7326-.59347.67593-1.2145.81797-1.5913.36396-.2807-.33842-.87968-.33586-1.33098.005zm-31.457222-1.27107c-.10736.32248-.52281.2859-1.64414-.14476-1.21446-.46643-1.47341-.94559-.77529-1.43457.70141-.49128 1.15167-.35683 1.84472.55083.35126.46002.60988.92285.57471 1.0285zm47.542692-1.32475c-.24718.39156-.53257.71193-.63418.71193-.24571 0-1.06284-.82558-1.06284-1.07383 0-.22328 1.36114-.88354 1.83341-.88981.43651-.005.39047.4171-.13639 1.25171zm-22.14252-3.04411c-.85786.49189-1.58692.89435-1.62021.89435-.21149 0-1.58594-1.14819-1.84171-1.53853-.29648-.45255-.29489-.48311.0383-.72703.19128-.14003 1.07221-.6214 1.95762-1.0697 1.40122-.70948 1.6726-.79049 2.09439-.62526.66665.26117 1.61063 2.17182 1.07302 2.17182-.0779 0-.84355.40246-1.7014.89435zm-6.63773-.38803c-1.24608.89487-1.467.76382-1.0001-.59325.61682-1.79281.80568-1.9701 1.4318-1.34399.61767.61767.4675 1.29148-.4317 1.93724zm6.05733-10.58487c-.34915.62432-.69126 1.13034-.76019 1.12408-.069-.006-.57973-.25532-1.13502-.55388-.62661-.33691-1.42584-.59191-2.10683-.67221-.97754-.11526-1.18443-.21498-1.89702-.91431-1.12891-1.10796-1.09027-1.51215.28112-2.9403l1.08092-1.125659-1.43866-.84342c-.79124-.46388-1.43865-.94991-1.43865-1.08004 0-.13692.60631-.43853 1.43901-.71585 1.5338-.5108 1.78985-.50192 3.21701.11169.78506.33754.85059.42914 2.10172 2.938459.71026 1.42454 1.29139 2.80297 1.29139 3.06319 0 .26022-.28566.98393-.6348 1.60825zm-35.065852 42.01986c.94092-1.31859 1.59454-1.89152 2.15791-1.89152.2168 0 1.23221.41082 2.25646.91293 1.99591.97845 2.52263 1.04153 4.32173.51766.79117-.23039.81786-.36724.22358-1.14639-.57543-.75443-.56306-1.00059.0813-1.61792l.52847-.50631.6404.56227c.76499.67167 1.13301.6982 2.01775.14542 1.607492-1.00434 2.807432-1.49474 3.464022-1.41572.72727.0875 1.40661-.19364 1.40661-.58215 0-.32856-.5578-.62605-1.17383-.62605-.47228 0-2.40516-.98217-2.40189-1.22049.002-.15677 2.29725-1.46315 2.56601-1.46058.11265.00078 1.11344.84906 2.22398 1.88441 1.11055 1.03535 2.08995 1.83873 2.17644 1.78527.20697-.12791 2.15424-3.81069 2.15424-4.0742 0-.11215-.20663-.41958-.45916-.68318l-.45917-.47926.49173-.3868c.27455-.21595.61559-.339.7722-.2786.97267.37523 1.82884.50061 2.28857.33517.46263-.16649.4922-.23741.43888-1.05298-.0317-.48525.0457-1.06664.1739-1.30621.2099-.39223.30879-.42142 1.08087-.319 1.00326.13309.82079.59374 1.58011-3.98912.29945-1.80723.67282-3.53414.82974-3.83758.70589-1.36505 3.17359-5.25012 3.52058-5.5427.6797-.57311 1.44925-1.01598 1.76658-1.01667.57281-.002.9062.80673.87317 2.11599-.0305 1.2083-.0299 1.20976 1.07569 2.80469.6084.87766 1.27755 1.92033 1.48701 2.31705l.38081.72129 2.63844-.0495c2.21718-.0416 2.86138-.11993 4.03455-.49053 1.50497-.47542 1.8274-.72799 2.16493-1.69584.18885-.5415.1435-1.00583-.33574-3.43844-.65697-3.33475-.66035-3.41269-.18174-4.18711.28913-.46782.49247-.60244.91001-.60244.29572 0 1.05007-.28655 1.67634-.63679.93912-.52518 1.20284-.60244 1.50474-.44088.20133.10775.36605.23569.36605.28432 0 .0486-.32213.49591-.71583.99399-.39371.49808-.66559.98687-.60421 1.0862.24717.39994 1.37054.68072 2.72335.68072 1.61434 0 1.71793.071 1.87601 1.28492.10384.79736.0581.91537-.94829 2.44808-.91266 1.3899-1.15069 1.63623-1.73893 1.79957-.37484.10409-.81214.18971-.97177.19025-.15964.00054-.60575.34328-.99136.76162-.55483.60192-.87682 1.25824-1.54317 3.14548-.46314 1.31167-.84206 2.56312-.84206 2.78099 0 .87185.87213 1.04987 2.634.53768.79921-.23234 1.29723-.56814 2.58647-1.74397.87817-.80093 2.19802-1.99955 2.93301-2.66361l1.33635-1.20736h1.23443c.80602 0 1.31646.0845 1.47081.24337.13.13386.45833.49607.72962.80491.27131.30884.57035.56154.66454.56154.20121 0 .72419-.44052 3.87771-3.26633 1.29385-1.1594 2.39877-2.22871 2.45539-2.37624.12324-.32117-.5373-1.03586-.8392-.90799-.11682.0495-1.43707.4914-2.93387.98204-1.57219.51535-3.05878 1.12414-3.52019 1.4416-.43928.30224-.91284.54954-1.05234.54954-.1395 0-.39088-.30437-.55863-.67637-.25594-.56758-.2734-.81928-.1086-1.5651.48804-2.20863.4383-2.13084 2.0478-3.20177 1.70847-1.13678 1.68154-1.07989 1.74111-3.6791.0424-1.84975-.0684-2.20269-.91484-2.91495l-.53403-.44937-1.61791.41167-1.61793.41167-.31152-.4042c-.17136-.22232-.55301-.81526-.84814-1.31765-.29514-.50241-.64181-.95539-.77038-1.00664-.12856-.0512-.9458.27893-1.81609.73374-1.11434.58237-1.70647.79538-2.0021.72022-.6551-.16658-1.79671-1.79598-3.12331-4.45781-1.12588-2.25904-1.19468-2.46283-.93281-2.76194.17219-.19663.32996-.84765.40341-1.66447.0663-.73783.20555-1.84567.30933-2.46187.32596-1.935369-.01-2.381789-1.22591-1.630169-.49198.30407-.76339.3545-1.36262.25319-2.04423-.34558-1.89148-.36673-2.64173.36585-.38509.37603-.70017.84142-.70017 1.034199 0 .19277.24846.73766.55211 1.21086.51559.80347.53782.90507.33613 1.53606-.30422.95179-.38771.99821-1.20624.6707-.40091-.16042-.91594-.26517-1.14451-.23278-.65508.0928-.67273 1.36605-.0374 2.69539.55194 1.15476.64066 1.18609 2.13144.75271.92825-.26986.97286-.2661 1.59726.13415.49019.31422.61735.49649.53687.76949-.30728 1.0424-.29029 1.83617.0539 2.51738.19515.38625.58505 1.41341.86645 2.28257l.51162 1.5803-.62315.52119c-.85279.71326-1.27499.7906-2.47616.45357-1.19241-.33458-2.54783-.37844-2.83454-.0917-.14469.14467-.41903-.005-1.01955-.5594-.4519-.41653-.82162-.8135-.82162-.88215 0-.0687.36181-.59078.80404-1.16027.76421-.98416 1.34239-2.38156 1.34239-3.24445 0-.34079-1.05609-1.50645-1.36486-1.50645-.2347 0-1.13582.62724-1.22136.85016-.0513.13367.0267.5301.17326.88094.1466.35084.26653.81411.26653 1.02949 0 .56498-.64091 1.17453-1.23493 1.17453-.74959 0-1.34852-.5747-1.95939-1.88013-.3-.64105-.66595-1.21179-.81323-1.26831-.1473-.0565-.54094.10556-.87478.36019-.74048.56481-1.12122.58519-1.39445.0746-.2683-.50131-.16773-.57601 2.76246-2.05201 2.66777-1.34382 2.50938-.93583 1.62956-4.19775l-.51193-1.89801.66173-1.110869c.36396-.61097.66174-1.24116.66174-1.40042 0-.15925.21888-.96165.4864-1.78312.52912-1.62472.49096-1.88546-.34538-2.36057-.57167-.32477-1.17429-.0978-2.67677 1.0083-.94514.69577-1.13166.76734-1.72157.66059-.84024-.15205-1.37898-.42601-3.23287-1.64398l-1.49808-.9842-1.97234.11285c-1.08479.062-2.00491.14543-2.04473.18524-.0398.0398.10893 1.00283.33056 2.14001.44311 2.27364.42955 2.35976-.55804 3.54272l-.47789.57244-.85172-1.19359c-.46846-.65647-.95815-1.19358-1.0882-1.19358-.13006 0-.73072.79969-1.33478 1.77709l-1.09831 1.777089-1.16839.38882c-1.32775.44185-1.30108.40141-2.39172 3.62605-.5777 1.70801-.62349 1.77859-1.68277 2.5936-1.31905 1.01489-1.7151 1.39975-1.7151 1.66662 0 .11153.40246.59893.89435 1.08312.83063.81764.89434.9425.89434 1.75274 0 .72761.062.89207.37355.99095.20545.0652.47762.36606.60481.66856.19291.4588.18751.67836-.0326 1.32423-.1451.42584-.33416.81773-.42017.87087-.086.0532-.50103-.42719-.92232-1.06741-.42127-.64022-.86413-1.20334-.98412-1.25137-.11998-.048-.838572.19542-1.596882.54098l-1.37874.62831-.61326-.61329c-.6035-.60348-.60841-.62073-.30758-1.07986.28997-.44255.28856-.49597-.0273-1.03687-.42572-.72894-.68105-.80654-1.08141-.32865-.17687.21114-.53444.49595-.79461.63293-.37436.19711-.61687.64679-1.16265 2.15586-.55889 1.54533-.7744 1.93956-1.13679 2.07961-.24595.095-.7796.33911-1.1859.54235l-.73872.36954-.69224-.36513c-.38072-.20083-.9428-.51098-1.24907-.68923-.55237-.3215-.57461-.3188-2.77247.33715-1.21861.36369-2.40294.66069-2.63186.65998-.65812-.002-1.46191.924-1.46191 1.68422 0 1.13901 1.29917 2.01736 2.66797 1.80379.96887-.15118 1.32314-.14622 3.68189.0515 1.53917.12902 2.07566.26943 3.8457 1.00649 1.13134.47111 2.15757.93838 2.28049 1.03837.43903.35715 2.55364 3.63713 2.71899 4.21743.1949.684.26246.60981-1.85203 2.03392-1.71322 1.15386-2.24719 1.78031-1.88722 2.21406.20548.24757.47436.27676 1.6833.18274 2.13829-.1663 2.17422-.0671.66271 1.82824-.70451.88345-1.28094 1.73012-1.28094 1.88147 0 .34185.61589.83673 1.58541 1.27393.40695.1835.73989.40614.73989.49474 0 .0886-.52862.40847-1.17471.71081l-1.1747.54972-1.19532 2.40613-1.19531 2.40613-1.52039-.11328-1.52039-.11329-1.56217 1.36616c-1.23245 1.07781-1.60195 1.51392-1.75067 2.06621-.20624.76592-.0497 1.26381.49784 1.58277.47779.27837.49436.26677 1.36783-.95729zm15.232752 7.17291c.12576-.32774-.88653-2.19965-1.50146-2.77648-.36996-.34702-.56407-.77083-.72167-1.57572-.11859-.60557-.365912-1.28974-.549632-1.52039-.43758-.54936-1.8589-1.30899-2.20251-1.17713-.32336.12408-2.64001 3.84752-2.63768 4.23939.00078.18923 1.07193.70284 3.44322 1.65157 3.576762 1.43102 4.018192 1.55369 4.169732 1.15876zm-53.762877 4.55724l1.699258-.29591.05424-.64948c.04255-.50945-.123777-.95061-.771337-2.04592-1.051446-1.77844-3.698592-5.62072-4.136205-6.00362-.183652-.16069-.807123-.42756-1.385487-.59303-.578366-.16547-1.289639-.47671-1.580608-.69162l-.529036-.39075-.304951.37623c-.167722.20692-.411983.70054-.542802 1.09692-.209816.63575-.19312.92411.141637 2.44626.378015 1.71884.38395 1.72995 1.525399 2.85466.956107.9421 1.325463 1.1795 2.229959 1.43328.596229.1673 1.124855.37019 1.174726.45089.04987.0807-.18897.40117-.530758.7122-.341784.31102-.621429.63731-.621429.72509 0 .29158.976852.89378 1.430955.88215.245945-.006 1.211839-.1446 2.146432-.30735zM180 90.000001C180 139.70562 139.70563 180 89.999998 180 40.294374 180 0 139.70562 0 90.000001 0 40.294372 40.294374 0 89.999998 0 139.70563 0 180 40.294372 180 90.000001z" opacity=".5"/></svg>