<svg xmlns="http://www.w3.org/2000/svg" height="183.79144" width="143.03111"><path d="M78.64387 3.441157c4.46527 0 8.07916 2.58361 8.07916 5.261798V173.41808c0 2.67818-2.85462 6.9322-7.31988 6.9322v3.44116h38.98472v-3.44116c-4.46527 0-7.31989-4.25402-7.31989-6.9322l-.00032-81.95072c9.68349 0 12.87736 21.1972 12.87736 32.97512h4.13915V45.787463h-4.13915c0 10.348828-3.19387 28.974057-12.87736 28.974057V11.064585c20.29446 0 26.67453 44.107995 26.67453 53.808965h5.28892V.02685L78.64387 0zM0 3.441157c4.465268 0 8.079164 2.58361 8.079164 5.261798V173.41808c0 2.67818-2.854618 6.9322-7.319886 6.9322v3.44116h38.984721v-3.44116c-4.465268 0-7.319886-4.25402-7.319886-6.9322l-.000321-81.95072c9.683491 0 12.877358 21.1972 12.877358 32.97512h4.13915V45.787463h-4.13915c0 10.348828-3.193867 28.974057-12.877358 28.974057V11.064585c20.294458 0 26.674528 44.107995 26.674528 53.808965h5.28892V.02685L0 0z" opacity=".5"/></svg>