<?xml version="1.0" encoding="UTF-8" standalone="no"?>
<!-- Created with Inkscape (http://www.inkscape.org/) by Toomai Glittershine for SmashWiki -->

<svg
   xmlns:dc="http://purl.org/dc/elements/1.1/"
   xmlns:cc="http://creativecommons.org/ns#"
   xmlns:rdf="http://www.w3.org/1999/02/22-rdf-syntax-ns#"
   xmlns:svg="http://www.w3.org/2000/svg"
   xmlns="http://www.w3.org/2000/svg"
   xmlns:sodipodi="http://sodipodi.sourceforge.net/DTD/sodipodi-0.dtd"
   xmlns:inkscape="http://www.inkscape.org/namespaces/inkscape"
   id="svg2"
   version="1.1"
   height="164.83273"
   width="164.83273"
   viewBox="0 0 164.83273 164.83273"
   sodipodi:docname="fire-emblem.svg"
   inkscape:version="0.92.3 (2405546, 2018-03-11)">
  <defs
     id="defs7" />
  <sodipodi:namedview
     pagecolor="#ffffff"
     bordercolor="#666666"
     borderopacity="1"
     objecttolerance="10"
     gridtolerance="10"
     guidetolerance="10"
     inkscape:pageopacity="0"
     inkscape:pageshadow="2"
     inkscape:window-width="1051"
     inkscape:window-height="480"
     id="namedview5"
     showgrid="false"
     inkscape:zoom="0.921875"
     inkscape:cx="82.355843"
     inkscape:cy="82.35584"
     inkscape:window-x="0"
     inkscape:window-y="0"
     inkscape:window-maximized="0"
     inkscape:current-layer="svg2" />
  <metadata
     id="metadata7">
    <rdf:RDF>
      <cc:Work
         rdf:about="">
        <dc:format>image/svg+xml</dc:format>
        <dc:type
           rdf:resource="http://purl.org/dc/dcmitype/StillImage" />
        <dc:title />
      </cc:Work>
    </rdf:RDF>
  </metadata>
  <path
     id="mainsymbolpath"
     style="opacity:0.5;fill:#000000;fill-opacity:1;stroke:none"
     d="m 164.71168,0.12105073 c -5.02604,-5e-6 -11.99452,-1.26372903 -17.63347,4.37522297 -5.63895,5.6389533 -5.19282,12.3080783 -5.19282,12.3080783 l -9.8111,9.811106 c -3.37848,-1.295991 -7.59342,-1.105514 -11.86614,0.419845 L 109.13751,10.042643 86.576383,9.2250507 75.594133,24.847691 l 5.01604,21.854019 9.34707,-18.009126 6.65122,0.375651 6.386057,12.484854 L 98.553003,54.303108 15.556349,122.93666 0,164.83273 41.896077,149.27638 110.52963,66.27973 l 12.75001,-4.44152 12.48486,6.38606 0.37565,6.65122 -18.00913,9.34707 21.85402,5.01604 15.62264,-10.98225 -0.81759,-22.56113 -16.99266,-11.070636 c 1.52536,-4.272724 1.71584,-8.487656 0.41985,-11.866136 l 9.8111,-9.811106 c 0,0 6.66913,0.446137 12.30808,-5.192816 5.63895,-5.638952 4.37522,-12.6074433 4.37522,-17.63347527 z M 127.14664,37.686099 c 2.30924,2.309248 0.90763,7.445063 -3.11569,11.468388 -4.02333,4.023325 -9.15914,5.424933 -11.46839,3.115689 -2.30925,-2.309248 -0.90764,-7.445063 3.11569,-11.468388 4.02332,-4.023324 9.15914,-5.424937 11.46839,-3.115689 z"
     inkscape:connector-curvature="0" />
</svg>
