<svg xmlns="http://www.w3.org/2000/svg" height="144.03056" width="187.86281"><path d="M27.202062 91.67466L8.7156195 104.61898l-1.439862-2.05634c-1.077113-1.53827-3.18159-1.90934-4.719868-.83224l-.06169.0432c-1.53827803 1.07712-1.90935303 3.1816-.83224 4.71988l25.2695815 36.0887c1.077117 1.53828 3.181596 1.90936 4.719874.83224l.06169-.0432c1.538278-1.07711 1.909356-3.18159.832239-4.71987l-1.439857-2.05634 18.486478-12.9444c8.827977-6.18143 10.957032-18.35804 4.775585-27.18599-6.181445-8.82794-18.337499-10.97137-27.165488-4.78996zm-15.723934 32.03275l-3.0433785 2.131c-1.829859-1.08282-4.184934-1.08422-6.040019.21472-2.52822803 1.77028-3.15942103 5.24774-1.389136 7.77596 1.770285 2.52823 5.268295 3.14503 7.796523 1.37474 1.8632645-1.30467 2.6779285-3.53941 2.2737445-5.63728l3.022818-2.1166zM136.6522 0c-20.72139 0-30.32916 11.248387-34.36632 20.333619-9.219358-.527735-18.863758-.999636-19.480108-.753097-1.18615.47446-3.913 2.833471-2.13378 5.798847 1.32762 2.212699 12.86672 5.152242 18.6517 6.501738-.44033 3.265886-.85573 7.137694-1.20495 11.170939-4.65506-3.014244-9.92579-5.382235-13.30471-3.665072-7.23552 3.677066-7.47646 14.694696-3.0877 20.032376 3.13072 3.80764 10.79403 5.08093 14.96153 5.49761-.0709 1.5513-.12552 2.77706-.12552 3.16301 0 2.49091 1.18916 6.77787 6.526838 6.77787 5.33768 0 6.51485-5.93057 10.19191-9.48902 3.67707-3.55845 11.39549-9.74006 18.27516-9.74006 5.81214 0 11.37176 6.41874 11.37176 14.48457 0 8.06582-8.29277 11.02532-12.32569 11.97424-4.03291.94892-11.05532 1.16199-10.9199 4.14203.0983 2.16229 1.55408 4.49561 19.32949 1.43089 2.76061-.47597 6.17571-1.14327 9.84046-2.10867 4.09813 41.89043 22.63223 57.28826 39.01043 56.93413V89.14158c-5.53649 8.08503-20.53683 9.50969-29.99836-6.55195 12.32964-5.02116 24.45055-14.56472 24.45055-33.71364C182.31499 22.068998 166.5432 0 136.6522 0zM73.919222 67.45239c-5.79189 0-16.543029 5.74903-16.543029 14.91132 0 5.96257 8.190797 8.84119 14.133119 4.04162.18368 9.01715 2.4585 11.44701 6.25071 9.03716 16.54824 25.27368 53.242358 33.85179 72.799368 23.47152l-6.67746-22.11594c-9.94996 6.54671-10.24376 9.28819-29.44609 9.28819-19.915388 0-31.705378-8.95676-31.705378-17.42164V74.60681c0-2.7079-3.01936-7.15442-8.81124-7.15442z" opacity=".5"/></svg>