<?xml version="1.0" encoding="UTF-8" standalone="no"?>
<!-- Created with Inkscape (http://www.inkscape.org/) by Toomai Glittershine for SmashWiki -->

<svg
   xmlns:dc="http://purl.org/dc/elements/1.1/"
   xmlns:cc="http://creativecommons.org/ns#"
   xmlns:rdf="http://www.w3.org/1999/02/22-rdf-syntax-ns#"
   xmlns:svg="http://www.w3.org/2000/svg"
   xmlns="http://www.w3.org/2000/svg"
   xmlns:sodipodi="http://sodipodi.sourceforge.net/DTD/sodipodi-0.dtd"
   xmlns:inkscape="http://www.inkscape.org/namespaces/inkscape"
   id="svg2"
   version="1.1"
   height="184.06766"
   width="184.67332"
   viewBox="0 0 184.67332 184.06766"
   sodipodi:docname="mario.svg"
   inkscape:version="0.92.3 (2405546, 2018-03-11)">
  <defs
     id="defs7" />
  <sodipodi:namedview
     pagecolor="#ffffff"
     bordercolor="#666666"
     borderopacity="1"
     objecttolerance="10"
     gridtolerance="10"
     guidetolerance="10"
     inkscape:pageopacity="0"
     inkscape:pageshadow="2"
     inkscape:window-width="1051"
     inkscape:window-height="480"
     id="namedview5"
     showgrid="false"
     inkscape:zoom="0.921875"
     inkscape:cx="92.33666"
     inkscape:cy="91.45422"
     inkscape:window-x="0"
     inkscape:window-y="0"
     inkscape:window-maximized="0"
     inkscape:current-layer="svg2" />
  <metadata
     id="metadata7">
    <rdf:RDF>
      <cc:Work
         rdf:about="">
        <dc:format>image/svg+xml</dc:format>
        <dc:type
           rdf:resource="http://purl.org/dc/dcmitype/StillImage" />
        <dc:title />
      </cc:Work>
    </rdf:RDF>
  </metadata>
  <path
     id="mainsymbolpath"
     style="opacity:0.5;fill:#000000;fill-opacity:1;stroke:none"
     d="m 92.33666,176.99975 c 15.9073,0 34.65561,-2.0023 43.11687,-11.16199 6.29934,-6.8193 7.95659,-19.35241 7.80515,-27.75713 -3.40732,-4.77024 -19.03568,-17.64233 -50.92202,-17.64233 -31.88634,0 -47.5147,12.87209 -50.92202,17.64233 -0.15144,8.40472 1.50581,20.93783 7.80515,27.75713 8.46126,9.15969 27.20957,11.16199 43.11687,11.16199 z M 67.8968,143.30252 c 0,8.16157 0.77173,15.4721 4.85982,15.4721 4.08809,0 4.85983,-7.11217 4.85983,-15.27374 0,-8.16158 -0.17666,-15.27374 -4.61188,-15.27374 -4.43522,0 -5.10777,6.9138 -5.10777,15.07538 z m 48.87972,0 c 0,8.16157 -0.77173,15.4721 -4.85982,15.4721 -4.08809,0 -4.85983,-7.11217 -4.85983,-15.27374 0,-8.16158 0.17666,-15.27374 4.61188,-15.27374 4.43522,0 5.10777,6.9138 5.10777,15.07538 z M 6.99291,96.20718 c 0,5.69377 0.60849,10.63762 1.6875,14.96875 C 22.28176,100.42851 30.01318,69.9422 22.33666,47.39468 11.95385,64.22023 6.99291,83.18493 6.99291,96.20718 Z M 36.74304,149.5698 C 20.92541,143.73417 0,130.24494 0,96.21888 0,62.19282 28.13416,0 92.33666,0 c 64.2025,0 92.33666,62.19282 92.33666,96.21888 0,34.02606 -20.92541,47.51529 -36.74304,53.35092 -2.12331,24.99715 -21.42,34.49785 -55.59362,34.49785 -34.17362,0 -53.47031,-9.5007 -55.59362,-34.49785 z M 162.33666,47.39468 c -7.67652,22.54752 0.0549,53.03383 13.65625,63.78125 1.07901,-4.33113 1.6875,-9.27498 1.6875,-14.96875 0,-13.02225 -4.96094,-31.98695 -15.34375,-48.8125 z m -70,-33.76804 c -24.04063,0 -43.529412,18.89219 -43.529412,42.19688 0,23.3047 19.488782,42.19688 43.529412,42.19688 24.04064,0 43.52942,-18.89218 43.52942,-42.19688 0,-23.30469 -19.48878,-42.19688 -43.52942,-42.19688 z"
     inkscape:connector-curvature="0" />
</svg>
