<?xml version="1.0" encoding="UTF-8" standalone="no"?>
<!-- Created with Inkscape (http://www.inkscape.org/) by Toomai Glittershine for SmashWiki -->

<svg
   xmlns:dc="http://purl.org/dc/elements/1.1/"
   xmlns:cc="http://creativecommons.org/ns#"
   xmlns:rdf="http://www.w3.org/1999/02/22-rdf-syntax-ns#"
   xmlns:svg="http://www.w3.org/2000/svg"
   xmlns="http://www.w3.org/2000/svg"
   xmlns:sodipodi="http://sodipodi.sourceforge.net/DTD/sodipodi-0.dtd"
   xmlns:inkscape="http://www.inkscape.org/namespaces/inkscape"
   id="svg2"
   version="1.1"
   height="180.3125"
   width="180.3125"
   viewBox="0 0 180.3125 180.3125"
   sodipodi:docname="mega-man.svg"
   inkscape:version="0.92.3 (2405546, 2018-03-11)">
  <defs
     id="defs7" />
  <sodipodi:namedview
     pagecolor="#ffffff"
     bordercolor="#666666"
     borderopacity="1"
     objecttolerance="10"
     gridtolerance="10"
     guidetolerance="10"
     inkscape:pageopacity="0"
     inkscape:pageshadow="2"
     inkscape:window-width="1051"
     inkscape:window-height="480"
     id="namedview5"
     showgrid="false"
     inkscape:zoom="0.921875"
     inkscape:cx="90.15625"
     inkscape:cy="90.15625"
     inkscape:window-x="0"
     inkscape:window-y="0"
     inkscape:window-maximized="0"
     inkscape:current-layer="svg2" />
  <metadata
     id="metadata7">
    <rdf:RDF>
      <cc:Work
         rdf:about="">
        <dc:format>image/svg+xml</dc:format>
        <dc:type
           rdf:resource="http://purl.org/dc/dcmitype/StillImage" />
        <dc:title />
      </cc:Work>
    </rdf:RDF>
  </metadata>
  <path
     id="mainsymbolpath"
     style="opacity:0.5;fill:#000000;fill-opacity:1;stroke:none"
     d="m 83.375,0 -3.4375,9.5 -1.75,9.59375 c -4.56422,0.763494 -8.98805,1.921834 -13.21875,3.5 L 58.6875,15.21875 50.9375,8.6875 39.21875,15.46875 41,25.40625 44.21875,34.5625 c -3.522603,2.912618 -6.743632,6.133647 -9.65625,9.65625 L 25.40625,41 15.46875,39.21875 8.6875,50.9375 l 6.53125,7.75 7.375,6.28125 c -1.578166,4.2307 -2.736506,8.65453 -3.5,13.21875 L 9.5,79.9375 0,83.375 v 13.5625 l 9.5,3.4375 9.59375,1.75 c 0.763494,4.56422 1.921834,8.98805 3.5,13.21875 l -7.375,6.28125 -6.53125,7.75 6.78125,11.71875 9.9375,-1.78125 9.15625,-3.21875 c 2.912618,3.5226 6.133647,6.74363 9.65625,9.65625 L 41,154.90625 l -1.78125,9.9375 11.71875,6.78125 7.75,-6.53125 6.28125,-7.375 c 4.2307,1.57817 8.65453,2.73651 13.21875,3.5 l 1.75,9.59375 3.4375,9.5 h 13.5625 l 3.4375,-9.5 1.75,-9.59375 c 4.56422,-0.76349 8.98805,-1.92183 13.21875,-3.5 l 6.28125,7.375 7.75,6.53125 11.71875,-6.78125 -1.78125,-9.9375 -3.21875,-9.15625 c 3.5226,-2.91262 6.74363,-6.13365 9.65625,-9.65625 l 9.15625,3.21875 9.9375,1.78125 6.78125,-11.71875 -6.53125,-7.75 -7.375,-6.28125 c 1.57817,-4.2307 2.73651,-8.65453 3.5,-13.21875 l 9.59375,-1.75 9.5,-3.4375 V 83.375 l -9.5,-3.4375 -9.59375,-1.75 c -0.76349,-4.56422 -1.92183,-8.98805 -3.5,-13.21875 l 7.375,-6.28125 6.53125,-7.75 L 164.84375,39.21875 154.90625,41 145.75,44.21875 c -2.91262,-3.522603 -6.13365,-6.743632 -9.65625,-9.65625 l 3.21875,-9.15625 1.78125,-9.9375 -11.71875,-6.78125 -7.75,6.53125 -6.28125,7.375 c -4.2307,-1.578166 -8.65453,-2.736506 -13.21875,-3.5 L 100.375,9.5 96.9375,0 Z m 6.78125,69.28125 c 11.52306,0 20.875,9.35194 20.875,20.875 0,11.52306 -9.35194,20.875 -20.875,20.875 -11.52306,0 -20.875,-9.35194 -20.875,-20.875 0,-11.52306 9.35194,-20.875 20.875,-20.875 z"
     inkscape:connector-curvature="0" />
</svg>
