<svg xmlns="http://www.w3.org/2000/svg" height="198.0625" width="179.1875"><path d="M179.1875 0L48.5625 71.46875v48.09375l22.59375 6.6875L0 198.0625l130.625-71.46875V78.5l-22.59375-6.6875zm-27.65625 20.84375l-70.25 70.875 3.5625 3.53125 19.21875-19.40625L125.625 82.25v41.375l-97.96875 53.59375 70.25-70.875-3.5625-3.53125L75.125 122.21875l-21.5625-6.40625v-41.375zm-61.9375 6.625c-39.525818 0-71.5625 32.036682-71.5625 71.5625 0 20.26492 8.433191 38.5417 21.96875 51.5625l21.71875-21.9375-18.15625-5.375v-54.75l68.46875-37.46875c-7.05966-2.329759-14.59727-3.59375-22.4375-3.59375zm49.59375 20l-21.71875 21.9375 18.15625 5.375v54.75L67.15625 167c7.05966 2.32976 14.59727 3.59375 22.4375 3.59375 39.52582 0 71.5625-32.03668 71.5625-71.5625 0-20.26492-8.43319-38.541701-21.96875-51.5625z" opacity=".5"/></svg>