<svg xmlns="http://www.w3.org/2000/svg" width="168.46928" height="176.92992" viewBox="0 0 44.574163 46.812707"><path d="M16.49916 46.66218c-1.639634-.44164-4.575673-2.58557-4.752645-3.47042-.08357-.41784-.362307-.57398-1.172071-.65656-1.696473-.17301-3.370177-.76248-4.836794-1.70349-1.054883-.67684-1.770595-1.46352-2.314067-2.54357-.398308-.79156-.414881-.86334-.382114-1.65489.04606-1.1129.391961-1.8204 1.370924-2.8041 1.261173-1.26728 3.320282-2.45203 5.845469-3.36328l1.253029-.45218-.06611-.41374c-.114536-.7167-.73398-2.64481-1.229049-3.82557-1.244804-2.96894-2.856657-5.33453-5.328524-7.82021-1.901202-1.91184-3.084386-2.72884-4.342676-2.9987L0 14.83869l.07222-.73867c.189369-1.93697 1.240465-3.73198 3.433043-5.86279C8.035633 3.83447 14.1449 1.238 22.342331.2314c3.71161-.45577 6.652566-.22079 6.89756.55113.03959.12476-.06388.68469-.245621 1.32909-.711446 2.52258-1.038933 4.67336-1.115601 7.32678-.06539 2.26297.04678 3.78982.398348 5.42269.242846 1.12789.656043 2.25851.9687 2.65061l.215266.26998.770516-.27828c.841899-.30404 2.304043-.67757 2.632271-.67245.113776.002-.188761.13325-.672297.29217-1.136182.3734-2.250211.93432-1.525605.76816.127998-.0294.651614-.16345 1.163595-.298 3.007803-.79043 5.389462-.91888 7.42354-.4004 1.273113.3245 3.042783 1.36711 3.48622 2.05391.106412.16481.0961.21406-.06353.30339-.719833.40284-1.87604 1.85281-2.236011 2.80411-.656044 1.73374-3.760569 4.50476-5.046921 4.50476-.599992 0-.875986-.28572-.865519-.89601.01357-.79198.540161-1.62472 1.43956-2.27657l.310183-.22481-.56887.13114c-.730696.16845-1.187479.3714-1.723449.76569-.891105.65557-1.463513 1.92438-1.340465 2.97134.06295.53556.06038.54189-.287812.70711-.483716.22954-.718634.20963-1.076163-.0912-.415401-.34953-.723957-1.04456-.862452-1.94266-.09675-.62741-.08759-.85496.05716-1.41949.209492-.81702.712861-1.6042 1.366274-2.1366.998706-.81373 1.301244-1.1174 1.498511-1.50406.266363-.52211.417834-1.35131.338021-1.85044-.06828-.42699-.245097-.456-.245097-.0402 0 1.06848-1.227756 2.54204-2.792629 3.35173-1.385422.71683-2.092847 1.1987-2.710618 1.84638-.991176 1.03914-1.328528 1.98906-1.314775 3.70219.019 2.36613-1.006398 4.49176-2.166797 4.49176-.847687 0-1.283587-.81813-1.077356-2.02208.117453-.68571.524952-1.60256.88261-1.98587.298851-.32026.148488-.29137-.38158.0733-1.200962.82629-1.973621 2.14049-2.404495 4.08978-.237959 1.07652-.325415 1.3029-.659301 1.7066-.211724.25599-.481341.65801-.59915.89335-.262563.52453-.471832 1.73725-.340331 1.97222.08179.14617.102771.13932.163945-.0534.108257-.34109.572209-.66783.744839-.52457.29557.24531.165717.8579-.337696 1.59313-.611299.89277-.889551 1.6755-.900102 2.53197-.0082.66967.188274 1.61036.358397 1.7155.04919.0304.138748-.0755.199017-.23539.137184-.36387.671169-.92929 1.079484-1.14303.77587-.40616 2.327191-.59963 2.327191-.29023 0 .30848.243239.66714.53417.78765.430104.17816 1.451142.0628 1.92313-.21723.261336-.15508.571806-.23391.955914-.24273.89048-.0205 1.206832-.28146 2.232549-1.84186.486052-.73943 1.078538-1.55681 1.316631-1.81639.550709-.60042.273677-.47043-.992464.46571-1.207368.8927-1.555886 1.05968-2.211712 1.05968-.997196 0-1.282874-.32074-.916585-1.02906.297182-.57469.941439-1.00903 1.770171-1.1934 2.02276-.45002 3.459739-1.72676 4.683744-4.16143.177928-.35393.323507-.65874.323507-.67738 0-.0186-.277553.23603-.616781.56592-.569456.55378-.653144.5998-1.090724.5998-.558616 0-.981695-.33669-.981695-.78125 0-.41279.298945-.95867.633104-1.15607.180274-.10649.297773-.26309.297773-.39687 0-.79045 1.684563-1.9189 3.1018-2.07781.434902-.0487.478229-.0312.638555.25905.389304.70481 1.501372.82644 2.607619.2852 1.265661-.61924 1.911382-1.6352 2.544609-4.00364.535313-2.00221 1.579874-3.78469 2.770513-4.72769l.417381-.33057.210419.35664c.115731.19615.32875.68467.473372 1.08558 1.039729 2.88239.222684 6.78995-2.050787 9.80801-.837274 1.11149-1.305012 1.59782-.865452.89986.309578-.49156.97315-1.80125.836541-1.65105-.05174.0569-.358497.43356-.68167.83704-1.685764 2.10474-4.297077 4.11552-7.060854 5.43707-1.006261.48117-1.057662.52256-1.582899 1.27483-1.517211 2.17304-4.664415 5.56192-6.12969 6.60042-1.666681 1.18123-2.344523 1.25608-4.085716.45117-2.265591-1.04731-3.993039-1.17335-4.544584-.33159-.143578.21913-.166687.41841-.120041 1.03516.04693.62053.02867.77496-.09727.8233-.240923.0924-.657532.0593-1.246694-.0995zm-.546319-2.53988c0-.12957.08309-.23828.20686-.27065.621071-.16241-.217233-1.43046-1.241168-1.87744-.633026-.27633-1.680565-.36632-2.319226-.19921-.618037.16169-.756378.3918-.235555.3918.313575 0 .430735.0845.934662.6749.958973 1.12337 1.497291 1.48623 2.214846 1.493.378497.003.439581-.026.439581-.2124z" fill-opacity=".50196078"/></svg>