<?xml version="1.0" encoding="UTF-8" standalone="no"?>
<!-- Created with Inkscape (http://www.inkscape.org/) -->

<svg
   xmlns:dc="http://purl.org/dc/elements/1.1/"
   xmlns:cc="http://creativecommons.org/ns#"
   xmlns:rdf="http://www.w3.org/1999/02/22-rdf-syntax-ns#"
   xmlns:svg="http://www.w3.org/2000/svg"
   xmlns="http://www.w3.org/2000/svg"
   xmlns:sodipodi="http://sodipodi.sourceforge.net/DTD/sodipodi-0.dtd"
   xmlns:inkscape="http://www.inkscape.org/namespaces/inkscape"
   width="168.46928"
   height="176.92992"
   viewBox="0 0 44.574163 46.812707"
   version="1.1"
   id="svg8"
   inkscape:version="0.92.3 (2405546, 2018-03-11)"
   sodipodi:docname="PersonaSymbol.svg">
  <defs
     id="defs2" />
  <sodipodi:namedview
     id="base"
     pagecolor="#ffffff"
     bordercolor="#666666"
     borderopacity="1.0"
     inkscape:pageopacity="0.0"
     inkscape:pageshadow="2"
     inkscape:zoom="1.979899"
     inkscape:cx="-31.753386"
     inkscape:cy="90.140985"
     inkscape:document-units="mm"
     inkscape:current-layer="layer1"
     showgrid="false"
     units="px"
     inkscape:window-width="1920"
     inkscape:window-height="1017"
     inkscape:window-x="-8"
     inkscape:window-y="-8"
     inkscape:window-maximized="1" />
  <metadata
     id="metadata5">
    <rdf:RDF>
      <cc:Work
         rdf:about="">
        <dc:format>image/svg+xml</dc:format>
        <dc:type
           rdf:resource="http://purl.org/dc/dcmitype/StillImage" />
        <dc:title />
      </cc:Work>
    </rdf:RDF>
  </metadata>
  <g
     inkscape:label="Layer 1"
     inkscape:groupmode="layer"
     id="layer1"
     transform="translate(-11.849677,-239.84231)">
    <path
       style="fill:#000000;fill-opacity:0.50196078;stroke-width:0.10343071"
       d="m 28.348837,286.50449 c -1.639634,-0.44164 -4.575673,-2.58557 -4.752645,-3.47042 -0.08357,-0.41784 -0.362307,-0.57398 -1.172071,-0.65656 -1.696473,-0.17301 -3.370177,-0.76248 -4.836794,-1.70349 -1.054883,-0.67684 -1.770595,-1.46352 -2.314067,-2.54357 -0.398308,-0.79156 -0.414881,-0.86334 -0.382114,-1.65489 0.04606,-1.1129 0.391961,-1.8204 1.370924,-2.8041 1.261173,-1.26728 3.320282,-2.45203 5.845469,-3.36328 l 1.253029,-0.45218 -0.06611,-0.41374 c -0.114536,-0.7167 -0.73398,-2.64481 -1.229049,-3.82557 -1.244804,-2.96894 -2.856657,-5.33453 -5.328524,-7.82021 -1.901202,-1.91184 -3.084386,-2.72884 -4.342676,-2.9987 l -0.544532,-0.11678 0.07222,-0.73867 c 0.189369,-1.93697 1.240465,-3.73198 3.433043,-5.86279 4.53037,-4.40276 10.639637,-6.99923 18.837068,-8.00583 3.71161,-0.45577 6.652566,-0.22079 6.89756,0.55113 0.03959,0.12476 -0.06388,0.68469 -0.245621,1.32909 -0.711446,2.52258 -1.038933,4.67336 -1.115601,7.32678 -0.06539,2.26297 0.04678,3.78982 0.398348,5.42269 0.242846,1.12789 0.656043,2.25851 0.9687,2.65061 l 0.215266,0.26998 0.770516,-0.27828 c 0.841899,-0.30404 2.304043,-0.67757 2.632271,-0.67245 0.113776,0.002 -0.188761,0.13325 -0.672297,0.29217 -1.136182,0.3734 -2.250211,0.93432 -1.525605,0.76816 0.127998,-0.0294 0.651614,-0.16345 1.163595,-0.298 3.007803,-0.79043 5.389462,-0.91888 7.42354,-0.4004 1.273113,0.3245 3.042783,1.36711 3.48622,2.05391 0.106412,0.16481 0.0961,0.21406 -0.06353,0.30339 -0.719833,0.40284 -1.87604,1.85281 -2.236011,2.80411 -0.656044,1.73374 -3.760569,4.50476 -5.046921,4.50476 -0.599992,0 -0.875986,-0.28572 -0.865519,-0.89601 0.01357,-0.79198 0.540161,-1.62472 1.43956,-2.27657 l 0.310183,-0.22481 -0.56887,0.13114 c -0.730696,0.16845 -1.187479,0.3714 -1.723449,0.76569 -0.891105,0.65557 -1.463513,1.92438 -1.340465,2.97134 0.06295,0.53556 0.06038,0.54189 -0.287812,0.70711 -0.483716,0.22954 -0.718634,0.20963 -1.076163,-0.0912 -0.415401,-0.34953 -0.723957,-1.04456 -0.862452,-1.94266 -0.09675,-0.62741 -0.08759,-0.85496 0.05716,-1.41949 0.209492,-0.81702 0.712861,-1.6042 1.366274,-2.1366 0.998706,-0.81373 1.301244,-1.1174 1.498511,-1.50406 0.266363,-0.52211 0.417834,-1.35131 0.338021,-1.85044 -0.06828,-0.42699 -0.245097,-0.456 -0.245097,-0.0402 0,1.06848 -1.227756,2.54204 -2.792629,3.35173 -1.385422,0.71683 -2.092847,1.1987 -2.710618,1.84638 -0.991176,1.03914 -1.328528,1.98906 -1.314775,3.70219 0.019,2.36613 -1.006398,4.49176 -2.166797,4.49176 -0.847687,0 -1.283587,-0.81813 -1.077356,-2.02208 0.117453,-0.68571 0.524952,-1.60256 0.88261,-1.98587 0.298851,-0.32026 0.148488,-0.29137 -0.38158,0.0733 -1.200962,0.82629 -1.973621,2.14049 -2.404495,4.08978 -0.237959,1.07652 -0.325415,1.3029 -0.659301,1.7066 -0.211724,0.25599 -0.481341,0.65801 -0.59915,0.89335 -0.262563,0.52453 -0.471832,1.73725 -0.340331,1.97222 0.08179,0.14617 0.102771,0.13932 0.163945,-0.0534 0.108257,-0.34109 0.572209,-0.66783 0.744839,-0.52457 0.29557,0.24531 0.165717,0.8579 -0.337696,1.59313 -0.611299,0.89277 -0.889551,1.6755 -0.900102,2.53197 -0.0082,0.66967 0.188274,1.61036 0.358397,1.7155 0.04919,0.0304 0.138748,-0.0755 0.199017,-0.23539 0.137184,-0.36387 0.671169,-0.92929 1.079484,-1.14303 0.77587,-0.40616 2.327191,-0.59963 2.327191,-0.29023 0,0.30848 0.243239,0.66714 0.53417,0.78765 0.430104,0.17816 1.451142,0.0628 1.92313,-0.21723 0.261336,-0.15508 0.571806,-0.23391 0.955914,-0.24273 0.89048,-0.0205 1.206832,-0.28146 2.232549,-1.84186 0.486052,-0.73943 1.078538,-1.55681 1.316631,-1.81639 0.550709,-0.60042 0.273677,-0.47043 -0.992464,0.46571 -1.207368,0.8927 -1.555886,1.05968 -2.211712,1.05968 -0.997196,0 -1.282874,-0.32074 -0.916585,-1.02906 0.297182,-0.57469 0.941439,-1.00903 1.770171,-1.1934 2.02276,-0.45002 3.459739,-1.72676 4.683744,-4.16143 0.177928,-0.35393 0.323507,-0.65874 0.323507,-0.67738 0,-0.0186 -0.277553,0.23603 -0.616781,0.56592 -0.569456,0.55378 -0.653144,0.5998 -1.090724,0.5998 -0.558616,0 -0.981695,-0.33669 -0.981695,-0.78125 0,-0.41279 0.298945,-0.95867 0.633104,-1.15607 0.180274,-0.10649 0.297773,-0.26309 0.297773,-0.39687 0,-0.79045 1.684563,-1.9189 3.1018,-2.07781 0.434902,-0.0487 0.478229,-0.0312 0.638555,0.25905 0.389304,0.70481 1.501372,0.82644 2.607619,0.2852 1.265661,-0.61924 1.911382,-1.6352 2.544609,-4.00364 0.535313,-2.00221 1.579874,-3.78469 2.770513,-4.72769 l 0.417381,-0.33057 0.210419,0.35664 c 0.115731,0.19615 0.32875,0.68467 0.473372,1.08558 1.039729,2.88239 0.222684,6.78995 -2.050787,9.80801 -0.837274,1.11149 -1.305012,1.59782 -0.865452,0.89986 0.309578,-0.49156 0.97315,-1.80125 0.836541,-1.65105 -0.05174,0.0569 -0.358497,0.43356 -0.68167,0.83704 -1.685764,2.10474 -4.297077,4.11552 -7.060854,5.43707 -1.006261,0.48117 -1.057662,0.52256 -1.582899,1.27483 -1.517211,2.17304 -4.664415,5.56192 -6.12969,6.60042 -1.666681,1.18123 -2.344523,1.25608 -4.085716,0.45117 -2.265591,-1.04731 -3.993039,-1.17335 -4.544584,-0.33159 -0.143578,0.21913 -0.166687,0.41841 -0.120041,1.03516 0.04693,0.62053 0.02867,0.77496 -0.09727,0.8233 -0.240923,0.0924 -0.657532,0.0593 -1.246694,-0.0995 z m -0.546319,-2.53988 c 0,-0.12957 0.08309,-0.23828 0.20686,-0.27065 0.621071,-0.16241 -0.217233,-1.43046 -1.241168,-1.87744 -0.633026,-0.27633 -1.680565,-0.36632 -2.319226,-0.19921 -0.618037,0.16169 -0.756378,0.3918 -0.235555,0.3918 0.313575,0 0.430735,0.0845 0.934662,0.6749 0.958973,1.12337 1.497291,1.48623 2.214846,1.493 0.378497,0.003 0.439581,-0.026 0.439581,-0.2124 z"
       id="path3724"
       inkscape:connector-curvature="0" />
  </g>
</svg>
