<svg xmlns="http://www.w3.org/2000/svg" height="181.51936" width="186.26073"><path d="M93.130361 0c-22.17124 0-40.142302 14.618551-40.142302 34.192433 0 2.401811.269809 4.769597.78559 7.070299-2.028422-1.201223-4.194009-2.194221-6.477888-2.936298-18.615868-6.048663-38.0689415 6.525417-44.9202295 27.611515-6.851291 21.086091 1.500358 42.696481 20.1162265 48.745131 2.281317.74125 4.609972 1.22161 6.954393 1.4424-1.767936 1.55721-3.380174 3.29999-4.790804 5.24155-11.505239 15.8356-5.547785 38.23741 12.389122 51.26933 17.936907 13.03193 41.064822 11.766 52.570062-4.0696 1.41281-1.94457 2.58044-4.01545 3.51583-6.18169.93539 2.16624 2.10302 4.23712 3.51583 6.18169 11.505239 15.83559 34.633159 17.10153 52.570059 4.0696 17.93691-13.03192 23.89437-35.43372 12.38912-51.26933-1.41063-1.94156-3.02286-3.68434-4.7908-5.24155 2.34442-.22079 4.67308-.70115 6.9544-1.4424 18.61586-6.04865 26.96751-27.65903 20.11622-48.745131-6.85128-21.086097-26.30436-33.660179-44.92022-27.611515-2.28389.742077-4.44948 1.735075-6.4779 2.936298.51579-2.300702.7856-4.668488.7856-7.070299C133.27267 14.618551 115.3016 0 93.130361 0zm0 59.98808c19.573889 0 35.441649 15.86777 35.441649 35.44164 0 19.57389-15.86776 35.44165-35.441649 35.44165-19.57388 0-35.441647-15.86776-35.441647-35.44165 0-19.57388 15.867767-35.44164 35.441647-35.44164z" opacity=".5"/></svg>