<?xml version="1.0" encoding="UTF-8" standalone="no"?>
<!-- Created with Inkscape (http://www.inkscape.org/) by Toomai Glittershine for SmashWiki -->

<svg
   xmlns:dc="http://purl.org/dc/elements/1.1/"
   xmlns:cc="http://creativecommons.org/ns#"
   xmlns:rdf="http://www.w3.org/1999/02/22-rdf-syntax-ns#"
   xmlns:svg="http://www.w3.org/2000/svg"
   xmlns="http://www.w3.org/2000/svg"
   xmlns:sodipodi="http://sodipodi.sourceforge.net/DTD/sodipodi-0.dtd"
   xmlns:inkscape="http://www.inkscape.org/namespaces/inkscape"
   id="svg2"
   version="1.1"
   height="153.76385"
   width="193.97929"
   viewBox="0 0 193.97929 153.76385"
   sodipodi:docname="sonic.svg"
   inkscape:version="0.92.3 (2405546, 2018-03-11)">
  <defs
     id="defs7" />
  <sodipodi:namedview
     pagecolor="#ffffff"
     bordercolor="#666666"
     borderopacity="1"
     objecttolerance="10"
     gridtolerance="10"
     guidetolerance="10"
     inkscape:pageopacity="0"
     inkscape:pageshadow="2"
     inkscape:window-width="1051"
     inkscape:window-height="480"
     id="namedview5"
     showgrid="false"
     inkscape:zoom="0.921875"
     inkscape:cx="94.448048"
     inkscape:cy="76.65625"
     inkscape:window-x="0"
     inkscape:window-y="0"
     inkscape:window-maximized="0"
     inkscape:current-layer="svg2" />
  <metadata
     id="metadata7">
    <rdf:RDF>
      <cc:Work
         rdf:about="">
        <dc:format>image/svg+xml</dc:format>
        <dc:type
           rdf:resource="http://purl.org/dc/dcmitype/StillImage" />
        <dc:title />
      </cc:Work>
    </rdf:RDF>
  </metadata>
  <path
     id="mainsymbolpath"
     style="opacity:0.5;fill:#000000;fill-opacity:1;stroke:none"
     d="M 116.6668,0.01384584 C 83.241088,0.54762584 50.082537,16.455885 34.135548,37.076346 9.9159419,29.974755 2.7980699,33.992858 2.4792979,34.576346 l -2.18750004,4 c -0.447886,0.819822 -1.77491796,7.145302 9.43750004,30.281254 -1.504103,5.5012 -2.4375,11.86487 -2.4375,19.1875 0,10.12325 3.6243531,21.57617 9.8125001,32.0625 -4.066968,0.76403 -7.5937501,2.35896 -7.5937501,6.3125 0,4.88987 6.9755651,7.76566 17.9687501,7.59375 10.661561,11.54589 24.636563,19.75 39.71875,19.75 25.08764,0 44.527052,-12.84375 69.031252,-12.84375 24.5042,0 46.6875,10.5 46.6875,10.5 -0.41525,-18.07989 -4.23581,-35.57042 -37.34375,-48.03125 16.47071,-12.57469 32.44455,-12.72212 48.40625,-12.0625 -8.72904,-20.3192 -20.33625,-38.60385 -54.625,-41.03125 6.98285,-10.892654 20.24292,-19.10627 44.3125,-22.750004 -18.09835,-20.1245102 -42.60827,-27.92076516 -67,-27.53125016 z"
     inkscape:connector-curvature="0" />
</svg>
