<svg xmlns="http://www.w3.org/2000/svg" height="174.63867" width="158.52269"><path d="M90.638295 174.63867c4.8635-.64705 10.560835-11.01368 11.378915-22.46679.49085 3.43593 6.95101 17.01063 11.48242 18.12304 3.30625-.73627 11.45313-9.24304 11.45313-16.45312 0-7.21009-4.97692-13.20705-5.2793-16.03125-.65446-6.11264 6.58984-28.89258 6.58984-28.89258s31.32144-.76964 32.23438-14.63672C160.0156 71.22472 92.001235 0 79.261345 0 66.521455 0-1.4929055 71.22472.02501748 94.28125c.912937 13.86708 32.23437452 14.63672 32.23437452 14.63672s7.244307 22.77994 6.589844 28.89258c-.302379 2.8242-5.279297 8.82116-5.279297 16.03125 0 7.21008 8.14688 15.71685 11.453125 16.45312 4.531409-1.11241 10.991571-14.68711 11.482421-18.12304.81808 11.45311 6.51541 21.81974 11.37891 22.46679 6.41785-.48956 10.80429-12.89325 11.37695-18.86523.57266 5.97198 4.9591 18.37567 11.37695 18.86523zm-5.10879-91.67486c0-6.93872 5.62495-12.56367 12.56367-12.56367 6.938735 0 12.563685 5.62494 12.563685 12.56367 0 6.93873-5.62495 12.56368-12.563685 12.56368-6.93873 0-12.56367-5.62495-12.56367-12.56368zm-12.53632 0c0 6.93873-5.62494 12.56368-12.56367 12.56368-6.93873 0-12.563682-5.62495-12.56368-12.56368.000004-6.93873 5.62495-12.56367 12.56368-12.56367 6.93872 0 12.56367 5.62495 12.56367 12.56367zm-13.49746 32.08892c-12.705532.00043-23.005675-10.75529-23.005864-24.02343-.000847-13.2689 10.299599-24.02582 23.005864-24.02539 8.11866.0116 15.63033 4.49117 19.76562 11.78711 4.13529-7.29594 11.64696-11.77551 19.76562-11.78711 12.706265-.00043 23.006715 10.75649 23.005865 24.02539-.00019 13.26814-10.30033 24.02386-23.005865 24.02343-8.11828-.0112-15.62986-4.48997-19.76562-11.78515-4.13576 7.29518-11.64734 11.77393-19.76562 11.78515z" opacity=".5"/></svg>