<svg xmlns="http://www.w3.org/2000/svg" height="191.63603" width="178.33372"><path d="M170.49003 0c-1.10071 0-4.41638 2.456715-5.09375 3.21875-.67736.762035-.59681 1.511191-1.0625 2.78125-.45553 1.242351-.29174 2.826032-1.15625 4.28125-.25534.143522-.44689.259096-.59375.3125-.58743.213617-1.07983-.306187-3.75.28125-2.67017.587436-3.87842 1.914485-9.21875 4.53125-5.34034 2.616764-8.72452 2.669622-14.8125 5.5-6.08798 2.830377-9.07383 4.594496-14.09375 6.25-5.01991 1.655504-11.75182.633235-18 3.25-2.35445.986049-4.037487 3.515844-4.687497 4.625l-2.0625-3.8125s1.89693-1.394418 2.625-2.40625c.7532-1.046772 1.29407-2.513655 1.531247-3.78125.36843-1.968848.0937-5.8125.0937-5.8125s.45238-.239814.625-.46875c.62336-.826792.0625-2.84375.0625-2.84375s.42156.150198.9375-.0625c.6564-.270601.375-.71875.375-.71875 1.03431.34477 2.6118-.984713 2.5625-1.625-.0493-.640287-.625-1.15625-.625-1.15625s.7368.202111.6875-1.71875c-.0493-1.92086-3.34375-5.25-3.34375-5.25-.52714.240491-1.03592.294123-1.687497 1.28125 0 0-1.27241-.84375-2.75-.84375-1.47758 0-2.875.71875-2.875.71875S93.172393 5.25 90.364983 5.25s-3.0625 1.09375-3.0625 1.09375-.73165-.24524-2.40625-.34375c-1.67459-.09851-2.78125.53125-2.78125.53125s-2.20889.258148-4.03125 2.03125c-1.82235 1.773102-3.0493 5.136884-3 7.15625.0493 2.019367 1.3125 3.84375 1.3125 3.84375s-3.13149 3.10344-3.03125 4.28125c.0975 1.145677 2.3125 1.03125 2.3125 1.03125s-.40407 1.242427-.15625 1.78125c.15232.331182.62741.388272.78125.71875.1876.402965-.16773.838372 0 1.25.14046.344695.677.416267.75.78125.14776.738793-.0625 2.25-.0625 2.25-.02.921457 1.28836 1.50534 2.03125 1.53125l4.25.15625c.8824.03078 2.2488 1.811531 2.3125 3.1875l.21875 4.625-5.5 4.53125c-1.79026-.01502-4.89803.02212-7.875.40625-4.43379.572101-3.01096 1.830949-8.875 2.59375-3.624002.471414-6.131493.59535-9.46875.5-3.337257-.09535-3.784966-.514825-8.21875-.5625-4.433784-.04767-22.916367 1.0593-26.96875 1.25-4.052384.190701-5.253457.406488-7.15625.9375-2.0500294.572102-1.9579724.8093-3.5312504 1-1.573278.190701-5.862199.108575-6.625.15625-.762802.04768-2.607729.625423-.84375 1.53125 1.763978.905826 5.625.625 5.625.625s.428622 1.897096 2.8125 1.9375c2.0502534.03475 3.0937504-.5625 3.0937504-.5625 1.191877.333726 2.529319.5625 5.4375.5625 4.052384 0 5.4375-1.90625 5.4375-1.90625s8.243692 1.284873 12.34375 2c4.100058.715126 5.794567 1.1875 9.65625 1.1875 3.861682 0 7.9375-.625 7.9375-.625s5.036567.59375 9.375.59375c3.969812 0 13.32711-.184833 15.03125-.21875-.40847 1.763798-1.79059 8.13298-.78125 10.96875 1.16796 3.2814 5.23523 4.06749 5.875 4.34375 2.44715 1.05672 5.2504 8.22714 8.03125 10.0625 2.78084 1.83536 7.9909 5.4697 9.937497 7.75 1.12846 1.32191 2.77962 3.57107 3.96875 5.25.86213 1.21724.5 2.53125.5 2.53125 2.18515.0147 4.37972-2.75704 6.3125-5.1875l4.65625 2.9375c-.28478 24.4734 1.46286 48.9641 4.96875 73.4375.17882.007.35384-.006.53125 0 .0411 1.90294.0641 4.28437 0 5.84375-.10376 2.5249-.10524 6.96935-4.84375 8.90625-4.73851 1.93691-8.41261.96479-10.9375 2.625-2.5249 1.66021-3.23727 3.52153-1.75 4.59375 1.48727 1.07221 7.99967.0713 10.59375-.34375 2.59407-.41506 2.81764-.7679 5.03125-.90625 2.21361-.13835 8.6626.6144 11.1875-1.21875 2.5249-1.83314-.0571-4.75605-.4375-6.3125-.49934-2.04273-.41626-3.25422-.3125-6.125.0703-1.9461.55081-5.35847.90625-7.84375 1.45386-.38729 2.75147-.90738 3.84375-1.65625 0 0-3.89522-20.86504-2.84375-32.71875 1.72556-19.45307 7.4375-43.5625 7.4375-43.5625 15.80666-7.14521 35.55061-23.92209 36.28125-27.3125.92059-4.271879.59987-24.915012 1.5-25.65625.8832-.727299 1.1875-2.34375 1.1875-2.34375-1.62319-1.522605-3.57484-2.698091-5.90625-3.40625.0527-1.865018.22613-8.609755.25-14.40625.64397.0153 1.21011-.110215 1.1875-.5625-.0368-.736079-.74244-1.161972-1.1875-1.375-.00029-.09861.00042-.215023 0-.3125.47275-.265522 1.21875-.981677 1.21875-2.9375 0-1.34443-.47403-2.182069-1.375-2.65625-.38143-5.00984-.95826-9.5-2.03125-9.5zm-10 16.375c-.0883.428695-.14279.846291-.15625 1.25-.0847 2.540118 3.71875 5 3.71875 5l-1.25 8.6875c-.59061.08681-1.18957.188516-1.8125.3125l-.34375 19.25s-.84375 1.61089-.84375 3.125c0 1.514109.84375 3.625.84375 3.625l-24.625 11.4375s-2.44826-1.01668-8-.34375c-5.55173.67294-7.90625 1.90625-7.90625 1.90625l-1-1.875c-.54374.31372-1.31253.47375-2.28125.46875l.0937-2.4375c-.60207.224928-1.13757.470895-2.25.59375 0 0-3.90186-2.678719-5.34375-5.5625s-3.03279-10.973179-2.5-14.4375c.5328-3.46432 2.78318-5.059286 4.8125-6.875 2.02933-1.815714 4.31666-1.591282 11.3125-5.0625 6.99589-3.471218 11.10545-3.419191 19.06255-7.53125 6.92443-3.578398 15.53777-9.913731 18.46875-11.53125z" opacity=".5"/></svg>