<svg xmlns="http://www.w3.org/2000/svg" height="177.09375" width="169.59375"><path d="M169.59375 0l-39.8125 39.78125-5.5625 2.40625-25.4375 25.4375c-9.53584 9.53584-28.73315 8.17368-39.74362 17.58262-7.981824 6.82083-24.35013 25.51113-24.35013 25.51113l.5625 3.3125-9.25 9.25.125 6.03125L0 155.4375v21.65625l32.28125-32.28125 28.25 9.9375 1.75-3.28125 13.0625 5.59375v10.46875s2.3257.1875 4.375.1875c26.75537 0 49.28125-20.99463 49.28125-47.75 0-2.5099.85936-13.85936 14.03125-27.03125l26.5625-26.5625v-27l-4.96875 4.96875h-8.5V35.875l13.46875-13.5zm-42.125 66.3125h9.34375v9.34375l-16 16h-9.34375V82.3125zM74.78125 83.75L75.5 89.15625c-9.67038 1.31709-17.91633 7.09767-22.625 15.1875l-4.71875-2.78125c5.544192-9.50977 15.24571-16.27387 26.625-17.8125zm12.625.46875c11.68627 2.50074 21.28817 10.6017 25.90625 21.34375l-5 2.15625C104.38675 98.58246 96.18537 91.69304 86.25 89.5625zm-7.6875 6.40625c16.20659 0 29.34375 13.13716 29.34375 29.34375S95.92534 149.3125 79.71875 149.3125 50.375 136.17534 50.375 119.96875 63.51216 90.625 79.71875 90.625zm0 1.90625c-15.14499 0-27.40625 12.29251-27.40625 27.4375S64.57376 147.375 79.71875 147.375s27.4375-12.26126 27.4375-27.40625-12.29251-27.4375-27.4375-27.4375zm0 4.625c12.59713 0 22.8125 10.21537 22.8125 22.8125s-10.21537 22.8125-22.8125 22.8125-22.8125-10.21537-22.8125-22.8125 10.21537-22.8125 22.8125-22.8125zm34.65625 16.0625c.42269 2.1837.65625 4.4431.65625 6.75 0 19.49758-15.81492 35.3125-35.3125 35.3125-1.99171 0-3.94242-.18288-5.84375-.5l.5-2.9375c1.73598.28825 3.52573.4375 5.34375.4375 17.85209 0 32.34375-14.46041 32.34375-32.3125 0-2.11955-.20382-4.1821-.59375-6.1875zm-66.9375 5c-.03111.58149-.03125 1.16072-.03125 1.75 0 9.18906 3.846967 17.46148 10 23.34375l-2.0625 2.15625c-6.67478-6.39559-10.86279-15.37705-10.90625-25.34375z" opacity=".5"/></svg>