<svg xmlns="http://www.w3.org/2000/svg" height="179.09206" width="160.62685"><path d="M61.336299 10.654197c-11.534182 10.064989-13.06266 26.462645-2.45286 40.141304 12.71717 16.395606 38.04383 22.671086 56.545461 14.043636 8.07841-3.76703 13.50342-9.756844 16.01604-16.674715-9.38935-11.844999-21.4467-21.694147-34.262371-28.296233-12.02652-6.19555-24.52513-9.414926-35.84627-9.213992zM14.463431 50.923995c-.923211 2.792447-1.74594 5.676236-2.417149 8.643897-4.3660172 19.303755-3.1130722 41.457708 4.441325 60.545678 16.961828-18.62344 21.491083-45.870043-2.024176-69.189575zm63.836698 39.867342c-17.92278 8.35753-25.67695 29.661933-17.31942 47.584703 8.35753 17.92278 29.66193 25.67695 47.584711 17.31942 17.92277-8.35753 25.67694-29.66192 17.31941-47.5847-8.35753-17.922783-29.661931-25.676943-47.584701-17.319423zm73.112001-27.81319c21.47498 46.053233 3.66768 90.389073-35.32327 108.570853-38.990951 18.18178-84.400468 3.32442-105.875443-42.72881C-11.261559 82.766947 2.5538698 21.454025 38.321099 4.7754917 74.088329-11.90304 129.93716 16.924909 151.41213 62.978147z" opacity=".5"/></svg>