<svg xmlns="http://www.w3.org/2000/svg" width="449.79166mm" height="396" viewBox="0 0 449.79166 104.775">
    
  <defs>
    <linearGradient id="container-gradient">
      <stop offset="0%" stop-color="#d81403" />
      <stop offset="30%" stop-color="#d87418" />
      <stop offset="100%" stop-color="#cca207" />
    </linearGradient>

    <linearGradient id="text-gradient" x1="100%" y1="100%">
       <stop offset="0%" stop-color="#d81403">
        <animate attributeName="stop-color" values="#d81403; #d87418; #cca207; #d81403;" dur="2s" repeatCount="indefinite"></animate>
      </stop>
      <stop offset="50%" stop-color="#d87418">
        <animate attributeName="stop-color" values="#d87418; #cca207; #d81403; #d87418;" dur="2s" repeatCount="indefinite"></animate>
      </stop>
      <stop offset="100%" stop-color="#cca207">
        <animate attributeName="stop-color" values="#cca207; #d81403; #d87418; #cca207;" dur="2s" repeatCount="indefinite"></animate>
      </stop>
    </linearGradient>
  </defs>

  <g fill="none">
    <path d="M.07087 63.811833L449.79166 0v104.775003H0z"/>
    <path d="M449.79166 81.296873L0 99.191283l.0119-30.62256 449.77978-57.203728z"  fill="url(#container-gradient)" />
    <path d="M28.707291 93.794793l22.092708-35.05729L417.95609 10.482311l-11.5995 64.358502z" />
    <path d="M28.707291 93.794793l22.092708-35.05729L417.95609 10.482311l-11.5995 64.358502z" fill="url(#text-gradient)" mask="url(#text-mask)" />
    <mask id="text-mask">
      <g fill="white">
        <path d="M67.534895 62.573953l-14.552083 25.06928 5.291667-.33068 5.291667-9.39276-2.116667 9.3927 6.548437-.26457 1.719792-10.71563c11.125382-8.59462 13.498135-17.5222-2.182813-13.75834z"/>
        <path d="M66.807291 72.231253c4.426094-.0722 6.547556-4.50836 2.182812-4.16719z"/>
        <path d="M69.733977 86.649613l14.03165-25.72469 13.470385-1.49671-3.036867 5.87108-8.325446.8419-1.496709 3.36759 6.735192-.3274-3.417692 6.05582-7.296459.74836-2.151519 3.83532 8.56263-.26929-3.324147 6.16258z"/>
        <path d="M100.56016 79.143853l-6.173928.18709-4.490127 5.79975-5.381963.339 20.816778-27.37332 7.10937-.74835-7.29646 26.94077-6.437534.35245 1.853864-5.49739"/>
        <path d="M99.718258 72.408663l4.583672-6.2207-1.44993 6.2207z"/>
        <path d="M106.75937 83.806773l14.22136-27.71511c22.66068-5.470267 16.5183 9.03216 9.32656 18.91776-4.63455 5.9061-11.86906 9.40724-23.54792 8.79736z"/>
        <path d="M116.74739 76.398433c14.43614-3.43899 14.88645-17.0557 7.47448-14.55208z"/>
        <path d="M134.89093 81.716323l4.63044-9.72861 2.09686-18.145005 6.87916-.595312-1.4552 10.054167 9.3927-11.178646 7.07761-.727604-17.13177 20.90208-4.63021 9.32657z"/>
        <path d="M169.46562 64.161463l-1.35599 3.63801-3.1292.10656-5.96585 12.59345-4.23333.0661 5.77807-12.29173-3.00362.0241 1.26044-3.70652 10.64948-.42994"/>
        <path d="M168.0524 79.985753c-6.66431-6.14216 6.4369-21.33503 13.31353-16.6646 1.07868 1.01266 1.3046 3.71286.32055 6.86583-1.40463 3.16454-3.56213 5.88948-6.89889 8.62946-1.60898 1.40304-4.20936 1.87644-6.73519 1.16931"/>
        <path d="M184.21614 78.118233l13.69219-31.551567 21.03438-2.447395-3.43959 8.003646-12.7.661458-1.85208 5.622398 10.12031-.33073-2.97656 7.54062-10.84792.52917-4.7625 11.77396z"/>
        <path d="M210.01302 76.663023l13.49374-33.271357 8.9297-.859895-13.16302 33.800522z"/>
        <path d="M258.56405 49.940103l7.93751-6.085416c-.36336-4.522883-5.38393-6.430269-12.62016-5.137651-7.91641 1.823407-14.9394 4.94189-20.33984 14.320574-3.02269 6.914003-7.35428 15.200473-1.23739 21.178013 6.5492 4.22158 20.38634.7571 25.86302-5.22552l5.75468-16.536457-15.61041 1.190625-3.10886 8.202082 6.61459-.33073-1.78594 4.23334c-1.26588.85382-2.83948 1.5025-5.15938 1.65364-5.16734.0185-5.06783-4.90154-4.23333-8.99583 1.56611-4.309852 4.19754-8.017397 7.67292-10.649481 3.26297-1.65016 8.07031-1.941477 10.25259 2.182811z"/>
        <path d="M262.95312 72.969923l12.25432-36.10811 10.94468-1.216076-3.83532 12.628485 10.19633-.841899 4.39659-13.096207 11.88013-1.403165-11.22532 38.259632-12.62849.46772 4.95785-14.87355-10.85114.74836-4.49013 14.87355z"/>
        <path d="M314.12656 69.386983l7.60677-29.501045-10.4902 1.023824 2.35426-8.630596 34.85886-4.365624-1.92626 8.957086-11.76593 1.213323-8.13594 30.761832z"/>
        <path d="M172.24468 69.774985c1.50198-1.948814 2.83444-3.721221 4.29709-3.280225 1.52363.604277 1.19604 3.205511.0328 4.953141-1.38703 2.184818-3.64161 4.262841-4.75633 3.969074-1.73615-1.126026-.90476-3.603929.42644-5.64199z"/>
        <path d="M349.33328 53.893529l5.57393-26.853872 13.0962-1.496708-7.20859 27.39244z"/>
        <path d="M344.89794 67.263723l2.52571-10.47696 13.65748-1.12254-2.05798 10.85114z"/>
      </g>
    </mask>
  </g>
</svg>