<svg xmlns="http://www.w3.org/2000/svg" height="180" width="171.3125"><path d="M84.0267 90a26.442377 26.442377 0 01-26.44238 26.44238A26.442377 26.442377 0 0131.141943 90 26.442377 26.442377 0 0157.58432 63.55762 26.442377 26.442377 0 0184.0267 90zM81.3125 0A90 90 0 00.123047 51.421875 69.237846 69.237846 0 0157.58398 20.761719 69.237846 69.237846 0 01126.82227 90a69.237846 69.237846 0 01-69.23829 69.23828A69.237846 69.237846 0 010 128.35938 90 90 0 0081.3125 180a90 90 0 0090-90 90 90 0 00-90-90z" opacity=".5"/></svg>