<?xml version="1.0" encoding="UTF-8" standalone="no"?>
<!-- Created with Inkscape (http://www.inkscape.org/) by Toomai Glittershine for SmashWiki -->

<svg
   xmlns:dc="http://purl.org/dc/elements/1.1/"
   xmlns:cc="http://creativecommons.org/ns#"
   xmlns:rdf="http://www.w3.org/1999/02/22-rdf-syntax-ns#"
   xmlns:svg="http://www.w3.org/2000/svg"
   xmlns="http://www.w3.org/2000/svg"
   xmlns:sodipodi="http://sodipodi.sourceforge.net/DTD/sodipodi-0.dtd"
   xmlns:inkscape="http://www.inkscape.org/namespaces/inkscape"
   id="svg2"
   version="1.1"
   height="180"
   width="171.3125"
   viewBox="0 0 171.3125 180"
   sodipodi:docname="bayonetta.svg"
   inkscape:version="0.92.3 (2405546, 2018-03-11)">
  <defs
     id="defs7" />
  <sodipodi:namedview
     pagecolor="#ffffff"
     bordercolor="#666666"
     borderopacity="1"
     objecttolerance="10"
     gridtolerance="10"
     guidetolerance="10"
     inkscape:pageopacity="0"
     inkscape:pageshadow="2"
     inkscape:window-width="1920"
     inkscape:window-height="1017"
     id="namedview5"
     showgrid="false"
     inkscape:zoom="0.921875"
     inkscape:cx="81.3125"
     inkscape:cy="90"
     inkscape:window-x="-8"
     inkscape:window-y="-8"
     inkscape:window-maximized="1"
     inkscape:current-layer="svg2" />
  <metadata
     id="metadata7">
    <rdf:RDF>
      <cc:Work
         rdf:about="">
        <dc:format>image/svg+xml</dc:format>
        <dc:type
           rdf:resource="http://purl.org/dc/dcmitype/StillImage" />
        <dc:title />
      </cc:Work>
    </rdf:RDF>
  </metadata>
  <path
     id="mainsymbolpath"
     style="opacity:0.5;fill:#000000;fill-opacity:1;stroke:none"
     d="M 84.0267,90 A 26.442377,26.442377 0 0 1 57.58432,116.44238 26.442377,26.442377 0 0 1 31.141943,90 26.442377,26.442377 0 0 1 57.58432,63.55762 26.442377,26.442377 0 0 1 84.0267,90 Z M 81.3125,0 A 90,90 0 0 0 0.123047,51.421875 69.237846,69.237846 0 0 1 57.58398,20.761719 69.237846,69.237846 0 0 1 126.82227,90 69.237846,69.237846 0 0 1 57.58398,159.23828 69.237846,69.237846 0 0 1 0,128.35938 90,90 0 0 0 81.3125,180 a 90,90 0 0 0 90,-90 90,90 0 0 0 -90,-90 z"
     inkscape:connector-curvature="0" />
</svg>
