<?xml version="1.0" encoding="UTF-8" standalone="no"?>
<!-- Created with Inkscape (http://www.inkscape.org/) by Toomai Glittershine for SmashWiki -->

<!-- Mostly copied from the official website, but I had to add a vertex that was missing for some reason (a very obvious one: the bat's left tip). -->

<svg
   xmlns:dc="http://purl.org/dc/elements/1.1/"
   xmlns:cc="http://creativecommons.org/ns#"
   xmlns:rdf="http://www.w3.org/1999/02/22-rdf-syntax-ns#"
   xmlns:svg="http://www.w3.org/2000/svg"
   xmlns="http://www.w3.org/2000/svg"
   xmlns:sodipodi="http://sodipodi.sourceforge.net/DTD/sodipodi-0.dtd"
   xmlns:inkscape="http://www.inkscape.org/namespaces/inkscape"
   id="svg2"
   version="1.1"
   height="197.65907"
   width="183.31805"
   viewBox="0 0 183.31805 197.65907"
   sodipodi:docname="castlevania.svg"
   inkscape:version="0.92.3 (2405546, 2018-03-11)">
  <defs
     id="defs7" />
  <sodipodi:namedview
     pagecolor="#ffffff"
     bordercolor="#666666"
     borderopacity="1"
     objecttolerance="10"
     gridtolerance="10"
     guidetolerance="10"
     inkscape:pageopacity="0"
     inkscape:pageshadow="2"
     inkscape:window-width="1920"
     inkscape:window-height="1017"
     id="namedview5"
     showgrid="false"
     inkscape:zoom="0.921875"
     inkscape:cx="91.591514"
     inkscape:cy="98.76131"
     inkscape:window-x="-8"
     inkscape:window-y="-8"
     inkscape:window-maximized="1"
     inkscape:current-layer="svg2" />
  <metadata
     id="metadata7">
    <rdf:RDF>
      <cc:Work
         rdf:about="">
        <dc:format>image/svg+xml</dc:format>
        <dc:type
           rdf:resource="http://purl.org/dc/dcmitype/StillImage" />
        <dc:title />
      </cc:Work>
    </rdf:RDF>
  </metadata>
  <path
     id="mainsymbolpath"
     style="opacity:0.5;fill:#000000;fill-opacity:1;stroke:none"
     d="m 181.25125,146.55472 -0.20283,-1.90486 -2.75586,-4.66117 h -1.49964 l -0.28352,-4.66117 -0.76987,-1.58076 -2.837,-0.28352 -1.4185,-2.83699 -5.43103,-2.06714 -6.44568,-15.80676 -3.44506,8.83462 -3.28278,5.06639 h -0.97271 l -0.89158,3.48563 -2.75586,-9.32189 h -2.18882 l -1.37794,-2.39121 h -1.29679 v -0.60805 h 0.44579 l 2.14826,-3.32336 v -8.63223 h 2.43402 l -0.56749,-1.70248 0.6892,-1.13498 -1.94542,-8.02328 -0.72977,-1.13498 0.0812,-1.4185 -7.70055,-28.290191 V 49.283218 h -0.77347 l -0.81134,0.08116 v 15.077468 l -1.25624,5.106961 0.32408,1.985983 -1.33736,2.06712 -5.3481,19.77695 -10.49743,-0.44579 V 73.92645 l -1.25624,-0.16226 -5.26876,-8.428967 0.48635,-8.673263 2.14825,-2.5129 h 1.21703 v -9.686543 h -1.09442 V 39.59896 h 2.75587 L 106.55545,6.282957 V 3.648349 L 105.70443,0.811342 104.97468,0 V 6.120243 L 93.948984,39.554792 h 2.87756 v 4.863557 h -1.13318 v 1.336456 h -7.61761 l 0.12171,-0.769876 1.45906,-1.580769 v -5.147519 h 3.03983 L 85.117064,17.505183 V 9.965552 l -1.58077,0.486362 V 17.7878 l -3.85028,11.794233 0.16227,0.445792 -1.13498,1.823714 -2.75587,6.445671 h 3.03985 v 5.147519 l 1.45906,1.58077 1.29679,8.428961 h 0.6892 l 0.48635,6.1608 0.0406,0.445781 0.40567,4.782417 h 0.64412 v -4.782417 h 1.74258 l 0.48636,-6.606581 h 0.72976 l 0.40567,-2.755868 2.06712,-2.310075 c 1.25623,-0.04058 2.59405,-0.04058 3.85027,0 l 2.43404,2.715746 v 3.0804 h 1.09441 l 2.14825,2.512912 0.48635,8.673263 -5.71456,9.160062 -0.81134,0.52692 v 5.06639 h -1.41849 v -0.81134 h -1.25624 v 0.81134 h -1.09666 v -1.29679 h -1.25623 v 1.29679 h -1.13498 v -0.52692 h -1.25623 v 0.52692 h -1.13498 v -1.29679 h -1.25623 v 1.29679 h -1.13723 v -0.81134 h -1.25623 v 0.81134 h -1.13272 v -0.32408 h -1.25624 v 0.32408 h -1.13498 v -0.81134 h -1.25622 v 0.81134 h -1.13498 v -0.81134 h -1.25758 v 0.81134 h -1.13498 v -1.29679 h -1.09442 v 1.29679 h -1.01327 l -4.4989,-18.319686 -0.60806,-1.337364 0.0406,-0.932142 L 61.483598,47.0516 V 34.447843 h -0.689197 l -0.648628,0.769864 v 12.523987 l -6.160795,28.411896 0.202837,0.0406 -1.175547,4.01164 -2.229391,9.11949 h 2.10769 v 9.48416 l 2.148256,2.26951 h -3.363919 l 1.25623,3.76913 0.202835,9.80824 -2.675178,1.33737 -0.56749,10.53799 h -4.336629 l -0.608057,-9.07892 0.445787,-0.44579 v -0.97182 h 1.70247 v -10.13277 l -1.377932,-2.02835 -0.28352,-1.66191 H 44.987632 L 42.435056,90.37873 42.070402,90.33813 41.826999,87.42 39.638626,76.63996 V 69.506443 L 38.908868,66.466612 H 38.665465 V 76.76165 l -2.917681,14.4284 -0.08114,2.02835 -0.526922,0.85102 -1.784504,8.10441 h -0.648624 l -0.364654,1.70247 -1.175546,1.98599 v 10.13277 h 1.742585 v 6.48489 l 0.567489,1.4185 v 8.552 l -1.175546,0.12171 -2.391209,1.25623 -2.958699,0.16226 -0.769874,0.4458 -0.486355,1.01328 -6.363185,1.0944 -1.945421,-0.44579 -2.675179,0.81134 -1.661901,-0.0812 -1.217015,0.64862 0.08114,3.12097 -4.782417,9.60585 -3.282786,0.64863 -1.094412,4.90411 -0.891576,0.3241 L 0,163.65824 l 1.337365,1.5402 -0.648624,5.91741 0.526923,-0.48636 0.648623,0.0812 c -0.364654,3.36392 2.028358,7.4576 2.028358,7.4576 -0.851009,-3.52619 0.324087,-11.18618 2.229391,-12.76695 -1.783152,2.63462 -0.97271,7.61762 -0.97271,7.61762 0,0 0.283519,-2.87756 0.851009,-3.32335 l 0.324086,0.0812 c 0.14959,-0.28439 0.373825,-0.52265 0.648624,-0.6892 0.729758,-0.2434 0.932144,2.99927 0.932144,2.99927 0.12353,-0.58782 0.204872,-1.18373 0.243403,-1.78315 0,1.78315 -0.162269,3.93141 0.648624,5.55274 0,0 -0.283521,-2.02835 0.364653,-3.28279 0.648624,-1.29679 1.094412,-2.02835 1.094412,-2.02835 l -0.08114,1.70246 1.134979,1.17555 0.486356,0.85102 c 0,0 1.742585,5.02582 1.256229,6.20091 1.377931,-1.78315 2.148257,-10.86298 2.148257,-10.86298 l 1.702468,1.70247 0.811343,6.1608 0.811344,2.6346 0.364654,0.20284 1.094412,3.28279 c 0,-1.13498 -0.121702,-5.51218 -0.121702,-5.51218 0,0 1.742586,11.389 3.850274,15.92847 -0.891575,-1.90485 -1.134978,-11.5107 -1.134978,-11.5107 0,0 0.364653,3.85026 0.729758,4.37719 l 1.661901,-7.01181 2.148257,-2.51291 0.851009,-7.82225 1.5402,-0.97271 0.648624,-5.14752 3.728574,10.74038 2.188823,1.6619 1.945421,7.5793 2.350642,1.90485 0.729758,-0.36465 1.134979,-5.14752 3.931408,5.75513 2.229392,1.49963 5.512177,-0.81134 6.12024,2.71575 1.622683,-0.24296 1.985991,0.851 3.36392,8.10623 2.2695,-4.74185 1.05385,1.29679 1.17555,0.20284 6.04,-2.18882 2.06712,0.24295 3.16154,-2.59404 0.32408,1.17554 8.94821,-1.49512 9.565286,-5.43104 1.25624,1.37793 h 3.85026 c 0,0 3.44505,-8.02329 3.48562,-8.02329 l 1.45907,-0.1217 4.13424,-1.90485 2.35065,2.10769 10.05164,-5.51217 1.86429,3.72856 0.89157,-1.37793 1.37793,5.34991 3.72857,-8.02328 h 3.44822 l 5.87682,-8.34918 0.3241,-2.31007 0.40567,-0.28352 0.76986,0.16226 0.48636,-1.49963 3.40449,-2.02835 h 1.49963 l 0.52693,0.36465 0.64862,0.64863 2.9587,0.44578 3.2003,3.32336 1.6619,-1.25623 1.6619,-3.72858 1.09441,-0.28351 -0.56748,-4.13425 c 0,0 3.24221,1.17554 3.72856,8.10622 0.48637,6.93067 1.25623,11.26866 1.25623,11.26866 1.48093,-4.35288 2.49981,-8.84948 3.03984,-13.41556 -0.20283,2.10769 0.56749,4.94468 1.49963,5.55274 -0.76987,-3.40448 1.90486,-5.7957 1.49963,-10.05165 0.74612,1.92233 0.9289,4.01751 0.52692,6.04 0.82861,-1.01751 1.27327,-2.29386 1.25624,-3.60597 0.94273,0.98157 1.52806,2.2516 1.6619,3.60597 0.85101,-1.78315 0.44579,-4.66117 1.5402,-6.44567 -0.19228,0.89259 -0.12183,1.82178 0.20283,2.67518 0.48386,-2.59183 1.75815,-4.97034 3.64789,-6.80897 z M 71.536014,84.94851 l 2.10769,-2.31006 c 4.74185,-0.36466 12.15887,-0.12171 16.69834,0.28351 l 2.63461,2.9587 v 4.90367 h -5.63433 l -0.81134,0.76988 -0.40567,-0.76988 H 70.522734 V 89.2847 h 2.10769 z m 10.33516,31.93808 -1.17555,-4.70173 h -8.30861 l -0.48635,-4.21493 h -1.17555 l -0.20283,-3.2003 1.21701,-3.76914 h -3.36391 l 2.14824,-2.31007 v -1.70247 c 0.72977,-0.93214 1.74259,-2.14826 2.51292,-2.99927 4.41731,-0.40567 11.59184,-0.68919 16.33369,-0.851 l 3.56676,3.97197 v 4.29607 h -0.93214 l -1.78316,1.01327 v 3.16153 l -1.37793,1.49964 h -0.0812 v 0.0812 l -0.0406,0.0406 v 0.76986 l 0.0406,0.0812 v 9.7271 l -1.82373,-0.20284 z m 41.948686,1.45907 -1.33736,-1.49964 -0.16227,-1.58076 -2.512,-1.17735 -0.97271,-6.07967 0.81134,-0.40567 1.21701,-4.90412 -1.0944,-1.21701 h -1.21703 v -1.58077 l 3.89085,-4.29607 c 1.17554,-0.0812 2.43403,-0.12169 3.60597,-0.12169 l 1.86429,2.06712 -2.26951,8.30861 h 3.28279 v 8.63494 l 2.14825,3.32335 h 0.44578 v 0.5675 z M 29.988472,15.195534 30.758347,15.39837 c 0,0 -1.459066,0.729306 -1.661901,0.851003 -0.405222,1.134529 -1.823721,10.983787 3.120967,14.226005 0.121701,-1.378383 1.499636,-3.56675 1.459066,-4.6206 0.932145,0.851463 0.972715,3.68801 0.891575,4.093681 l 0.891576,0.486349 c 0,0 2.755863,-1.783605 3.931409,-1.175547 -1.133176,0.526932 -2.024752,2.553481 -3.200298,3.404484 4.6206,1.175099 13.132041,-3.688446 13.618397,-6.64715 l -0.283519,-1.702466 c 3.769139,2.635965 7.011358,10.011076 7.417029,15.887902 -3.810158,-4.741848 -11.105486,-2.391203 -13.618397,1.5402 -1.580767,-3.769137 -7.781684,-4.539461 -10.294594,-1.823714 0.526923,-2.107689 -0.770325,-2.148258 -1.702468,-1.5402 -0.324086,0.202835 -3.769141,2.715746 -3.769141,2.715746 0,0 1.499633,-3.525743 1.661901,-4.417316 0.243404,-1.256686 -1.215662,-2.148258 -2.91813,-0.162266 0.164071,-3.039382 -1.456813,-6.646713 -7.617613,-6.200921 0.403595,-5.57443 -5.285957,-8.930349 -11.655325,-8.123916 8.554485,-6.762705 15.917195,-7.665847 22.959591,-6.99411 z"
     inkscape:connector-curvature="0" />
</svg>
