<svg xmlns="http://www.w3.org/2000/svg" height="171.73892" width="209.47571"><path d="M87.302722 79.20454c0 9.62908 7.80592 17.435 17.435128 17.435 9.62921 0 17.43513-7.80592 17.43513-17.435 0-9.62908-7.80592-17.435-17.43513-17.435-9.629208 0-17.435128 7.80592-17.435128 17.435zm11.5242 51.49797v35.48848s.17194 5.54794-5.75808 5.54794c-5.93003 0-5.75809-5.54794-5.75809-5.54794s.0841-36.65385 0-39.63797c-.001-1.33008-.73587-2.55108-1.91045-3.17517-2.20951-1.22219-4.33255-2.59457-6.35415-4.10746-1.08565-.89056-2.08945-1.87646-2.999408-2.94591l-9.529314 6.36943c1.005807 2.34512 1.740362 4.79748 2.189373 7.30938.416479 2.33179.623585 4.69614.618985 7.06483.000786 2.10477-.152459 4.20678-.458507 6.28919-.236896 1.57039-.477613 2.55236-.523463 2.73959-.926082 3.69325-4.670958 5.93632-8.364111 5.00987-3.693154-.92646-5.935853-4.67156-5.009023-8.36462 0 0 .02293-.0344.02293-.10698.370228-1.83367.553288-3.70021.546388-5.57087.01166-2.08657-.239954-4.16627-.748895-6.18985-.271206-1.05673-.635619-2.08731-1.088955-3.07964-.461638-1.00742-1.029044-1.96291-1.692657-2.85039-1.351347-1.81523-3.024646-3.36679-4.936597-4.57743-1.27253-.80125-2.624717-1.46838-4.034866-1.99069-1.670203-.62009-3.402037-1.05946-5.165851-1.31057-.653373-.0916-1.169194-.13755-1.490149-.15665h-.362985c-3.810922-.0139-6.889057-3.11445-6.875337-6.92537.01371-3.81092 3.114083-6.88921 6.925007-6.87571 1.022237.014 2.042825.0867 3.056716.21779 3.750786.46266 7.412575 1.47725 10.866627 3.01087 2.374974 1.05615 4.622097 2.37904 6.69803 3.94316.799841.60115 1.581851 1.25453 2.34603 1.96012l9.785313-6.53755c-2.628776-4.63475-4.558328-8.81863-5.100895-9.9649-.649594-1.53437-2.154682-2.53043-3.820896-2.52943 0 0-20.269851-.0153-28.324298-.17576-8.054448-.16048-15.123105-11.32896-16.078329-13.08657-.955224-1.75761-1.379343-3.49994-.477612-4.84107.901732-1.34114 3.343284-.95905 3.343284-.95905s36.038686.90935 39.584477.95905c3.545791.0497 3.075821-3.77887 2.017433-5.80012-1.058388-2.02125-4.084537-2.12824-4.084537-2.12824s-27.533373-3.33946-36.581254-4.82579C8.0577316 60.5203 2.4295516 48.385137 1.9442986 47.066927c-.485254-1.31821-1.34877598-5.20788-.485254-6.20896.863522-1.00107 3.190448-.49289 3.190448-.49289s47.0810744 7.04191 49.4653134 7.29026c2.384239.24836 2.846567-1.40226 2.632597-3.7865-.21397-2.38424-3.270686-3.43881-3.270686-3.43881s-35.599284-13.99976-40.975284-16.23116c-5.3760004-2.23141-7.4774924-7.74496-7.4774924-7.74496L.43886562 4.4066267s-1.138627-2.65934.252179-3.82089998c1.39080598-1.16155 4.11128398-.23689 4.11128398-.23689L74.804955 26.751227c3.996707 1.49779 3.950807 3.47701 3.950807 4.66531v9.78531c.0508 2.838161.82688 5.616135 2.25433 8.06973 1.00759 1.684043 2.27083 3.201223 3.74448 4.497203 0 0 .23689-11.795113 12.50579-17.285733h.12991l1.58949-23.01326S99.461192.62011672 104.73785.62011672c5.27666 0 5.75809 12.84967028 5.75809 12.84967028l1.58949 23.01326h.12991c12.2689 5.49062 12.50579 17.285733 12.50579 17.285733 1.47365-1.29598 2.73689-2.81316 3.74448-4.497203 1.42745-2.453595 2.20349-5.231569 2.25433-8.06973v-9.78531c0-1.1883-.0459-3.16752 3.95081-4.66531L204.67337.34883672s2.72048-.92466 4.11129.23689c1.3908 1.16155998.25218 3.82089998.25218 3.82089998l-4.58508 12.0472803s-2.10149 5.51355-7.47749 7.74496c-5.376 2.2314-40.97528 16.23116-40.97528 16.23116s-3.05672 1.05457-3.27069 3.43881c-.21397 2.38424.24836 4.03486 2.6326 3.7865 2.38424-.24835 49.46531-7.29026 49.46531-7.29026s2.32693-.50818 3.19045.49289c.86352 1.00108 0 4.89075-.48526 6.20896-.48525 1.31821-6.11343 13.453373-17.3545 15.283583-9.04788 1.48633-36.58126 4.82579-36.58126 4.82579s-3.02615.10699-4.08453 2.12824c-1.05839 2.02125-1.52836 5.84979 2.01743 5.80012 3.54579-.0497 39.58448-.95905 39.58448-.95905s2.44155-.38209 3.34328.95905c.90173 1.34113.47761 3.08346-.47761 4.84107-.95523 1.75761-8.02388 12.92609-16.07833 13.08657-8.05445.16048-28.3243.17576-28.3243.17576-1.66621-.001-3.1713.99506-3.8209 2.52943-.54256 1.14627-2.47211 5.33015-5.10089 9.9649l9.78531 6.53755c.76418-.70559 1.54619-1.35897 2.34603-1.96012 2.07594-1.56412 4.32306-2.88701 6.69803-3.94316 3.45405-1.53362 7.11584-2.54821 10.86663-3.01087 1.01389-.13111 2.03448-.20382 3.05672-.21779 3.81092-.0135 6.91129 3.06479 6.925 6.87571.0137 3.81092-3.06441 6.91145-6.87533 6.92537h-.36299c-.32095.0191-.83678.065-1.49015.15665-1.76381.25111-3.49565.69048-5.16585 1.31057-1.41015.52231-2.76234 1.18944-4.03487 1.99069-1.91195 1.21064-3.58525 2.7622-4.93659 4.57743-.66362.88748-1.23102 1.84297-1.69266 2.85039-.45334.99233-.81775 2.02291-1.08895 3.07964-.50895 2.02358-.76056 4.10328-.7489 6.18985-.007 1.87066.17616 3.7372.54639 5.57087 0 .0726.0229.10698.0229.10698.92683 3.69306-1.31587 7.43816-5.00902 8.36462-3.69316.92645-7.43803-1.31662-8.36412-5.00987-.0459-.18723-.28656-1.1692-.52346-2.73959-.30605-2.08241-.45929-4.18442-.45851-6.28919-.005-2.36869.20251-4.73304.61899-7.06483.44901-2.5119 1.18357-4.96426 2.18937-7.30938l-9.52931-6.36943c-.90996 1.06945-1.91376 2.05535-2.99941 2.94591-2.0216 1.51289-4.14464 2.88527-6.35415 4.10746-1.17458.62409-1.90923 1.84509-1.91045 3.17517-.0841 2.98412 0 39.63797 0 39.63797s.17194 5.54794-5.75809 5.54794c-5.93002 0-5.75808-5.54794-5.75808-5.54794v-35.48848s.35929-4.08072-5.91092-4.08072c-6.270198 0-5.910908 4.08072-5.910908 4.08072z" opacity=".5"/></svg>