<?xml version="1.0" encoding="UTF-8" standalone="no"?>
<!-- Created with Inkscape (http://www.inkscape.org/) by Toomai Glittershine for SmashWiki -->

<svg
   xmlns:dc="http://purl.org/dc/elements/1.1/"
   xmlns:cc="http://creativecommons.org/ns#"
   xmlns:rdf="http://www.w3.org/1999/02/22-rdf-syntax-ns#"
   xmlns:svg="http://www.w3.org/2000/svg"
   xmlns="http://www.w3.org/2000/svg"
   xmlns:sodipodi="http://sodipodi.sourceforge.net/DTD/sodipodi-0.dtd"
   xmlns:inkscape="http://www.inkscape.org/namespaces/inkscape"
   id="svg2"
   version="1.1"
   height="138.90649"
   width="188.26534"
   viewBox="0 0 188.26534 138.90649"
   sodipodi:docname="duck-hunt.svg"
   inkscape:version="0.92.3 (2405546, 2018-03-11)">
  <defs
     id="defs7" />
  <sodipodi:namedview
     pagecolor="#ffffff"
     bordercolor="#666666"
     borderopacity="1"
     objecttolerance="10"
     gridtolerance="10"
     guidetolerance="10"
     inkscape:pageopacity="0"
     inkscape:pageshadow="2"
     inkscape:window-width="1051"
     inkscape:window-height="480"
     id="namedview5"
     showgrid="false"
     inkscape:zoom="0.921875"
     inkscape:cx="94.140333"
     inkscape:cy="66.5"
     inkscape:window-x="0"
     inkscape:window-y="0"
     inkscape:window-maximized="0"
     inkscape:current-layer="svg2" />
  <metadata
     id="metadata7">
    <rdf:RDF>
      <cc:Work
         rdf:about="">
        <dc:format>image/svg+xml</dc:format>
        <dc:type
           rdf:resource="http://purl.org/dc/dcmitype/StillImage" />
        <dc:title />
      </cc:Work>
    </rdf:RDF>
  </metadata>
  <path
     id="mainsymbolpath"
     style="opacity:0.5;fill:#000000;fill-opacity:1;stroke:none"
     d="M 71.859083,2.5174091e-4 C 70.518563,0.00965174 69.407663,0.28251474 68.577833,0.87525174 63.266909,4.6687697 74.269093,17.194655 79.390333,32.937752 c 4.32986,13.310298 7.29859,30.404408 8.15625,35.624998 -4.9683,-0.42199 -8.86791,-0.80606 -10.25,-1.125 -4.93157,-1.13805 -12.891807,-8.90486 -16.875,-11.75 -3.983194,-2.84514 -8.541717,-9.4731 -21.25,-9.09375 -12.708283,0.37935 -13.105417,6.24643 -14.8125,9.28125 -1.707083,3.03481 -2.264631,5.31981 -6.4375,7.40625 -4.17287,2.08643 -13.4782411,-1.14676 -15.3750001,0.75 -1.89675903,1.89676 -4.906851,7.78421 0.59375,10.25 5.5006,2.46578 22.1596971,1.66817 24.5937501,2.0625 1.133936,0.1837 5.665141,2.16792 13.0625,3.875 7.397359,1.70709 16.971713,2.98042 19.4375,4.6875 2.465786,1.70709 9.45945,10.41 15.71875,15.53125 6.2593,5.12124 14.81783,12.70866 25.249997,16.3125 8.69372,3.00329 12.64558,5.72233 21.625,5.125 7.17601,5.33963 13.9951,10.8468 19.3125,17.03125 1.64464,-3.48648 4.395,-5.19129 7.4375,-6.40625 -1.34899,-3.20975 -1.00663,-6.4836 0.28125,-9.78125 -4.78999,-0.28394 -9.57681,-0.54932 -16.53125,-2.78125 11.13191,-3.74179 18.56169,-12.88608 23.4375,-17.59375 5.5006,-5.31093 26.5625,-19.15625 26.5625,-19.15625 l -2.46875,-0.5625 7.40625,-5.5 c 0,0 -9.12875,1.6875 -14.25,1.6875 -4.98343,0 -32.7148,-5.90091 -44.34375,-7.09375 C 131.72542,49.02282 123.97354,32.477576 119.39033,41.094002 115.02778,23.643822 96.651213,-0.25886426 95.702833,14.156502 92.342013,7.5949017 79.097883,-0.05054226 71.859083,2.5174091e-4 Z"
     inkscape:connector-curvature="0" />
</svg>
