<svg xmlns="http://www.w3.org/2000/svg" height="138.90649" width="188.26534"><path d="M71.859083.00025174c-1.34052.0094-2.45142.282263-3.28125.875-5.310924 3.79351796 5.69126 16.31940326 10.8125 32.06250026 4.32986 13.310298 7.29859 30.404408 8.15625 35.624998-4.9683-.42199-8.86791-.80606-10.25-1.125-4.93157-1.13805-12.891807-8.90486-16.875-11.75-3.983194-2.84514-8.541717-9.4731-21.25-9.09375-12.708283.37935-13.105417 6.24643-14.8125 9.28125-1.707083 3.03481-2.264631 5.31981-6.4375 7.40625-4.17287 2.08643-13.4782411-1.14676-15.3750001.75-1.89675903 1.89676-4.906851 7.78421.59375 10.25 5.5006 2.46578 22.1596971 1.66817 24.5937501 2.0625 1.133936.1837 5.665141 2.16792 13.0625 3.875 7.397359 1.70709 16.971713 2.98042 19.4375 4.6875 2.465786 1.70709 9.45945 10.41 15.71875 15.53125 6.2593 5.12124 14.81783 12.70866 25.249997 16.3125 8.69372 3.00329 12.64558 5.72233 21.625 5.125 7.17601 5.33963 13.9951 10.8468 19.3125 17.03125 1.64464-3.48648 4.395-5.19129 7.4375-6.40625-1.34899-3.20975-1.00663-6.4836.28125-9.78125-4.78999-.28394-9.57681-.54932-16.53125-2.78125 11.13191-3.74179 18.56169-12.88608 23.4375-17.59375 5.5006-5.31093 26.5625-19.15625 26.5625-19.15625l-2.46875-.5625 7.40625-5.5s-9.12875 1.6875-14.25 1.6875c-4.98343 0-32.7148-5.90091-44.34375-7.09375 2.05384-22.69618-5.69804-39.241424-10.28125-30.624998-4.36255-17.45018-22.739117-41.35286626-23.687497-26.9375C92.342013 7.5949017 79.097883-.05054226 71.859083.00025174z" opacity=".5"/></svg>