<?xml version="1.0" encoding="UTF-8" standalone="no"?>
<!-- Created with Inkscape (http://www.inkscape.org/) by Toomai Glittershine for SmashWiki -->

<svg
   xmlns:dc="http://purl.org/dc/elements/1.1/"
   xmlns:cc="http://creativecommons.org/ns#"
   xmlns:rdf="http://www.w3.org/1999/02/22-rdf-syntax-ns#"
   xmlns:svg="http://www.w3.org/2000/svg"
   xmlns="http://www.w3.org/2000/svg"
   xmlns:sodipodi="http://sodipodi.sourceforge.net/DTD/sodipodi-0.dtd"
   xmlns:inkscape="http://www.inkscape.org/namespaces/inkscape"
   id="svg2"
   version="1.1"
   height="183.79144"
   width="143.03111"
   viewBox="0 0 143.03111 183.79144"
   sodipodi:docname="final-fantasy-vii.svg"
   inkscape:version="0.92.3 (2405546, 2018-03-11)">
  <defs
     id="defs7" />
  <sodipodi:namedview
     pagecolor="#ffffff"
     bordercolor="#666666"
     borderopacity="1"
     objecttolerance="10"
     gridtolerance="10"
     guidetolerance="10"
     inkscape:pageopacity="0"
     inkscape:pageshadow="2"
     inkscape:window-width="1051"
     inkscape:window-height="480"
     id="namedview5"
     showgrid="false"
     inkscape:zoom="0.921875"
     inkscape:cx="71.662"
     inkscape:cy="91.69973"
     inkscape:window-x="0"
     inkscape:window-y="0"
     inkscape:window-maximized="0"
     inkscape:current-layer="svg2" />
  <metadata
     id="metadata7">
    <rdf:RDF>
      <cc:Work
         rdf:about="">
        <dc:format>image/svg+xml</dc:format>
        <dc:type
           rdf:resource="http://purl.org/dc/dcmitype/StillImage" />
        <dc:title />
      </cc:Work>
    </rdf:RDF>
  </metadata>
  <path
     id="mainsymbolpath"
     style="opacity:0.5;fill:#000000;fill-opacity:1;stroke:none"
     d="m 78.64387,3.441157 c 4.46527,0 8.07916,2.58361 8.07916,5.261798 V 173.41808 c 0,2.67818 -2.85462,6.9322 -7.31988,6.9322 v 3.44116 h 38.98472 v -3.44116 c -4.46527,0 -7.31989,-4.25402 -7.31989,-6.9322 l -3.2e-4,-81.95072 c 9.68349,0 12.87736,21.1972 12.87736,32.97512 h 4.13915 V 45.787463 h -4.13915 c 0,10.348828 -3.19387,28.974057 -12.87736,28.974057 V 11.064585 c 20.29446,0 26.67453,44.107995 26.67453,53.808965 h 5.28892 V 0.02685 L 78.64387,0 Z M 0,3.441157 c 4.465268,0 8.079164,2.58361 8.079164,5.261798 V 173.41808 c 0,2.67818 -2.854618,6.9322 -7.319886,6.9322 v 3.44116 h 38.984721 v -3.44116 c -4.465268,0 -7.319886,-4.25402 -7.319886,-6.9322 l -3.21e-4,-81.95072 c 9.683491,0 12.877358,21.1972 12.877358,32.97512 H 49.4403 V 45.787463 h -4.13915 c 0,10.348828 -3.193867,28.974057 -12.877358,28.974057 V 11.064585 c 20.294458,0 26.674528,44.107995 26.674528,53.808965 h 5.28892 V 0.02685 L 0,0 Z"
     inkscape:connector-curvature="0" />
</svg>
