<svg xmlns="http://www.w3.org/2000/svg" height="164.83273" width="164.83273"><path d="M164.71168.12105073c-5.02604-.000005-11.99452-1.26372903-17.63347 4.37522297-5.63895 5.6389533-5.19282 12.3080783-5.19282 12.3080783l-9.8111 9.811106c-3.37848-1.295991-7.59342-1.105514-11.86614.419845l-11.07064-16.99266-22.561127-.8175923-10.98225 15.6226403 5.01604 21.854019 9.34707-18.009126 6.65122.375651 6.386057 12.484854-4.441517 12.750019-82.996654 68.633552L0 164.83273l41.896077-15.55635 68.633553-82.99665 12.75001-4.44152 12.48486 6.38606.37565 6.65122-18.00913 9.34707 21.85402 5.01604 15.62264-10.98225-.81759-22.56113-16.99266-11.070636c1.52536-4.272724 1.71584-8.487656.41985-11.866136l9.8111-9.811106s6.66913.446137 12.30808-5.192816c5.63895-5.638952 4.37522-12.6074433 4.37522-17.63347527zM127.14664 37.686099c2.30924 2.309248.90763 7.445063-3.11569 11.468388-4.02333 4.023325-9.15914 5.424933-11.46839 3.115689-2.30925-2.309248-.90764-7.445063 3.11569-11.468388 4.02332-4.023324 9.15914-5.424937 11.46839-3.115689z" opacity=".5"/></svg>