<svg xmlns="http://www.w3.org/2000/svg" height="185.14758" width="151.22804"><path d="M108.57179 0l2.71875 18.9375c-22.179527 2.986669-38.242687 12.062838-44.593747 34.03125l16.71875-9.28125 10.4375 16.65625L111.75929 45.75l13.90625 20.78125 14.9375-11.59375 10.625 14.25c-1.58002-13.953249-3.13681-27.526901-8.0625-35.25-4.29786-6.738697-12.45292-12.055453-20.46875-14.28125l10.1875-15.21875zM80.978043 53.03125l-7.34375 4.09375c-3.2359 6.677194-7.37275 15.04581-15.65625 19.96875-7.48917 4.45086-31.697247 6.9424-49.6875001 28.875-10.463531 12.75649-11.351104 35.32225-.78125 51.96875C17.258975 173.29231 39.3153 184.39147 59.915543 185.09375c20.60024.70228 50.806817-5.19987 69.937497-33.53125 13.76384-20.38343 12.98638-60.45197 12.3125-82.5625l.21875.0312-3.125-4.18745-15.21875 11.8125-13.84375-20.625-18.062497 14.75zm-6.6875 24.90625c7.29492 0 13.53125 4.38656 13.53125 10 0 1.61474-.66079 3.11077-1.6875 4.5-.85826-3.38519-4.44836-6.53125-8.875-6.53125-5.09102 0-10.84375 3.87934-10.84375 8.9375 0 2.1455.96273 4.11898 2.78125 5.46875-.14204.004-.29857.0312-.4375.0312-7.57426 0-10.15625-3.85103-10.15625-8.1875 0-7.08993 7.0757-14.21875 15.6875-14.21875zM103.19679 80c10.90478 0 18.96875 7.42395 18.96875 14.71875 0 5.8183-2.34585 9.40625-8.78125 9.40625-1.65394 0-3.53581-.43715-5.46875-1.15625 2.01911-1.59632 3.3125-3.67747 3.3125-5.8125 0-4.40781-4.6076-9.28125-10.9375-9.28125-2.539767 0-4.785067.73252-6.468747 1.9375 0-6.73613 3.53818-9.8125 9.374997-9.8125z" opacity=".5"/></svg>