<?xml version="1.0" encoding="UTF-8" standalone="no"?>
<!-- Created with Inkscape (http://www.inkscape.org/) by Toomai Glittershine for SmashWiki -->

<svg
   xmlns:dc="http://purl.org/dc/elements/1.1/"
   xmlns:cc="http://creativecommons.org/ns#"
   xmlns:rdf="http://www.w3.org/1999/02/22-rdf-syntax-ns#"
   xmlns:svg="http://www.w3.org/2000/svg"
   xmlns="http://www.w3.org/2000/svg"
   xmlns:sodipodi="http://sodipodi.sourceforge.net/DTD/sodipodi-0.dtd"
   xmlns:inkscape="http://www.inkscape.org/namespaces/inkscape"
   id="svg2"
   version="1.1"
   height="185.14758"
   width="151.22804"
   viewBox="0 0 151.22804 185.14758"
   sodipodi:docname="ice-climbers.svg"
   inkscape:version="0.92.3 (2405546, 2018-03-11)">
  <defs
     id="defs7" />
  <sodipodi:namedview
     pagecolor="#ffffff"
     bordercolor="#666666"
     borderopacity="1"
     objecttolerance="10"
     gridtolerance="10"
     guidetolerance="10"
     inkscape:pageopacity="0"
     inkscape:pageshadow="2"
     inkscape:window-width="1051"
     inkscape:window-height="480"
     id="namedview5"
     showgrid="false"
     inkscape:zoom="0.921875"
     inkscape:cx="75.540543"
     inkscape:cy="89.303831"
     inkscape:window-x="0"
     inkscape:window-y="0"
     inkscape:window-maximized="0"
     inkscape:current-layer="svg2" />
  <metadata
     id="metadata7">
    <rdf:RDF>
      <cc:Work
         rdf:about="">
        <dc:format>image/svg+xml</dc:format>
        <dc:type
           rdf:resource="http://purl.org/dc/dcmitype/StillImage" />
        <dc:title />
      </cc:Work>
    </rdf:RDF>
  </metadata>
  <path
     id="mainsymbolpath"
     style="opacity:0.5;fill:#000000;fill-opacity:1;stroke:none"
     d="m 108.57179,0 2.71875,18.9375 C 89.111013,21.924169 73.047853,31.000338 66.696793,52.96875 l 16.71875,-9.28125 10.4375,16.65625 17.906247,-14.59375 13.90625,20.78125 14.9375,-11.59375 10.625,14.25 c -1.58002,-13.953249 -3.13681,-27.526901 -8.0625,-35.25 -4.29786,-6.738697 -12.45292,-12.055453 -20.46875,-14.28125 L 132.88429,4.4375 Z M 80.978043,53.03125 73.634293,57.125 c -3.2359,6.677194 -7.37275,15.04581 -15.65625,19.96875 -7.48917,4.45086 -31.697247,6.9424 -49.6875001,28.875 -10.463531,12.75649 -11.351104,35.32225 -0.78125,51.96875 9.7496821,15.35481 31.8060071,26.45397 52.4062501,27.15625 20.60024,0.70228 50.806817,-5.19987 69.937497,-33.53125 C 143.61688,131.17907 142.83942,91.11053 142.16554,69 l 0.21875,0.0312 -3.125,-4.18745 -15.21875,11.8125 -13.84375,-20.625 -18.062497,14.75 z m -6.6875,24.90625 c 7.29492,0 13.53125,4.38656 13.53125,10 0,1.61474 -0.66079,3.11077 -1.6875,4.5 -0.85826,-3.38519 -4.44836,-6.53125 -8.875,-6.53125 -5.09102,0 -10.84375,3.87934 -10.84375,8.9375 0,2.1455 0.96273,4.11898 2.78125,5.46875 -0.14204,0.004 -0.29857,0.0312 -0.4375,0.0312 -7.57426,0 -10.15625,-3.85103 -10.15625,-8.1875 0,-7.08993 7.0757,-14.21875 15.6875,-14.21875 z M 103.19679,80 c 10.90478,0 18.96875,7.42395 18.96875,14.71875 0,5.8183 -2.34585,9.40625 -8.78125,9.40625 -1.65394,0 -3.53581,-0.43715 -5.46875,-1.15625 2.01911,-1.59632 3.3125,-3.67747 3.3125,-5.8125 0,-4.40781 -4.6076,-9.28125 -10.9375,-9.28125 -2.539767,0 -4.785067,0.73252 -6.468747,1.9375 0,-6.73613 3.53818,-9.8125 9.374997,-9.8125 z"
     inkscape:connector-curvature="0" />
</svg>
