<svg xmlns="http://www.w3.org/2000/svg" height="179.67961" width="179.67953"><path d="M0 1.670102C10.043543 14.338369 19.567471 27.28639 23.418139 43.422671l1.660926.04588c.608459-4.493133 2.380948-7.731924 4.487253-10.727196l25.703068 25.703062L44.092541 69.62126 30.814307 56.343027c-1.151044-.40287-3.152676 6.614723 2.844685 13.544343-3.486931 3.31819-19.187921 19.4364-17.793019 39.39424 2.043879 29.24317 16.989484 52.19378 19.426416 56.51737 2.436931 4.32359 3.164215 6.04957 3.303496 7.56134.03417.37085-.02566.80249-.394581.85341-.633702.0875-.203132-1.10117-1.578341-1.10117-.966344 0-1.988287 1.24098-1.890333 2.20234.23855 2.34124 3.267831 4.71349 5.58842 4.32208 4.780204-.8063 8.449026-5.47437 7.928396-12.18625-.959104-12.36462-9.027398-30.89056-2.81715-47.63463 4.36751-11.77568 10.70164-19.833 14.08576-23.5925 1.05499.0478 2.714396-.12666 3.991716-1.40398 1.76906-1.76905 1.16627-4.61485 0-5.78112l-2.927256-2.92727 11.176836-11.17684 37.705768 37.70578 1.43152 12.31471 33.04417 33.04417s.62996-.79826.0183-2.34915c-.41269-1.04651-9.69026-21.38099-9.69026-21.38099s20.33448 9.27757 21.38099 9.69026c1.55089.61161 2.34915-.0183 2.34915-.0183l-33.04417-33.04417-12.31471-1.43152-37.705778-37.70577 11.17684-11.176843 2.92727 2.927263c1.16627 1.16627 4.01207 1.76906 5.78112 0 1.27732-1.27732 1.45178-2.936733 1.40398-3.991723 3.7595-3.38412 11.816818-9.71825 23.592498-14.08576 16.74408-6.21025 35.27001 1.858043 47.63463 2.81716 6.71188.52062 11.37995-3.148199 12.18624-7.928404.39142-2.32059-1.98083-5.349871-4.32207-5.58842-.96136-.09796-2.20234.923983-2.20234 1.890329 0 1.37521 1.18865.944639 1.10117 1.578341-.0509.368925-.48252.428782-.8534.394579-1.51178-.139279-3.23776-.866559-7.56134-3.303496-4.32354-2.436981-27.27416-17.382581-56.51733-19.426466-19.957838-1.394902-36.076038 14.306091-39.394238 17.793023-6.92962-5.997362-13.947206-3.995729-13.544336-2.844686l13.278226 13.278235-11.176836 11.176845-25.703061-25.703068c2.995273-2.106305 6.234064-3.878794 10.727196-4.487253l-.04588-1.660927C27.28639 19.567471 14.338368 10.043543 1.670101 0L.311996.311997z" opacity=".5"/></svg>