<?xml version="1.0" encoding="UTF-8" standalone="no"?>
<!-- Created with Inkscape (http://www.inkscape.org/) by Toomai Glittershine for SmashWiki -->

<svg
   xmlns:dc="http://purl.org/dc/elements/1.1/"
   xmlns:cc="http://creativecommons.org/ns#"
   xmlns:rdf="http://www.w3.org/1999/02/22-rdf-syntax-ns#"
   xmlns:svg="http://www.w3.org/2000/svg"
   xmlns="http://www.w3.org/2000/svg"
   xmlns:sodipodi="http://sodipodi.sourceforge.net/DTD/sodipodi-0.dtd"
   xmlns:inkscape="http://www.inkscape.org/namespaces/inkscape"
   id="svg2"
   version="1.1"
   height="173.71202"
   width="172.81215"
   viewBox="0 0 172.81215 173.71202"
   sodipodi:docname="kirby.svg"
   inkscape:version="0.92.3 (2405546, 2018-03-11)">
  <defs
     id="defs7" />
  <sodipodi:namedview
     pagecolor="#ffffff"
     bordercolor="#666666"
     borderopacity="1"
     objecttolerance="10"
     gridtolerance="10"
     guidetolerance="10"
     inkscape:pageopacity="0"
     inkscape:pageshadow="2"
     inkscape:window-width="1051"
     inkscape:window-height="480"
     id="namedview5"
     showgrid="false"
     inkscape:zoom="0.921875"
     inkscape:cx="86.406077"
     inkscape:cy="86.856005"
     inkscape:window-x="0"
     inkscape:window-y="0"
     inkscape:window-maximized="0"
     inkscape:current-layer="svg2" />
  <metadata
     id="metadata7">
    <rdf:RDF>
      <cc:Work
         rdf:about="">
        <dc:format>image/svg+xml</dc:format>
        <dc:type
           rdf:resource="http://purl.org/dc/dcmitype/StillImage" />
        <dc:title />
      </cc:Work>
    </rdf:RDF>
  </metadata>
  <path
     id="mainsymbolpath"
     style="opacity:0.5;fill:#000000;fill-opacity:1;stroke:none"
     d="m 172.33106,47.45326 c 4.86775,9.154894 -28.80809,50.54688 -28.80809,50.54688 0,0 20.96212,49.07084 13.75952,56.52935 -7.20261,7.45852 -56.97514,-11.77827 -56.97514,-11.77827 0,0 -40.191483,35.09987 -49.510676,30.5546 -9.319205,-4.54527 -6.404478,-57.82626 -6.404478,-57.82626 0,0 -45.8018246,-27.37793 -44.3588006,-37.64557 1.443025,-10.26765 53.0169496,-23.96032 53.0169496,-23.96032 0,0 11.884402,-52.0203582 22.095432,-53.82083917 10.21104,-1.80048703 39.170753,43.01796717 39.170753,43.01796717 0,0 53.14679,-4.772429 58.01453,4.382462 z"
     inkscape:connector-curvature="0" />
</svg>
