<svg xmlns="http://www.w3.org/2000/svg" height="184.06766" width="184.67332"><path d="M92.33666 176.99975c15.9073 0 34.65561-2.0023 43.11687-11.16199 6.29934-6.8193 7.95659-19.35241 7.80515-27.75713-3.40732-4.77024-19.03568-17.64233-50.92202-17.64233-31.88634 0-47.5147 12.87209-50.92202 17.64233-.15144 8.40472 1.50581 20.93783 7.80515 27.75713 8.46126 9.15969 27.20957 11.16199 43.11687 11.16199zM67.8968 143.30252c0 8.16157.77173 15.4721 4.85982 15.4721s4.85983-7.11217 4.85983-15.27374c0-8.16158-.17666-15.27374-4.61188-15.27374s-5.10777 6.9138-5.10777 15.07538zm48.87972 0c0 8.16157-.77173 15.4721-4.85982 15.4721s-4.85983-7.11217-4.85983-15.27374c0-8.16158.17666-15.27374 4.61188-15.27374s5.10777 6.9138 5.10777 15.07538zM6.99291 96.20718c0 5.69377.60849 10.63762 1.6875 14.96875 13.60135-10.74742 21.33277-41.23373 13.65625-63.78125C11.95385 64.22023 6.99291 83.18493 6.99291 96.20718zm29.75013 53.36262C20.92541 143.73417 0 130.24494 0 96.21888S28.13416 0 92.33666 0c64.2025 0 92.33666 62.19282 92.33666 96.21888s-20.92541 47.51529-36.74304 53.35092c-2.12331 24.99715-21.42 34.49785-55.59362 34.49785s-53.47031-9.5007-55.59362-34.49785zM162.33666 47.39468c-7.67652 22.54752.0549 53.03383 13.65625 63.78125 1.07901-4.33113 1.6875-9.27498 1.6875-14.96875 0-13.02225-4.96094-31.98695-15.34375-48.8125zm-70-33.76804c-24.04063 0-43.529412 18.89219-43.529412 42.19688 0 23.3047 19.488782 42.19688 43.529412 42.19688 24.04064 0 43.52942-18.89218 43.52942-42.19688 0-23.30469-19.48878-42.19688-43.52942-42.19688z" opacity=".5"/></svg>