<svg xmlns="http://www.w3.org/2000/svg" height="180.3125" width="180.3125"><path d="M83.375 0l-3.4375 9.5-1.75 9.59375c-4.56422.763494-8.98805 1.921834-13.21875 3.5l-6.28125-7.375-7.75-6.53125-11.71875 6.78125L41 25.40625l3.21875 9.15625c-3.522603 2.912618-6.743632 6.133647-9.65625 9.65625L25.40625 41l-9.9375-1.78125L8.6875 50.9375l6.53125 7.75 7.375 6.28125c-1.578166 4.2307-2.736506 8.65453-3.5 13.21875L9.5 79.9375 0 83.375v13.5625l9.5 3.4375 9.59375 1.75c.763494 4.56422 1.921834 8.98805 3.5 13.21875l-7.375 6.28125-6.53125 7.75 6.78125 11.71875 9.9375-1.78125 9.15625-3.21875c2.912618 3.5226 6.133647 6.74363 9.65625 9.65625L41 154.90625l-1.78125 9.9375L50.9375 171.625l7.75-6.53125 6.28125-7.375c4.2307 1.57817 8.65453 2.73651 13.21875 3.5l1.75 9.59375 3.4375 9.5h13.5625l3.4375-9.5 1.75-9.59375c4.56422-.76349 8.98805-1.92183 13.21875-3.5l6.28125 7.375 7.75 6.53125 11.71875-6.78125-1.78125-9.9375-3.21875-9.15625c3.5226-2.91262 6.74363-6.13365 9.65625-9.65625l9.15625 3.21875 9.9375 1.78125L171.625 129.375l-6.53125-7.75-7.375-6.28125c1.57817-4.2307 2.73651-8.65453 3.5-13.21875l9.59375-1.75 9.5-3.4375V83.375l-9.5-3.4375-9.59375-1.75c-.76349-4.56422-1.92183-8.98805-3.5-13.21875l7.375-6.28125 6.53125-7.75-6.78125-11.71875L154.90625 41 145.75 44.21875c-2.91262-3.522603-6.13365-6.743632-9.65625-9.65625l3.21875-9.15625 1.78125-9.9375L129.375 8.6875l-7.75 6.53125-6.28125 7.375c-4.2307-1.578166-8.65453-2.736506-13.21875-3.5L100.375 9.5 96.9375 0zm6.78125 69.28125c11.52306 0 20.875 9.35194 20.875 20.875s-9.35194 20.875-20.875 20.875-20.875-9.35194-20.875-20.875 9.35194-20.875 20.875-20.875z" opacity=".5"/></svg>