<?xml version="1.0" encoding="UTF-8" standalone="no"?>
<!-- Created with Inkscape (http://www.inkscape.org/) by Toomai Glittershine for SmashWiki -->

<svg
   xmlns:dc="http://purl.org/dc/elements/1.1/"
   xmlns:cc="http://creativecommons.org/ns#"
   xmlns:rdf="http://www.w3.org/1999/02/22-rdf-syntax-ns#"
   xmlns:svg="http://www.w3.org/2000/svg"
   xmlns="http://www.w3.org/2000/svg"
   xmlns:sodipodi="http://sodipodi.sourceforge.net/DTD/sodipodi-0.dtd"
   xmlns:inkscape="http://www.inkscape.org/namespaces/inkscape"
   id="svg2"
   version="1.1"
   height="198.0625"
   width="179.1875"
   viewBox="0 0 179.1875 198.0625"
   sodipodi:docname="metroid.svg"
   inkscape:version="0.92.3 (2405546, 2018-03-11)">
  <defs
     id="defs7" />
  <sodipodi:namedview
     pagecolor="#ffffff"
     bordercolor="#666666"
     borderopacity="1"
     objecttolerance="10"
     gridtolerance="10"
     guidetolerance="10"
     inkscape:pageopacity="0"
     inkscape:pageshadow="2"
     inkscape:window-width="1920"
     inkscape:window-height="1017"
     id="namedview5"
     showgrid="false"
     inkscape:zoom="2.6074563"
     inkscape:cx="41.015004"
     inkscape:cy="94.12618"
     inkscape:window-x="-8"
     inkscape:window-y="-8"
     inkscape:window-maximized="1"
     inkscape:current-layer="svg2" />
  <metadata
     id="metadata7">
    <rdf:RDF>
      <cc:Work
         rdf:about="">
        <dc:format>image/svg+xml</dc:format>
        <dc:type
           rdf:resource="http://purl.org/dc/dcmitype/StillImage" />
        <dc:title />
      </cc:Work>
    </rdf:RDF>
  </metadata>
  <path
     id="mainsymbolpath"
     style="opacity:0.5;fill:#000000;fill-opacity:1;stroke:none"
     d="M 179.1875,0 48.5625,71.46875 V 119.5625 L 71.15625,126.25 0,198.0625 130.625,126.59375 V 78.5 l -22.59375,-6.6875 z m -27.65625,20.84375 -70.25,70.875 L 84.84375,95.25 104.0625,75.84375 125.625,82.25 v 41.375 l -97.96875,53.59375 70.25,-70.875 -3.5625,-3.53125 L 75.125,122.21875 53.5625,115.8125 v -41.375 z m -61.9375,6.625 c -39.525818,0 -71.5625,32.036682 -71.5625,71.5625 0,20.26492 8.433191,38.5417 21.96875,51.5625 l 21.71875,-21.9375 -18.15625,-5.375 v -54.75 L 112.03125,31.0625 c -7.05966,-2.329759 -14.59727,-3.59375 -22.4375,-3.59375 z m 49.59375,20 -21.71875,21.9375 18.15625,5.375 v 54.75 L 67.15625,167 c 7.05966,2.32976 14.59727,3.59375 22.4375,3.59375 39.52582,0 71.5625,-32.03668 71.5625,-71.5625 0,-20.26492 -8.43319,-38.541701 -21.96875,-51.5625 z"
     inkscape:connector-curvature="0" />
</svg>
