<svg xmlns="http://www.w3.org/2000/svg" height="180" width="180"><path d="M90.000004 0C40.294373 0 0 40.294373 0 90c0 49.70563 40.294373 90 90.000004 90C139.70563 180 180 139.70563 180 90c0-49.705627-40.29437-90-89.999996-90zm0 62.875C104.97733 62.875 117.125 75.02267 117.125 90s-12.14767 27.125-27.124996 27.125c-14.97733 0-27.125-12.14767-27.125-27.125s12.14767-27.125 27.125-27.125zM11.6875 95.90625h40.40625c2.839053 18.38075 18.730444 32.4375 37.906254 32.4375 19.175806 0 35.067196-14.05675 37.906246-32.4375h40.40625c-3.0261 40.61566-36.92322 72.65625-78.312496 72.65625-41.389282 0-75.286406-32.04059-78.312504-72.65625z" opacity=".5"/></svg>