<?xml version="1.0" encoding="UTF-8" standalone="no"?>
<!-- Created with Inkscape (http://www.inkscape.org/) by Toomai Glittershine for SmashWiki -->

<svg
   xmlns:dc="http://purl.org/dc/elements/1.1/"
   xmlns:cc="http://creativecommons.org/ns#"
   xmlns:rdf="http://www.w3.org/1999/02/22-rdf-syntax-ns#"
   xmlns:svg="http://www.w3.org/2000/svg"
   xmlns="http://www.w3.org/2000/svg"
   xmlns:sodipodi="http://sodipodi.sourceforge.net/DTD/sodipodi-0.dtd"
   xmlns:inkscape="http://www.inkscape.org/namespaces/inkscape"
   id="svg2"
   version="1.1"
   height="180"
   width="180"
   viewBox="0 0 180 180"
   sodipodi:docname="pokemon.svg"
   inkscape:version="0.92.3 (2405546, 2018-03-11)">
  <defs
     id="defs7" />
  <sodipodi:namedview
     pagecolor="#ffffff"
     bordercolor="#666666"
     borderopacity="1"
     objecttolerance="10"
     gridtolerance="10"
     guidetolerance="10"
     inkscape:pageopacity="0"
     inkscape:pageshadow="2"
     inkscape:window-width="1051"
     inkscape:window-height="480"
     id="namedview5"
     showgrid="false"
     inkscape:zoom="0.921875"
     inkscape:cx="88.915254"
     inkscape:cy="90"
     inkscape:window-x="0"
     inkscape:window-y="0"
     inkscape:window-maximized="0"
     inkscape:current-layer="svg2" />
  <metadata
     id="metadata7">
    <rdf:RDF>
      <cc:Work
         rdf:about="">
        <dc:format>image/svg+xml</dc:format>
        <dc:type
           rdf:resource="http://purl.org/dc/dcmitype/StillImage" />
        <dc:title />
      </cc:Work>
    </rdf:RDF>
  </metadata>
  <path
     id="mainsymbolpath"
     style="opacity:0.5;fill:#000000;fill-opacity:1;stroke:none"
     d="M 90.000004,0 C 40.294373,0 0,40.294373 0,90 0,139.70563 40.294373,180 90.000004,180 139.70563,180 180,139.70563 180,90 180,40.294373 139.70563,0 90.000004,0 Z m 0,62.875 C 104.97733,62.875 117.125,75.02267 117.125,90 c 0,14.97733 -12.14767,27.125 -27.124996,27.125 -14.97733,0 -27.125,-12.14767 -27.125,-27.125 0,-14.97733 12.14767,-27.125 27.125,-27.125 z M 11.6875,95.90625 h 40.40625 c 2.839053,18.38075 18.730444,32.4375 37.906254,32.4375 19.175806,0 35.067196,-14.05675 37.906246,-32.4375 h 40.40625 c -3.0261,40.61566 -36.92322,72.65625 -78.312496,72.65625 -41.389282,0 -75.286406,-32.04059 -78.312504,-72.65625 z"
     inkscape:connector-curvature="0" />
</svg>
