<svg xmlns="http://www.w3.org/2000/svg" height="158.23119" width="180.43738"><path d="M91.753728.01549777c-36.523263.423875-49.969021 9.00788503-64.75 21.00000023C4.8620708 38.979483-2.4420252 75.95124.69122777 88.48425 3.8244808 101.01727 14.591207 109.97385 18.034978 111.8905c2.653799 1.47698 9.535309 1.68505 11.676804.15541 0 0 7.858321 23.35816 25.854285 32.93721 12.872931 6.85212 28.884841 13.24806 48.937663 13.24807 29.6644.00001 48.04596-9.58074 58.28125-17.30944 10.2353-7.72869 15.86018-28.40595 17.53125-60.15625 1.67107-31.750301-13.53035-77.7396692-71.4375-80.40625223-6.23095-.286931-11.907392-.404304-17.125002-.34375zm-47.5 21.56250023C37.414125 31.865841 31.447071 43.302871 31.472478 62.328c1.235515.48987 2.407622 1.085 3.5 1.8125 6.438541-9.28444 12.7307-16.047923 20.8125-18.843752-6.220637 6.226792-10.811789 14.348142-14.71875 25.375002 2.866011 4.84138 4.355796 11.35915 4.1875 19.1875 4.926171 3.07923 9.078806 6.55125 12.71875 10.3125-4.013488-1.77271-7.569276-3.61616-13.0625-5.09375-.213413 1.9822-.527891 4.03746-.9375 6.15625 3.561749 4.42615 5.550907 9.68386 5.3125 16.15625-2.955415-4.03103-5.262271-8.26057-11.90625-11.0625 5.166591-23.4709-3.561284-33.31883-14.5625-40.9375 1.49448-28.203254 10.144049-34.476211 21.4375-43.812502zM159.06623 128.10925c-10.76272 24.61117-87.862512 24.87572-104.187502 3.75 46.067982 9.88963 63.989782 8.94767 104.187502-3.75z" opacity=".5"/></svg>