<?xml version="1.0" encoding="UTF-8" standalone="no"?>
<!-- Created with Inkscape (http://www.inkscape.org/) by Toomai Glittershine for SmashWiki -->

<svg
   xmlns:dc="http://purl.org/dc/elements/1.1/"
   xmlns:cc="http://creativecommons.org/ns#"
   xmlns:rdf="http://www.w3.org/1999/02/22-rdf-syntax-ns#"
   xmlns:svg="http://www.w3.org/2000/svg"
   xmlns="http://www.w3.org/2000/svg"
   xmlns:sodipodi="http://sodipodi.sourceforge.net/DTD/sodipodi-0.dtd"
   xmlns:inkscape="http://www.inkscape.org/namespaces/inkscape"
   id="svg2"
   version="1.1"
   height="165.24557"
   width="165.24557"
   viewBox="0 0 165.24557 165.24557"
   sodipodi:docname="rob.svg"
   inkscape:version="0.92.3 (2405546, 2018-03-11)">
  <defs
     id="defs7" />
  <sodipodi:namedview
     pagecolor="#ffffff"
     bordercolor="#666666"
     borderopacity="1"
     objecttolerance="10"
     gridtolerance="10"
     guidetolerance="10"
     inkscape:pageopacity="0"
     inkscape:pageshadow="2"
     inkscape:window-width="1051"
     inkscape:window-height="480"
     id="namedview5"
     showgrid="false"
     inkscape:zoom="0.921875"
     inkscape:cx="86.023404"
     inkscape:cy="79.222161"
     inkscape:window-x="0"
     inkscape:window-y="0"
     inkscape:window-maximized="0"
     inkscape:current-layer="svg2" />
  <metadata
     id="metadata7">
    <rdf:RDF>
      <cc:Work
         rdf:about="">
        <dc:format>image/svg+xml</dc:format>
        <dc:type
           rdf:resource="http://purl.org/dc/dcmitype/StillImage" />
        <dc:title />
      </cc:Work>
    </rdf:RDF>
  </metadata>
  <path
     id="mainsymbolpath"
     style="opacity:0.5;fill:#000000;fill-opacity:1;stroke:none"
     d="M 16.222929,16.22293 C 8.6172184,23.82864 4.4508104,31.908667 6.8791404,34.336997 L 30.657714,58.11558 C 1.4693494,93.65087 -8.7716166,132.22342 8.2290934,149.22413 l 7.7909016,7.7909 c 16.991551,16.99155 55.536209,6.77653 91.055615,-22.37568 l 13.10248,13.10248 35.22229,7.65855 -7.65856,-35.22228 -13.10248,-13.10248 c 29.15221,-35.51941 39.36724,-74.064073 22.37568,-91.055624 l -7.7909,-7.7909019 C 132.22341,-8.7716179 93.650864,1.4693511 58.115574,30.657715 L 34.336996,6.8791411 c -2.42833,-2.42833 -10.508357,1.738078 -18.114067,9.3437889 z m 30.528336,57.9862 16.525889,16.52588 c 2.42833,2.42833 10.50836,-1.73807 18.11407,-9.34378 7.60571,-7.60571 11.77212,-15.68574 9.34379,-18.11407 L 74.209124,46.751266 C 96.580554,29.037124 118.4988,21.690452 127.13078,30.322433 137.63824,40.829895 124.48415,71.01479 97.749464,97.74948 c -26.73468,26.73467 -56.91957,39.88877 -67.427032,29.38131 -8.631981,-8.63198 -1.28531,-30.55023 16.428833,-52.92166 z"
     inkscape:connector-curvature="0" />
</svg>
