<svg xmlns="http://www.w3.org/2000/svg" height="165.24557" width="165.24557"><path d="M16.222929 16.22293C8.6172184 23.82864 4.4508104 31.908667 6.8791404 34.336997L30.657714 58.11558C1.4693494 93.65087-8.7716166 132.22342 8.2290934 149.22413l7.7909016 7.7909c16.991551 16.99155 55.536209 6.77653 91.055615-22.37568l13.10248 13.10248 35.22229 7.65855-7.65856-35.22228-13.10248-13.10248c29.15221-35.51941 39.36724-74.064073 22.37568-91.055624l-7.7909-7.7909019c-17.00071-17.000712-55.573256-6.759743-91.108546 22.4286209L34.336996 6.8791411c-2.42833-2.42833-10.508357 1.738078-18.114067 9.3437889zm30.528336 57.9862l16.525889 16.52588c2.42833 2.42833 10.50836-1.73807 18.11407-9.34378 7.60571-7.60571 11.77212-15.68574 9.34379-18.11407l-16.52589-16.525894c22.37143-17.714142 44.289676-25.060814 52.921656-16.428833 10.50746 10.507462-2.64663 40.692357-29.381316 67.427047-26.73468 26.73467-56.91957 39.88877-67.427032 29.38131-8.631981-8.63198-1.28531-30.55023 16.428833-52.92166z" opacity=".5"/></svg>