<svg xmlns="http://www.w3.org/2000/svg" height="153.76385" width="193.97929"><path d="M116.6668.01384584C83.241088.54762584 50.082537 16.455885 34.135548 37.076346c-24.2196061-7.101591-31.3374781-3.083488-31.6562501-2.5l-2.18750004 4c-.447886.819822-1.77491796 7.145302 9.43750004 30.281254-1.504103 5.5012-2.4375 11.86487-2.4375 19.1875 0 10.12325 3.6243531 21.57617 9.8125001 32.0625-4.066968.76403-7.5937501 2.35896-7.5937501 6.3125 0 4.88987 6.9755651 7.76566 17.9687501 7.59375 10.661561 11.54589 24.636563 19.75 39.71875 19.75 25.08764 0 44.527052-12.84375 69.031252-12.84375 24.5042 0 46.6875 10.5 46.6875 10.5-.41525-18.07989-4.23581-35.57042-37.34375-48.03125 16.47071-12.57469 32.44455-12.72212 48.40625-12.0625-8.72904-20.3192-20.33625-38.60385-54.625-41.03125 6.98285-10.892654 20.24292-19.10627 44.3125-22.750004-18.09835-20.1245102-42.60827-27.92076516-67-27.53125016z" opacity=".5"/></svg>