<?xml version="1.0" encoding="UTF-8" standalone="no"?>
<!-- Created with Inkscape (http://www.inkscape.org/) by Toomai Glittershine for SmashWiki -->

<svg
   xmlns:dc="http://purl.org/dc/elements/1.1/"
   xmlns:cc="http://creativecommons.org/ns#"
   xmlns:rdf="http://www.w3.org/1999/02/22-rdf-syntax-ns#"
   xmlns:svg="http://www.w3.org/2000/svg"
   xmlns="http://www.w3.org/2000/svg"
   xmlns:sodipodi="http://sodipodi.sourceforge.net/DTD/sodipodi-0.dtd"
   xmlns:inkscape="http://www.inkscape.org/namespaces/inkscape"
   id="svg2"
   version="1.1"
   height="174.63867"
   width="158.52269"
   viewBox="0 0 158.52269 174.63867"
   sodipodi:docname="splatoon.svg"
   inkscape:version="0.92.3 (2405546, 2018-03-11)">
  <defs
     id="defs7" />
  <sodipodi:namedview
     pagecolor="#ffffff"
     bordercolor="#666666"
     borderopacity="1"
     objecttolerance="10"
     gridtolerance="10"
     guidetolerance="10"
     inkscape:pageopacity="0"
     inkscape:pageshadow="2"
     inkscape:window-width="1051"
     inkscape:window-height="480"
     id="namedview5"
     showgrid="false"
     inkscape:zoom="0.921875"
     inkscape:cx="79.261345"
     inkscape:cy="85.88867"
     inkscape:window-x="0"
     inkscape:window-y="0"
     inkscape:window-maximized="0"
     inkscape:current-layer="svg2" />
  <metadata
     id="metadata7">
    <rdf:RDF>
      <cc:Work
         rdf:about="">
        <dc:format>image/svg+xml</dc:format>
        <dc:type
           rdf:resource="http://purl.org/dc/dcmitype/StillImage" />
        <dc:title />
      </cc:Work>
    </rdf:RDF>
  </metadata>
  <path
     id="mainsymbolpath"
     style="opacity:0.5;fill:#000000;fill-opacity:1;stroke:none"
     d="m 90.638295,174.63867 c 4.8635,-0.64705 10.560835,-11.01368 11.378915,-22.46679 0.49085,3.43593 6.95101,17.01063 11.48242,18.12304 3.30625,-0.73627 11.45313,-9.24304 11.45313,-16.45312 0,-7.21009 -4.97692,-13.20705 -5.2793,-16.03125 -0.65446,-6.11264 6.58984,-28.89258 6.58984,-28.89258 0,0 31.32144,-0.76964 32.23438,-14.63672 C 160.0156,71.22472 92.001235,0 79.261345,0 66.521455,0 -1.4929055,71.22472 0.02501748,94.28125 c 0.912937,13.86708 32.23437452,14.63672 32.23437452,14.63672 0,0 7.244307,22.77994 6.589844,28.89258 -0.302379,2.8242 -5.279297,8.82116 -5.279297,16.03125 0,7.21008 8.14688,15.71685 11.453125,16.45312 4.531409,-1.11241 10.991571,-14.68711 11.482421,-18.12304 0.81808,11.45311 6.51541,21.81974 11.37891,22.46679 6.41785,-0.48956 10.80429,-12.89325 11.37695,-18.86523 0.57266,5.97198 4.9591,18.37567 11.37695,18.86523 z m -5.10879,-91.67486 c 0,-6.93872 5.62495,-12.56367 12.56367,-12.56367 6.938735,0 12.563685,5.62494 12.563685,12.56367 0,6.93873 -5.62495,12.56368 -12.563685,12.56368 -6.93873,0 -12.56367,-5.62495 -12.56367,-12.56368 z m -12.53632,0 c 0,6.93873 -5.62494,12.56368 -12.56367,12.56368 -6.93873,0 -12.563682,-5.62495 -12.56368,-12.56368 4e-6,-6.93873 5.62495,-12.56367 12.56368,-12.56367 6.93872,0 12.56367,5.62495 12.56367,12.56367 z m -13.49746,32.08892 C 46.790193,115.05316 36.49005,104.29744 36.489861,91.0293 36.489014,77.7604 46.78946,67.00348 59.495725,67.00391 c 8.11866,0.0116 15.63033,4.49117 19.76562,11.78711 4.13529,-7.29594 11.64696,-11.77551 19.76562,-11.78711 12.706265,-4.3e-4 23.006715,10.75649 23.005865,24.02539 -1.9e-4,13.26814 -10.30033,24.02386 -23.005865,24.02343 -8.11828,-0.0112 -15.62986,-4.48997 -19.76562,-11.78515 -4.13576,7.29518 -11.64734,11.77393 -19.76562,11.78515 z"
     inkscape:connector-curvature="0" />
</svg>
