<svg xmlns="http://www.w3.org/2000/svg" height="189.37964" width="210.50301"><path d="M104.58703 69.30733s11.40336 9.27731 11.40336 24.54621c0 23.19328-22.613438 41.7479-22.613438 41.7479-2.16976 5.28463-7.48028 10.03084-12.17647 14.88236l18.5001-10.69221c3.057968 19.24956 9.790868 33.52716 18.452988 45.19464-1.97101-5.74118-6.04144-14.47235-4.26695-16.71349.81124-1.02458 11.96092 16.8077 11.96092 16.8077-.7168-3.67227-1.68036-7.03479-3.54094-10.70706 4.0448 4.73049 7.55596 9.78117 10.77642 15.00626-3.41511-21.58457-8.022-43.76503-4.5296-61.89584 10.8574-2.45149 21.14087-3.75513 31.5042-5.21849 1.47327-19.05108 15.95705-27.69375 29.95798-36.72269-17.58555 3.21323-35.21228 6.55001-54.31092 14.30252 3.03826-9.56796 6.91777-17.55211 9.66387-24.54622 22.1184-10.443924 43.60574-15.082105 65.13445-20.10084-29.07501.547724-40.50292.07449-45.03361-3.478992-2.47083-1.937905 3.47899-8.310924 3.47899-8.310924-2.95601.236232-5.72005 1.56026-8.31093 3.865546 2.58832-4.421043 6.54941-6.59575 10.43698-8.890756-20.7402 4.619072-42.65879 13.951669-66.4874 30.924376zM0 141.2485c16.288115-6.10804 69.22449-25.19568 69.22449-46.57383 0-12.97958-30.285714-14.57547-30.285714-37.920768C38.938776 22.649711 107.39976 5.090036 131.83193 0c-5.76871 2.529698-11.53741 5.792594-17.30612 9.162065 7.17242-2.51683 13.69702-4.439822 18.83313-5.090036-1.76263.791804-3.24287 1.753038-4.58103 2.79952 11.2288-2.723731 17.98921-2.620526 25.19568-2.79952-17.81513 3.817527-77.513366 24.686675-77.513366 45.810324 0 21.123657 32.975546 12.72509 32.975546 47.337337 0 40.21129-67.513854 64.7565-67.513854 64.7565s9.183392-9.31244 7.960437-12.07463c-1.687215-3.81078-19.489093-1.66143-28.249699-1.018 11.133821-3.50348 22.354329-6.90659 31.049219-13.2341C34.081855 141.10663 16.52123 142.49905 0 141.2485z" opacity=".5"/></svg>