<?xml version="1.0" encoding="UTF-8" standalone="no"?>
<!-- Created with Inkscape (http://www.inkscape.org/) by Toomai Glittershine for SmashWiki -->

<svg
   xmlns:dc="http://purl.org/dc/elements/1.1/"
   xmlns:cc="http://creativecommons.org/ns#"
   xmlns:rdf="http://www.w3.org/1999/02/22-rdf-syntax-ns#"
   xmlns:svg="http://www.w3.org/2000/svg"
   xmlns="http://www.w3.org/2000/svg"
   xmlns:sodipodi="http://sodipodi.sourceforge.net/DTD/sodipodi-0.dtd"
   xmlns:inkscape="http://www.inkscape.org/namespaces/inkscape"
   id="svg2"
   version="1.1"
   height="177.09375"
   width="169.59375"
   viewBox="0 0 169.59375 177.09375"
   sodipodi:docname="xenoblade-chronicles.svg"
   inkscape:version="0.92.3 (2405546, 2018-03-11)">
  <defs
     id="defs7" />
  <sodipodi:namedview
     pagecolor="#ffffff"
     bordercolor="#666666"
     borderopacity="1"
     objecttolerance="10"
     gridtolerance="10"
     guidetolerance="10"
     inkscape:pageopacity="0"
     inkscape:pageshadow="2"
     inkscape:window-width="1051"
     inkscape:window-height="480"
     id="namedview5"
     showgrid="false"
     inkscape:zoom="0.921875"
     inkscape:cx="83.875"
     inkscape:cy="84.3125"
     inkscape:window-x="0"
     inkscape:window-y="0"
     inkscape:window-maximized="0"
     inkscape:current-layer="svg2" />
  <metadata
     id="metadata7">
    <rdf:RDF>
      <cc:Work
         rdf:about="">
        <dc:format>image/svg+xml</dc:format>
        <dc:type
           rdf:resource="http://purl.org/dc/dcmitype/StillImage" />
        <dc:title />
      </cc:Work>
    </rdf:RDF>
  </metadata>
  <path
     id="mainsymbolpath"
     style="opacity:0.5;fill:#000000;fill-opacity:1;stroke:none"
     d="m 169.59375,0 -39.8125,39.78125 -5.5625,2.40625 -25.4375,25.4375 C 89.24541,77.16084 70.0481,75.79868 59.03763,85.20762 51.055806,92.02845 34.6875,110.71875 34.6875,110.71875 l 0.5625,3.3125 -9.25,9.25 0.125,6.03125 L 0,155.4375 v 21.65625 l 32.28125,-32.28125 28.25,9.9375 1.75,-3.28125 13.0625,5.59375 v 10.46875 c 0,0 2.3257,0.1875 4.375,0.1875 26.75537,0 49.28125,-20.99463 49.28125,-47.75 0,-2.5099 0.85936,-13.85936 14.03125,-27.03125 l 26.5625,-26.5625 v -27 l -4.96875,4.96875 h -8.5 V 35.875 l 13.46875,-13.5 z m -42.125,66.3125 h 9.34375 v 9.34375 l -16,16 h -9.34375 V 82.3125 Z M 74.78125,83.75 75.5,89.15625 c -9.67038,1.31709 -17.91633,7.09767 -22.625,15.1875 L 48.15625,101.5625 C 53.700442,92.05273 63.40196,85.28863 74.78125,83.75 Z m 12.625,0.46875 c 11.68627,2.50074 21.28817,10.6017 25.90625,21.34375 l -5,2.15625 C 104.38675,98.58246 96.18537,91.69304 86.25,89.5625 Z m -7.6875,6.40625 c 16.20659,0 29.34375,13.13716 29.34375,29.34375 0,16.20659 -13.13716,29.34375 -29.34375,29.34375 -16.20659,0 -29.34375,-13.13716 -29.34375,-29.34375 0,-16.20659 13.13716,-29.34375 29.34375,-29.34375 z m 0,1.90625 c -15.14499,0 -27.40625,12.29251 -27.40625,27.4375 0,15.14499 12.26126,27.40625 27.40625,27.40625 15.14499,0 27.4375,-12.26126 27.4375,-27.40625 0,-15.14499 -12.29251,-27.4375 -27.4375,-27.4375 z m 0,4.625 c 12.59713,0 22.8125,10.21537 22.8125,22.8125 0,12.59713 -10.21537,22.8125 -22.8125,22.8125 -12.59713,0 -22.8125,-10.21537 -22.8125,-22.8125 0,-12.59713 10.21537,-22.8125 22.8125,-22.8125 z m 34.65625,16.0625 c 0.42269,2.1837 0.65625,4.4431 0.65625,6.75 0,19.49758 -15.81492,35.3125 -35.3125,35.3125 -1.99171,0 -3.94242,-0.18288 -5.84375,-0.5 l 0.5,-2.9375 c 1.73598,0.28825 3.52573,0.4375 5.34375,0.4375 17.85209,0 32.34375,-14.46041 32.34375,-32.3125 0,-2.11955 -0.20382,-4.1821 -0.59375,-6.1875 z m -66.9375,5 c -0.03111,0.58149 -0.03125,1.16072 -0.03125,1.75 0,9.18906 3.846967,17.46148 10,23.34375 l -2.0625,2.15625 C 48.66897,139.07316 44.48096,130.0917 44.4375,120.125 Z"
     inkscape:connector-curvature="0" />
</svg>
